<?xml version="1.0" ?><svg fill="#a9a9a9" enable-background="new 0 0 500 500" id="Layer_1" version="1.1" viewBox="0 0 500 500" xml:space="preserve" xmlns="http://www.w3.org/2000/svg" xmlns:xlink="http://www.w3.org/1999/xlink"><g><g><polygon points="400.1,401.1 60.5,401.1 60.5,100 203.1,99.9 230.4,127.3 402.7,127.3 402.7,192.7 375.3,192.7 375.3,154.7     219.1,154.7 191.7,127.3 87.9,127.3 87.9,373.7 377.9,373.7 406.7,236.8 375.3,236.8 375.3,220.7 389,220.7 389,209.4     440.5,209.4   "/></g><g><polygon points="94.5,335.1 67.6,330.2 97,168.4 419.3,168.4 408.2,225.7 381.3,220.5 386.1,195.7 119.8,195.7   "/></g><g><polygon points="87.5,390.7 60.9,384 98.1,236.8 226.3,236.8 253.7,209.4 416.4,209.4 416.4,236.8 265,236.8 237.7,264.2     119.5,264.2   "/></g></g></svg>