<?xml version="1.0" encoding="utf-8"?>
<!-- Generator: Adobe Illustrator 21.0.0, SVG Export Plug-In . SVG Version: 6.00 Build 0)  -->
<svg version="1.1" id="Слой_1" xmlns="http://www.w3.org/2000/svg" xmlns:xlink="http://www.w3.org/1999/xlink" x="0px" y="0px"
	 viewBox="0 0 148.4 78.4" style="enable-background:new 0 0 148.4 78.4;" xml:space="preserve">
<style type="text/css">
	.st0{fill:#dee0f6;}
</style>
<g>
	<path class="st0" d="M48.2,31.4c-1.6-1.4-3.7-1.9-5.8-1.7c-2.1,0.2-4,1.5-5.1,3.2c-1.9,2.8-2.3,6.4-1.5,9.6
		c0.5,2.2,1.6,4.2,3.5,5.5c2.8,1.9,6.8,1.7,9.3-0.7c2.3-2.2,3.1-5.7,2.9-8.8C51.2,35.9,50.2,33.2,48.2,31.4z"/>
	<path class="st0" d="M145.4,0.1c-1-0.2-2-0.1-3-0.1C96.3,0,50.1,0,4,0c-0.4,0-0.9,0-1.3,0.2C1.1,0.7-0.1,2.4,0,4.1
		c0,23.4,0,46.9,0,70.3c-0.1,1.5,0.8,3,2.2,3.7c1,0.5,2.1,0.4,3.2,0.4c46.4,0,92.7,0,139.1,0c2,0.1,3.9-1.8,3.8-3.8
		c0-23.5,0-47,0-70.5C148.5,2.3,147.1,0.5,145.4,0.1z M115.9,19.9c0.4-0.1,0.9,0.2,0.9,0.6c0.1,0.5-0.5,0.9-0.9,0.7
		C115.1,21.2,115.2,20.1,115.9,19.9z M114.1,16.6c-0.2,0.2-0.4,0.4-0.5,0.7c-0.5-0.3-1.1-0.6-1.7-0.9c-0.2,0.5-0.4,1-0.6,1.5
		c0.6,0.2,1.1,0.5,1.7,0.7c-0.1,0.1-0.3,0.4-0.5,0.5c-0.5-0.2-1-0.4-1.5-0.6c-0.2,0.5-0.4,1.1-0.6,1.6c0.7,0.3,1.5,0.6,2.3,0.8
		c-0.2,0.2-0.4,0.5-0.7,0.6c-1-0.3-1.9-0.8-2.9-1.2c0.8-1.6,1.5-3.3,2-5C112.1,15.8,113.1,16.2,114.1,16.6z M98.4,27.5
		c4.8,0,9.7,0,14.5,0c-0.3,1.1-0.7,2.2-1.1,3.2c-1-0.3-2-0.8-3.1-0.8c-1.9,0-3.7,0-5.6,0c0,2.7,0,5.3,0,8c2.8-0.1,5.6,0.1,8.4-0.1
		c-0.3,0.8-0.6,1.7-0.9,2.5c-2.5,0-5,0-7.5,0c0,2.8,0,5.7,0,8.5c2.3,0,4.7,0,7,0c1.3,0,2.4-0.5,3.6-0.8c-0.4,1.1-0.8,2.2-1.1,3.3
		c-4.7,0-9.5,0-14.2,0c0.3-0.8,0.7-1.5,0.6-2.4c0-6.4,0-12.7,0-19.1C99.2,29.1,98.7,28.3,98.4,27.5z M105.6,13.5
		c1.4,0.4,2.8,0.9,4.1,1.4c-0.2,0.2-0.4,0.4-0.6,0.6c-0.4-0.2-0.9-0.4-1.4-0.6c-0.4,1.5-1,3-1.4,4.5c-0.4-0.1-0.8-0.3-1.1-0.4
		c0.7-1.4,1-3,1.5-4.4c-0.6-0.2-1.2-0.3-1.7-0.4C105.2,13.9,105.4,13.7,105.6,13.5z M100.8,13.7c0.4-0.4,0.6-0.9,0.8-1.4
		c0.3,0.1,0.7,0.2,1,0.3c0.3,1.9,0.3,3.9,0.7,5.8c-0.4-0.1-0.8-0.2-1.2-0.3c0-0.6,0-1.3-0.1-1.9c-0.6-0.2-1.2-0.3-1.8-0.5
		c-0.4,0.5-0.7,1-1,1.6c-0.3-0.1-0.6-0.2-1-0.3C99.2,15.9,100,14.8,100.8,13.7z M95,10.7c0.4,0.1,0.8,0.2,1.2,0.2
		c-0.5,1.5-0.7,3.1-1,4.6c0.8,0.2,1.5,0.3,2.3,0.4c-0.1,0.2-0.3,0.5-0.4,0.7c-1-0.2-2.1-0.4-3.1-0.6C94.4,14.2,94.8,12.4,95,10.7z
		 M88.9,9.9c1.3-0.4,3,0.3,3.5,1.7c0.3,1.1,0.1,2.4-0.8,3.1c-1.2,1.1-3.5,0.8-4.3-0.7C86.4,12.6,87.2,10.3,88.9,9.9z M82,9.5
		c1-0.6,2.2-0.4,3.2,0c-0.1,0.3-0.2,0.6-0.3,0.9c-0.5-0.4-1.1-0.8-1.8-0.6c-1.7,0.5-1.9,3.3-0.2,4c0.8,0.3,1.6-0.1,2.1-0.6
		c0.1,0.3,0.2,0.6,0.2,0.9c-1.2,0.7-2.9,0.7-3.9-0.4C80.3,12.6,80.6,10.4,82,9.5z M78.8,38c4.2,0,8.3,0,12.5,0c0-2.8,0-5.6,0-8.5
		c0.1-0.8-0.5-1.4-0.9-2c1.9,0,3.7,0,5.6,0c-0.3,0.6-0.7,1.3-0.7,2c0,6.6,0,13.2,0,19.8c-0.1,0.8,0.4,1.4,0.7,2.1
		c-1.9,0-3.7,0-5.6,0c0.3-0.6,0.9-1.2,0.9-1.9c0-3,0-6.1,0-9.1c-4.2,0-8.3,0-12.5,0c0,3,0,6.1,0,9.1c0,0.7,0.4,1.3,0.7,1.9
		c-1.9,0-3.8,0-5.6,0c0.4-0.7,1-1.3,0.9-2.1c0-6.6,0-13.2,0-19.8c0-0.8-0.6-1.4-0.9-2c1.9,0,3.7,0,5.6,0c-0.3,0.6-0.7,1.3-0.7,2
		C78.8,32.4,78.8,35.2,78.8,38z M75.1,9c1-0.3,2.2-0.2,2.9,0.5c1.1,1,1.1,2.9,0.2,4c-1.1,1.3-3.4,1.2-4.4-0.2
		C72.8,11.9,73.4,9.5,75.1,9z M67.8,9c-0.1,0.8,0,1.6,0,2.3c0.8-0.1,1.7,0,2.5-0.1c0.3-0.7,0-1.6-0.1-2.3c0.4,0,0.8,0,1.2,0
		c-0.1,1.8,0.1,3.6,0.3,5.4c-0.4,0-0.8,0-1.2,0.1c0.1-0.8,0-1.6,0-2.4c-0.9,0.1-1.7,0.1-2.6,0.2c0,0.8,0.1,1.6,0.2,2.4
		c-0.4,0-0.8,0-1.2,0.1c0.2-0.9,0-1.8,0-2.7c0-0.9,0-1.8-0.3-2.7C67,9.1,67.4,9.1,67.8,9z M61.2,10.2c0.9-0.8,2.2-0.9,3.3-0.5
		c-0.1,0.3-0.1,0.6-0.2,0.9c-0.5-0.3-1.2-0.7-1.8-0.3c-1.6,0.8-1.3,3.6,0.4,4c0.8,0.2,1.5-0.4,2-1c0.1,0.3,0.2,0.6,0.3,0.9
		c-1,0.9-2.5,1.2-3.7,0.4C60.1,13.7,59.9,11.3,61.2,10.2z M67.5,43c-2.3-2.3-5.9-2.4-8.2-4.7c-2.4-2.4-2.1-6.7,0.3-8.9
		c2-2,5-2.5,7.7-2c1.3,0.2,2.6,0.9,3.6,1.8c-0.5,1.2-1,2.4-1.5,3.6c-0.1,0-0.4-0.2-0.6-0.2c-0.6-2.4-3.6-3.5-5.7-2.4
		c-1.7,0.8-2.4,3.3-1.2,4.9c1.2,1.6,3.2,2,4.9,2.8c2.1,0.9,4.2,2.3,5,4.6c0.9,3-0.5,6.4-3.1,8c-2.1,1.4-4.7,1.6-7.1,1.2
		c-1.8-0.3-3.6-1.2-4.8-2.6c0.4-1.3,0.7-2.6,1.1-3.9c0.2,0.1,0.4,0.1,0.6,0.2c0.7,3.1,4.4,4.6,7.2,3.8C68.3,48.4,69.3,44.9,67.5,43z
		 M54,10.8c0,0.2,0,0.6-0.1,0.8c-0.6,0-1.3,0.1-1.9,0.2c0.1,0.5,0.2,1.1,0.3,1.6c0.6-0.1,1.2-0.2,1.8-0.3c0,0.2-0.1,0.5-0.1,0.7
		c-0.5,0.1-1,0.2-1.6,0.3c0.1,0.6,0.2,1.1,0.4,1.7c0.8-0.2,1.5-0.3,2.3-0.6c0,0.3-0.1,0.6-0.1,0.9c-1,0.2-2.1,0.4-3.1,0.7
		c-0.3-1.8-0.6-3.6-1.1-5.3C51.9,11.2,53,11,54,10.8z M44.8,13c1.2,0.8,2.3,1.5,3.5,2.3c-0.3-1-0.5-2.1-0.9-3c0.3-0.1,0.7-0.2,1-0.3
		c0.3,1.8,0.9,3.6,1.3,5.4c-1.6-0.9-3-1.9-4.5-2.9c0.4,1.2,0.6,2.5,1.1,3.7c-0.3,0.1-0.7,0.2-1,0.3c-0.1-1.2-0.5-2.4-0.8-3.5
		c-0.1-0.6-0.3-1.2-0.7-1.7C44.2,13.2,44.5,13.1,44.8,13z M41.3,14.2c0.5,1.7,1.1,3.4,1.8,5.1c-0.4,0.1-0.8,0.3-1.2,0.4
		c-0.4-1.7-1-3.5-1.8-5.1C40.5,14.5,40.9,14.3,41.3,14.2z M38.5,15.2c0,0.2,0.1,0.6,0.1,0.8c-0.6,0.2-1.2,0.4-1.8,0.7
		c0.2,0.5,0.4,1,0.7,1.5c0.6-0.3,1.1-0.5,1.7-0.8c0,0.2,0,0.6,0,0.7c-0.5,0.2-0.9,0.4-1.4,0.6c0.3,0.7,0.6,1.5,1,2.2
		c-0.4,0.2-0.7,0.4-1.1,0.5c-0.6-1.7-1.3-3.4-2.2-4.9C36.5,16.1,37.5,15.6,38.5,15.2z M32.4,20.2c0.6-0.6,1.7,0.2,1.2,0.9
		C33,21.9,31.7,20.9,32.4,20.2z M11.6,56.4c0-0.5,0-1,0-1.5c5.2,0,10.3,0,15.5,0c0.5,0.4,1.3,0.7,1.3,1.5
		C22.8,56.5,17.2,56.4,11.6,56.4z M36.7,57c-2.1-0.2-4.2-1.1-5.9-2.4c-2.6-1.9-4.6-4.3-6.6-6.8c-2-2.6-4-5.1-6.1-7.7
		c0.2-0.2,0.2-0.7,0.6-0.6c2-0.1,4.1-0.7,5.3-2.3c1.6-2,1.3-5.5-1.1-6.8c-1.7-0.9-3.6-0.9-5.5-0.7c0,6.6,0,13.2,0,19.9
		c0,0.7,0.4,1.3,0.7,1.9c-1.9,0-3.7,0-5.6,0c0.4-0.7,1-1.3,0.9-2.1c0-6.5,0-12.9,0-19.4c0.1-0.9-0.5-1.7-0.8-2.5
		c2.4-0.1,4.8,0,7.2-0.1c2.5-0.1,5.2,0.3,7.1,2c2.2,1.9,2.5,5.5,0.9,8c-1,1.7-2.8,2.8-4.7,3.1c1.7,2,3.2,4,4.8,6
		c2.1,2.7,4.5,5.3,7.4,7.1c1.9,1.2,4.1,1.9,6.4,1.8c0.1,0.3,0.3,0.6,0.4,0.9C40.4,56.9,38.5,57.2,36.7,57z M34.3,48.2
		c-2.2-2.3-3.3-5.6-3.2-8.8c0-3.2,1.1-6.5,3.4-8.9c1.7-1.7,3.9-2.8,6.3-3.2c3.5-0.6,7.3-0.1,10.2,2.1c2.5,1.8,4.1,4.8,4.5,7.8
		c0.6,3.7-0.3,7.7-2.8,10.6C48.2,53.2,39.1,53.2,34.3,48.2z M51.4,69.2c-0.7,0.2-1.5-0.1-2.1-0.5c0.1-0.3,0.2-0.7,0.3-1
		c0.3,0.5,0.7,1,1.3,1c0.6,0.1,1.2-0.7,0.8-1.3c-0.5-0.6-1.4-0.6-1.9-1.2c-0.5-0.7-0.3-1.8,0.5-2.2c0.7-0.4,1.5-0.2,2.2,0.1
		c-0.1,0.3-0.2,0.6-0.4,0.9c-0.3-0.2-0.5-0.7-1-0.7c-0.6-0.1-1.1,0.7-0.7,1.1c0.6,0.6,1.6,0.6,2,1.3C53.1,67.8,52.4,69.1,51.4,69.2z
		 M55.2,69.2c0.3-1.8,0.2-3.6,0-5.3c0.4,0,0.7,0,1.1,0c-0.1,1.8-0.1,3.6,0,5.3C56,69.2,55.6,69.2,55.2,69.2z M63.9,69.4
		c-1.2-1.3-2.4-2.7-3.6-4c0,1.3-0.1,2.6,0.1,3.9c-0.3,0-0.7,0-1,0c0.3-0.9,0.2-1.8,0.2-2.7c0-0.9,0.1-1.8-0.2-2.7c0.3,0,0.7,0,1,0
		c0.9,1.1,1.9,2.1,2.9,3.2c0-1.1,0.1-2.2-0.1-3.2c0.3,0,0.7,0,1,0C63.8,65.7,63.9,67.6,63.9,69.4z M67.2,68.8
		c-1.4-0.9-1.5-3.3-0.2-4.3c1-0.9,2.4-0.8,3.5-0.2c-0.1,0.3-0.2,0.6-0.3,0.9c-0.5-0.4-1.1-0.8-1.8-0.6c-1.7,0.5-1.8,3.4-0.2,4.1
		c0.8,0.3,1.6-0.1,2.1-0.6c0.1,0.2,0.2,0.6,0.2,0.9C69.6,69.4,68.2,69.5,67.2,68.8z M75.9,69.2c-1,0-2.1,0-3.1,0
		c0.1-1.8,0.1-3.6,0-5.3c1.1,0,2.2,0,3.2,0c-0.1,0.2-0.2,0.5-0.3,0.7c-0.6-0.1-1.2-0.1-1.9-0.1c0,0.6,0,1.1,0,1.7c0.6,0,1.3,0,1.9,0
		c-0.2,0.9-1.2,0.5-1.9,0.6c0,0.6,0,1.2,0,1.8c0.8,0,1.6,0,2.3-0.2C76.1,68.7,76,69,75.9,69.2z M81.2,69.3c0.3-1.4,0.1-2.8,0.2-4.2
		c-0.2-0.2-0.3-0.3-0.5-0.4c0.5-0.2,0.9-0.5,1.4-0.7c0,1.8-0.1,3.6,0.1,5.4C82,69.2,81.6,69.2,81.2,69.3z M87.3,68.9
		c-0.5,0.3-1.1,0.7-1.6,0.3c0.9-0.5,1.7-1.1,2.2-2.1c-0.7,0.1-1.5,0.4-2.1-0.1c-1-0.7-0.7-2.6,0.5-3c0.9-0.4,2-0.1,2.5,0.8
		C89.3,66.2,88.7,68.1,87.3,68.9z M93.1,68.9c-0.5,0.3-1.1,0.7-1.7,0.3c0.9-0.5,1.8-1.1,2.2-2.1c-0.7,0.2-1.5,0.4-2.1,0
		c-0.9-0.6-0.8-2.2,0-2.8c0.8-0.6,2.2-0.6,2.8,0.4C95.1,66.1,94.5,68.1,93.1,68.9z M100,69c-0.9,0.7-2.4,0.6-2.9-0.5
		c-0.9-1.9,0.5-4.3,2.5-4.6c0.5,0.1,0.1,0.5-0.2,0.6c-0.7,0.4-1.2,1-1.6,1.7c0.6-0.1,1.4-0.4,2,0C100.9,66.7,100.9,68.4,100,69z
		 M136.8,56.4c-30.1,0-60.1,0-90.2,0c-0.5-0.4-1.2-0.7-1.2-1.5c30.5,0,60.9,0,91.4,0C136.7,55.5,136.7,56,136.8,56.4z M136.5,29.8
		c0,7.4,0,14.8,0,22.2c-5.5-6.1-11.1-12.3-16.6-18.4c0,5.3,0,10.5,0,15.8c-0.1,0.8,0.4,1.4,0.7,2.1c-1.6,0-3.2,0-4.8,0
		c0.4-0.7,1-1.3,0.9-2.1c0-6.4,0-12.7,0-19.1c0.1-1.1-0.8-1.9-1.3-2.7c1.5,0,3,0,4.4,0c4.5,5,8.9,10,13.3,15c0-4.3,0-8.7,0-13
		c0.1-0.8-0.5-1.4-0.9-2c1.6,0,3.2,0,4.8,0C136.9,28.3,136.4,29,136.5,29.8z"/>
	<path class="st0" d="M101.8,13.6c-0.4,0.5-0.7,1-1.1,1.4c0.4,0.1,0.9,0.2,1.3,0.4C101.9,14.8,101.9,14.2,101.8,13.6z"/>
	<path class="st0" d="M75.9,13.7c1.4,0.1,2.2-1.6,1.8-2.7c-0.2-1-1.2-1.8-2.2-1.3C73.9,10.3,74.1,13.4,75.9,13.7z"/>
	<path class="st0" d="M89.9,14.7c1.2-0.3,1.8-1.9,1.4-3c-0.2-0.8-1.2-1.3-2-1C88.4,11,87.9,12.1,88,13C88,14,88.9,14.9,89.9,14.7z"
		/>
	<path class="st0" d="M92.5,64.5c-0.7,0.3-0.8,1.4-0.4,2c0.4,0.5,1.3,0.2,1.5-0.3C93.9,65.4,93.4,64.2,92.5,64.5z"/>
	<path class="st0" d="M86.7,64.5c-0.6,0.3-0.7,1.2-0.4,1.8c0.2,0.5,1,0.6,1.4,0.1C88.3,65.7,87.7,64.1,86.7,64.5z"/>
	<path class="st0" d="M98.4,66.7c-0.9,0.4-0.7,2.1,0.4,2.2C100.1,68.7,99.8,66,98.4,66.7z"/>
</g>
</svg>
