<?xml version="1.0" encoding="utf-8"?>
<!-- Generator: Adobe Illustrator 21.0.0, SVG Export Plug-In . SVG Version: 6.00 Build 0)  -->
<svg version="1.1" fill="#dee0f6" id="Layer_1" xmlns="http://www.w3.org/2000/svg" xmlns:xlink="http://www.w3.org/1999/xlink" x="0px" y="0px"
	 viewBox="0 0 175.7 136.5" style="enable-background:new 0 0 175.7 136.5;" xml:space="preserve">
<g>
	<polygon points="62,29.2 62.2,29.4 62.4,29.4 62.5,29.4 62.5,29.5 62.7,29.5 62.9,29.4 62.9,29.3 62.7,29 62.7,28.9 62.9,28.6 
		63,28.6 63.1,28.6 63.1,28.7 63.3,28.9 63.4,28.9 63.5,28.4 63.5,27.9 63.4,27.4 63.3,27.2 63.1,27 62.9,26.9 62.7,26.8 62.4,26.8 
		62.1,27 61.9,27.2 61.7,27.7 61.7,27.8 61.7,27.8 61.7,28.4 61.8,28.9 	"/>
	<polygon points="58.2,27.9 58.9,27.9 59.1,27.8 59.3,27.6 59.3,27.4 59.3,27.2 59.3,27 59.1,26.9 58.1,26.9 58,26.9 58,27.5 
		58,27.8 	"/>
	<polygon points="55.1,28.6 55.1,28.6 54.8,27.3 54.7,27.3 54.7,27.4 54.4,28.5 54.3,28.6 54.5,28.7 	"/>
	<polygon points="112,28 112,28 112.6,28 112.9,27.9 113,27.8 113.1,27.5 113.1,27.2 113,27 112.8,26.8 112.7,26.8 112,26.8 
		111.9,26.9 111.9,27.9 	"/>
	<polygon points="115.5,28.9 115.7,29.1 115.9,29.3 116,29.4 116.2,29.4 116.2,29.4 116.3,29.4 116.5,29.4 116.7,29.3 116.9,29.2 
		117.1,28.9 117.2,28.3 117.2,27.9 117.1,27.5 117,27.1 116.7,26.9 116.6,26.8 116.4,26.8 116.1,26.8 115.9,26.9 115.7,27 
		115.5,27.4 115.4,28 115.4,28.5 	"/>
	<polygon points="104.5,29.4 105,29.3 105.3,29.3 105.4,29.2 105.6,28.9 105.8,28.3 105.8,27.9 105.7,27.4 105.6,27.1 105.4,26.9 
		105.1,26.8 104.5,26.8 104.4,26.8 104.4,29.3 104.5,29.3 	"/>
	<path d="M33.6,107.4c0.2,0,0.3-0.1,0.3-0.1C33.9,107.4,33.7,107.4,33.6,107.4z"/>
	<path d="M142.2,107.6C142.2,107.6,142.2,107.6,142.2,107.6L142.2,107.6L142.2,107.6z"/>
	<path d="M33.6,107.4C33.6,107.4,33.6,107.4,33.6,107.4C33.6,107.4,33.6,107.4,33.6,107.4C33.6,107.4,33.6,107.4,33.6,107.4z"/>
	<polygon points="75.4,38.1 87.8,29.1 100.2,38.1 95.5,23.6 107.9,14.5 92.5,14.5 87.9,0 83.1,14.5 67.8,14.5 80.2,23.6 	"/>
	<path d="M175.7,61.5L171.5,47l-28.3-5.8V48H32.6v-6.8L4.3,47L0,61.5c5.5,4.2,5.8,11.4,0,16l4.3,14.5l28.3,5.8v-6.8h110.6v6.8
		l28.3-5.8h0l4.3-14.5C170,72.9,170.2,65.7,175.7,61.5z M169.9,90.3l-24.7,5V89H30.5v6.3l-24.6-5L2.3,78.2c5.2-4.6,5.3-12.9,0-17.4
		l3.5-12.1l24.6-4.9v6.3h114.7v-6.3l24.7,4.9l3.5,12.1c-5.3,4.5-5.2,12.9,0,17.4L169.9,90.3z"/>
	<path d="M45.7,71.4l1.5-0.5c0.6-0.2,1.2-0.5,1.6-0.9c0.3-0.3,0.3-1.1,0.1-1.8c-0.6-2-1.8-3-3.8-2.4c-1.9,0.6-2.2,4.1-1.8,5.3
		C43.6,72,44.3,71.9,45.7,71.4z"/>
	<path d="M94.6,71.4l1.5-0.5c0.6-0.2,1.2-0.5,1.5-0.9c0.3-0.3,0.3-1.1,0.1-1.8c-0.6-2-1.8-3-3.8-2.4c-1.9,0.6-2.2,4.1-1.8,5.3
		C92.4,72,93.1,71.9,94.6,71.4z"/>
	<path d="M158.7,55.6c-1.5,0-2.7,1.2-2.7,2.7c0,1.5,1.2,2.7,2.7,2.7c1.5,0,2.7-1.2,2.7-2.7C161.4,56.8,160.2,55.6,158.7,55.6z
		 M159.6,60c-0.2-0.4-0.2-0.7-0.3-0.9c-0.1-0.4-0.4-0.5-0.8-0.5c-0.3,0-0.3,0-0.3,0V60h-0.8v-3.7c0,0,1.5,0,1.8,0
		c0.3,0,1.1,0.2,1.1,1c0,0.5-0.3,0.8-0.6,0.9c0.3,0.2,0.4,0.4,0.5,0.8c0.1,0.4,0.2,0.7,0.3,0.9C160,60,159.9,60,159.6,60z"/>
	<path d="M131.8,71.4l1.5-0.5c0.6-0.2,1.2-0.5,1.5-0.9c0.3-0.3,0.3-1.1,0.1-1.8c-0.6-2-1.8-3-3.8-2.4c-1.9,0.6-2.3,4.1-1.8,5.3
		C129.6,72,130.3,71.9,131.8,71.4z"/>
	<path d="M158.8,57c-0.3,0-0.6,0-0.6,0v0.8c0,0,0.4,0,0.7,0c0.3,0,0.5-0.2,0.5-0.4C159.3,57.1,159,57,158.8,57z"/>
	<path d="M171.4,60.6l-2.5-8.8H6.8l-2.5,8.8c5,5.1,4.5,13.3,0,17.8l2.5,8.8h162.1l2.5-8.8C166.9,74,166.4,65.7,171.4,60.6z
		 M59.8,56.4c1.7,0,3.1,1.3,3.1,3c0,1.7-1.4,3-3.1,3c-1.7,0-3.1-1.3-3.1-3C56.6,57.8,58,56.4,59.8,56.4z M36.8,80.9
		c-0.1,0-0.6,0.1-0.6,0.1h-8.8c0,0-0.4,0-0.5-0.1c-0.3-0.1-0.5-1.9-0.4-2.2c0.1-0.2,0.9-0.4,1.2-0.6c0.6-0.3,1.1-0.6,1.1-2.7l0-5.3
		c0-0.3-0.2-0.5-0.5-0.5h-4.6c-0.3,0-0.5,0.2-0.5,0.5l0,5.3c0,2.1,0.5,2.4,1.1,2.7c0.4,0.2,0.8,0.3,1,0.6c0.2,0.3,0.1,2.1-0.3,2.2
		c-0.1,0-0.7,0.1-0.7,0.1H16c0,0-0.6,0-0.7-0.1C15,80.7,14.8,79,15,78.7c0.2-0.3,0.6-0.4,1-0.6c0.6-0.3,1.1-0.6,1.1-2.7V62.2
		c0-1.9-0.3-2.4-0.9-2.7c-0.4-0.1-1-0.4-1.1-0.5c-0.4-0.2-0.1-1.9,0.2-2c0.1,0,0.6-0.1,0.6-0.1h8.2c0,0,0.5-0.1,0.7,0.1
		c0.2,0.2,0.4,1.8,0.1,2c-0.2,0.1-0.6,0.4-0.9,0.5c-0.5,0.3-0.7,0.8-0.7,2.7l0,3.3c0,0.3,0.2,0.5,0.5,0.5h4.6c0.3,0,0.5-0.2,0.5-0.5
		l0-3.3c0-1.9-0.2-2.4-0.7-2.7c-0.3-0.1-0.7-0.4-0.9-0.5c-0.2-0.1-0.3-0.3-0.2-1c0.1-0.7,0.2-0.9,0.3-1c0.1,0,0.7,0,0.7,0
		c0,0,7.3,0,8.2,0c0.3,0,0.5,0,0.6,0c0.2,0.1,0.2,0.4,0.3,1c0.1,0.7,0,0.9-0.2,1c-0.2,0.1-0.8,0.4-1.1,0.5c-0.6,0.3-0.8,0.8-0.8,2.7
		v13.2c0,2.1,0.5,2.4,1.1,2.7c0.4,0.2,0.8,0.3,1,0.6C37.3,79,37.1,80.8,36.8,80.9z M54.8,77c-1.8,3.2-6.4,5-10.2,4.1
		c-4.1-1-7.3-4.1-7.3-9.4c0-4.3,3-8.1,7.2-8.9c5.2-1,8.4,2.3,9.8,5.4c0.4,1,0.3,1.9-0.7,2.6c-0.6,0.4-2.3,1.3-4.3,2
		c-2.2,0.8-4.8,1.6-5.1,1.7c-0.5,0.1-0.7,0.3-0.5,0.9c1,2.8,4.3,2.5,5.5,2.1c1.2-0.4,2.8-1.5,3.7-2.6C54.3,74.9,55.1,76.2,54.8,77z
		 M65,79.2c0,0.2,0,0.8-0.1,1.1c-0.1,0.4-0.2,0.5-0.8,0.5h-7.7c-0.6,0-0.7-0.1-0.8-0.5c-0.1-0.4-0.1-0.9-0.1-1.1
		c-0.1-0.5,0-0.7,0.4-0.8c0.2-0.1,0.3-0.2,0.5-0.3c0.5-0.2,1-0.8,1-2.3v-7.7c0-1.2-0.2-1.9-0.6-2.1c-0.1-0.1-0.2-0.2-0.4-0.3
		c-0.4-0.2-0.6-0.2-0.6-0.7c0-0.5,0-0.8,0.1-1.1c0.1-0.4,0.2-0.5,0.7-0.5c0,0,5.4,0,5.9,0c0.4,0,0.6,0.2,0.6,0.6
		c0,0.5,0,11.7,0,11.7c0,1.6,0.6,2.1,1,2.3c0.2,0.1,0.3,0.2,0.5,0.2C65,78.6,65,78.8,65,79.2z M85.7,78.8c-0.7,1.5-2.3,2.3-4.1,2.3
		c-1.7,0-3.9-1-3.9-3.6c0-2.6,0-7.9,0-9.1c0-1.3-1-1.9-1.8-1.8c-1.2,0.2-2.2,1.1-2.2,2.9l0,6.2c0,1.6,0.6,2.1,1,2.3
		c0.2,0.1,0.3,0.2,0.5,0.2c0.4,0.2,0.5,0.4,0.4,0.9c0,0.2,0,0.8-0.1,1.1c-0.1,0.4-0.2,0.5-0.8,0.5h-7.6c-0.5,0-0.7-0.1-0.8-0.5
		c-0.1-0.4-0.1-0.9-0.1-1.1c-0.1-0.5,0-0.7,0.4-0.8c0.2-0.1,0.3-0.2,0.5-0.3c0.5-0.2,1-0.8,1-2.3v-7.9c0-1.2-0.3-1.9-0.6-2.1
		c-0.1-0.1-0.2-0.2-0.4-0.3c-0.4-0.2-0.6-0.2-0.6-0.7c0-0.5,0-0.8,0.1-1.1c0.1-0.4,0.2-0.5,0.7-0.5l5.7,0c0.5,0,0.6,0.3,0.8,0.7
		c0.1,0.2,0.2,0.4,0.2,0.4s0.3-0.2,0.9-0.4c1.2-0.5,3.4-1.5,5.3-0.9c1.6,0.5,3,1.8,3,4.8c0,3.5,0,8,0,9.4c0,1.4,0.8,0.5,1.3,0.3
		c0.4-0.2,0.6,0,0.9,0.3C85.7,78,85.9,78.4,85.7,78.8z M103.6,77c-1.8,3.2-6.4,5-10.2,4.1c-4.1-1-7.3-4.1-7.3-9.4
		c0-4.3,3-8.1,7.2-8.9c5.2-1,8.4,2.3,9.8,5.4c0.4,1,0.3,1.9-0.7,2.6c-0.6,0.4-2.3,1.3-4.3,2c-2.2,0.8-4.8,1.6-5.1,1.7
		c-0.5,0.1-0.7,0.3-0.5,0.9c1,2.8,4.3,2.5,5.5,2.1c1.2-0.4,2.8-1.5,3.7-2.6C103.1,74.9,103.9,76.2,103.6,77z M123.9,79.2
		c0,0.2,0,0.8-0.1,1.1c-0.1,0.4-0.2,0.5-0.8,0.5h-4.8c-0.6,0-0.6-0.1-0.8-0.5l-4-7.3l-1.5,1.3v1c0,1.5,0.2,2.4,1.1,2.8
		c0.2,0.1,0.3,0.2,0.5,0.2c0.4,0.2,0.5,0.4,0.4,0.9c0,0.2,0,0.8-0.1,1.1c-0.1,0.4-0.2,0.5-0.8,0.5h-7.6c-0.5,0-0.7-0.1-0.8-0.5
		c-0.1-0.4-0.1-0.9-0.1-1.1c-0.1-0.5,0-0.7,0.4-0.8c0.2-0.1,0.3-0.2,0.5-0.3c0.5-0.2,1-0.8,1-2.3V61.5c0-1.4-0.2-1.8-0.8-2.1
		c-0.1-0.1-0.4-0.2-0.6-0.3c-0.4-0.2-0.6-0.2-0.6-0.7c0-0.5,0-0.7,0.1-1c0.1-0.4,0.3-0.5,0.7-0.5l5.4,0c1,0,1.3,0.4,1.3,1.3l0,11.3
		l1.7-1.4c0,0,1.4-1.5,1.8-1.8c0.3-0.3,0.2-0.6-0.2-0.9c-0.3-0.2-0.5-0.3-0.7-0.3c-0.2-0.1-0.2-0.3-0.2-1.1c0.1-0.9,0.2-0.9,0.4-1
		c0.1,0,0.5,0,0.5,0s2,0,3.4,0c1.4,0,3.1,0,3.1,0s0.4,0,0.5,0c0.2,0,0.4,0.1,0.4,1c0.1,1-0.1,1.2-0.3,1.2c-0.2,0-0.9,0.3-1.4,0.6
		c-0.5,0.3-1.2,1-1.2,1l-2.6,2.5l4.2,7.7c0.7,1.3,1.9,1.4,2,1.5C123.9,78.6,123.9,78.8,123.9,79.2z M140.9,77
		c-1.8,3.2-6.4,5-10.2,4.1c-4.1-1-7.3-4.1-7.3-9.4c0-4.3,3-8.1,7.2-8.9c5.2-1,8.4,2.3,9.8,5.4c0.4,1,0.3,1.9-0.7,2.6
		c-0.6,0.4-2.3,1.3-4.3,2c-2.2,0.8-4.8,1.6-5.1,1.7c-0.5,0.1-0.7,0.3-0.5,0.9c1,2.8,4.3,2.5,5.5,2.1c1.2-0.4,2.8-1.5,3.7-2.6
		C140.4,74.9,141.1,76.2,140.9,77z M161,78.8c-0.7,1.5-2.3,2.3-4.1,2.3c-1.7,0-3.9-1-3.9-3.6c0-2.6,0-7.9,0-9.1c0-1.3-1-1.9-1.8-1.8
		c-1.2,0.2-2.2,1.1-2.2,2.9v6.2c0,1.6,0.6,2.1,1,2.3c0.2,0.1,0.3,0.2,0.5,0.2c0.4,0.2,0.5,0.4,0.4,0.9c0,0.2,0,0.8-0.1,1.1
		c-0.1,0.4-0.2,0.5-0.8,0.5h-7.6c-0.5,0-0.7-0.1-0.8-0.5c-0.1-0.4-0.1-0.9-0.1-1.1c-0.1-0.5,0-0.7,0.4-0.8c0.2-0.1,0.3-0.2,0.5-0.3
		c0.5-0.2,1-0.8,1-2.3v-7.9c0-1.2-0.3-1.9-0.6-2.1c-0.1-0.1-0.2-0.2-0.4-0.3c-0.4-0.2-0.6-0.2-0.6-0.7c0-0.5,0-0.8,0.1-1.1
		c0.1-0.4,0.2-0.5,0.7-0.5l5.6,0c0.5,0,0.6,0.3,0.8,0.7c0.1,0.2,0.2,0.4,0.2,0.4s0.3-0.2,0.9-0.4c1.2-0.5,3.4-1.5,5.3-0.9
		c1.6,0.5,3,1.8,3,4.8c0,3.5,0,8,0,9.4c0,1.4,0.8,0.5,1.3,0.3c0.4-0.2,0.6,0,0.9,0.3C160.9,78,161.2,78.4,161,78.8z M158.7,61.7
		c-1.9,0-3.4-1.5-3.4-3.4c0-1.9,1.5-3.4,3.4-3.4c1.9,0,3.4,1.5,3.4,3.4C162.1,60.2,160.6,61.7,158.7,61.7z"/>
	<polygon points="147.3,46 147.3,50.1 167.2,50.1 	"/>
	<polygon points="147.3,93.1 167.2,89 147.3,89 	"/>
	<polygon points="28.4,93.1 28.4,89 8.5,89 	"/>
	<polygon points="28.4,46 8.5,50.1 28.4,50.1 	"/>
	<path d="M106.6,130.1c-0.2-0.8-0.6-1.9-0.6-1.9l0-0.1l0.5-0.3c0-0.1-0.1-0.2-0.2-0.4c-0.1-0.3-0.3-0.6-0.5-0.9
		c-0.5-0.7-0.9-1.3-0.9-1.3l-0.1-0.1l0.4-0.3c-0.2-0.2-0.6-0.5-1.1-0.9c-0.3-0.3-0.7-0.5-1.1-0.8c-0.4-0.2-0.7-0.4-0.9-0.5
		c-0.3-0.1-0.7-0.2-1.1-0.2c-0.6,0-1.2,0.1-1.7,0.3c-0.2,0.1-0.4,0.1-0.5,0.2c-0.1,0-0.2,0.1-0.2,0.1l-0.1,0l-0.6-0.1l0-0.1
		c-0.4-0.7-0.6-1-0.7-1.2c-0.1-0.1-0.1-0.1-0.1-0.2c0,0,0,0,0,0c-0.1,0-0.2-0.1-0.2-0.1c-0.1,0-0.2,0-0.3,0.1
		c-0.1,0.1-0.2,0.1-0.2,0.2c0,0.1-0.1,0.2,0,0.2c0,0,0,0,0,0c0,0,0,0.1,0.1,0.2c0.1,0.2,0.3,0.6,0.7,1.2l0,0.1l0,0.1
		c0,0-0.1,0.2-0.2,0.4c0,0.1-0.1,0.2-0.1,0.2c0,0,0,0,0,0.1c0,0,0,0,0,0c0,0,0,0,0,0c0,0,0,0,0,0l0,0c0,0,0,0,0,0
		c-0.1,0-0.4,0.2-0.7,0.5c-0.3,0.3-0.7,0.8-1,1.5c-0.2,0.4-0.2,0.8-0.3,1.3c0,0.5,0,1,0,1.5c0,0.7,0.1,1.4,0.2,1.6l0.4,0l0,0.1
		c0,0,0.3,0.9,0.7,1.6c0.3,0.5,0.7,1.2,0.8,1.4l0.4-0.2l0.1,0.1c0,0,0.2,0.2,0.5,0.5c0.3,0.3,0.6,0.6,0.9,0.8
		c0.1,0.1,0.2,0.2,0.4,0.3c0.2,0.1,0.4,0.2,0.6,0.3c0.2,0.1,0.5,0.3,0.6,0.3l0.2-0.2l0.1,0.1c0,0,0,0,0.1,0c0,0,0.1,0,0.2,0.1
		c0.2,0.1,0.4,0.2,0.8,0.3c0.5,0.1,0.9,0.2,1.2,0.3c0,0,0.1,0,0.1,0c0,0,0,0,0-0.1c0-0.1,0.1-0.2,0.1-0.2l0-0.1l0.1,0
		c0,0,0.5,0.1,1,0.2c0.3,0.1,0.5,0.1,0.7,0.2c0.1,0,0.1,0,0.2,0c0-0.1,0-0.1,0.1-0.2c0.1-0.2,0.1-0.4,0.2-0.7
		c0.1-0.2,0.2-0.5,0.2-0.7c0.1-0.2,0.1-0.3,0.1-0.3l0-0.1l0.1,0c0.1,0,0.3,0,0.4,0c0,0,0-0.1,0-0.1c0-0.1,0.1-0.3,0.1-0.4
		c0.1-0.3,0.2-0.7,0.2-0.9c0-0.1,0-0.2,0-0.3c0-0.1,0-0.3,0-0.4c0-0.3,0-0.5,0-0.6c0,0,0,0,0,0l0,0c0-0.1,0.1-0.1,0.1-0.1
		c0,0,0,0,0,0c0,0,0.1,0,0.1,0c0.1,0,0.2,0,0.2-0.1l0-0.1C106.9,131.2,106.8,130.8,106.6,130.1z M105.2,127.4c0,0-0.8,0.3-0.9,0.1
		c-0.2-0.6-0.8-1.3-0.8-1.5c0-0.1,0.5-0.4,0.5-0.3C104.4,126,105.2,127.4,105.2,127.4z M100.2,123.4c1.4-0.5,3,0.9,3.5,1.3
		c0,0-0.4,0.3-0.9,0.4c-0.6,0.2-1.2,0.3-1.2,0.2C101.3,124.3,100,123.4,100.2,123.4z M103.2,129.7c-0.1,0-0.6-0.1-1-0.2
		c-0.4-0.2-0.8-0.4-0.8-0.4c0.2-0.2,0.3-2.6,0.4-2.6c0.1,0,0.3-0.1,0.4-0.1C103.7,126.8,103.5,129.6,103.2,129.7z M95.6,129.4
		c-0.7-2.2,0.9-4.3,0.8-3.9c-0.1,1.2,0.9,2.3,0.9,2.3c0,0-0.2,0.4-0.5,0.7C96.3,129,95.6,129.4,95.6,129.4z M97,132.3
		c0,0-0.8-1-0.9-2.1c0-0.1,0.6-0.5,0.7-0.3c0.2,0.5,0.9,1.5,0.9,1.5L97,132.3z M99.7,134.6c0,0-1.2-0.6-1.9-1.6c0,0,0.5-0.7,0.6-0.7
		c0.7,0.4,1.9,0.6,1.9,0.8C100.4,133.2,99.7,134.6,99.7,134.6z M100.1,131.8c0,0-2.1-0.4-2.5-2.6c0,0,0.5-0.5,0.6-0.5
		c0.5,0.2,1.4,0.5,2.1,0.8C100.8,129.7,100.1,131.8,100.1,131.8z M100.5,128.5c0,0-2.2-0.5-2.8-2c-0.2-0.6-0.9-2.1,0.4-2.6
		c1.1-0.5,1.9,0.6,2.4,1.7C100.9,126.4,100.5,128.5,100.5,128.5z M102.1,135.3c-0.2,0-1.3-0.4-1.4-0.5c0-0.1,0.5-1.1,0.6-1.1
		c0.1,0,1.1,0.3,1.1,0.4C102.5,134.3,102.2,135.3,102.1,135.3z M101.1,132.4c-0.1-0.2,0.5-2,0.6-2c0.2,0,1.6,0.3,1.6,0.5
		c0.2,0.3-0.1,2.3-0.2,2.3C102.9,133.1,101.3,132.7,101.1,132.4z M104.2,135.4c-0.1,0-0.9-0.2-0.9-0.3c0-0.1,0.1-0.8,0.4-0.9
		c0.2,0,1,0.2,0.9,0.3C104.4,134.5,104.4,135.4,104.2,135.4z M105.2,133.4c-0.2,0-1.1-0.1-1.2-0.2c0-0.1,0.2-1.4,0.3-1.5
		c0.2-0.1,0.8,0,1,0.1C105.5,131.9,105.3,133.4,105.2,133.4z M105.6,130.6c-0.1,0.1-1.2,0.1-1.4,0c-0.1,0-0.2-0.4-0.1-0.5
		c0.2-0.3,0.3-1.4,0.4-1.5c0.1-0.1,0.5-0.1,0.7-0.1C105.4,128.6,105.7,130.5,105.6,130.6z"/>
	<path d="M80.9,126.1c-0.3-0.7-0.7-1.2-1-1.5c-0.3-0.3-0.6-0.5-0.7-0.5c0,0,0,0,0,0v0c0,0,0,0,0,0c0,0,0,0,0,0c0,0,0,0,0-0.1
		c0-0.1-0.1-0.2-0.1-0.2c-0.1-0.2-0.2-0.4-0.2-0.4l0-0.1l0-0.1c0.4-0.7,0.6-1,0.7-1.2c0.1-0.1,0.1-0.2,0.1-0.2c0,0,0,0,0,0
		c0-0.1,0-0.2,0-0.2c0-0.1-0.1-0.1-0.2-0.2c-0.1-0.1-0.2-0.1-0.3-0.1c-0.1,0-0.2,0-0.2,0.1c0,0,0,0,0,0c0,0-0.1,0.1-0.1,0.2
		c-0.1,0.2-0.4,0.5-0.7,1.2l0,0.1l-0.6,0.1l0,0c0,0-0.1,0-0.2-0.1c-0.1,0-0.3-0.1-0.5-0.2c-0.5-0.1-1-0.3-1.7-0.3
		c-0.4,0-0.8,0.1-1.1,0.2c-0.2,0.1-0.6,0.3-0.9,0.5c-0.4,0.2-0.7,0.5-1.1,0.8c-0.5,0.4-0.9,0.7-1.1,0.9l0.4,0.3l-0.1,0.1
		c0,0-0.5,0.7-0.9,1.3c-0.2,0.3-0.4,0.7-0.5,1c-0.1,0.2-0.1,0.3-0.2,0.4l0.5,0.3l0,0.1c0,0-0.4,1.1-0.6,1.9
		c-0.1,0.7-0.2,1.1-0.3,1.4c0,0,0,0.1,0,0.1c0.1,0,0.2,0,0.2,0.1c0,0,0.1,0,0.1,0c0,0,0,0,0,0c0,0,0,0,0,0l-0.1,0.1l0.3,0
		c0,0,0,0,0,0c0,0.1,0,0.3,0,0.6c0,0.1,0,0.3,0,0.4c0,0.1,0,0.2,0,0.3c0.1,0.3,0.1,0.6,0.2,0.9c0,0.2,0.1,0.3,0.1,0.4
		c0,0.1,0,0.1,0,0.1l0.5,0l0,0.1c0,0,0.2,0.5,0.3,1c0.1,0.2,0.2,0.5,0.2,0.7c0,0.1,0,0.1,0.1,0.2c0.1,0,0.1,0,0.2,0
		c0.2,0,0.5-0.1,0.7-0.2c0.5-0.1,1-0.3,1-0.3l0.1,0l0,0.1c0,0,0,0.1,0.1,0.2c0,0,0,0,0,0.1c0,0,0.1,0,0.1,0c0.3,0,0.7-0.1,1.2-0.3
		c0.3-0.1,0.6-0.2,0.8-0.3c0.1,0,0.1-0.1,0.2-0.1c0,0,0.1,0,0.1,0l0.1-0.1l0.2,0.3c0.1-0.1,0.3-0.2,0.6-0.3c0.2-0.1,0.4-0.2,0.6-0.3
		c0.2-0.1,0.3-0.2,0.4-0.3c0.3-0.2,0.6-0.6,0.9-0.8c0.3-0.3,0.5-0.5,0.5-0.5l0.1-0.1l0.4,0.2c0.2-0.3,0.6-1,0.8-1.4
		c0.4-0.7,0.7-1.6,0.7-1.6l0-0.1l0.4,0c0-0.2,0.1-0.9,0.2-1.6c0-0.5,0-1,0-1.5C81.1,127,81.1,126.5,80.9,126.1z M71.7,125.6
		c0.1-0.1,0.6,0.2,0.5,0.3c-0.1,0.2-0.7,1-0.8,1.5c-0.1,0.2-0.9-0.1-0.9-0.1S71.4,125.8,71.7,125.6z M70.1,130.5
		c-0.1-0.1,0.3-2,0.5-2.1c0.2-0.1,0.6,0,0.7,0.1c0.1,0.1,0.2,1.1,0.4,1.5c0,0.1,0,0.5-0.1,0.5C71.3,130.5,70.2,130.6,70.1,130.5z
		 M70.5,133.2c-0.1,0-0.3-1.5-0.1-1.6c0.2-0.1,0.8-0.2,1-0.1c0.2,0.1,0.4,1.4,0.3,1.5C71.6,133.2,70.7,133.2,70.5,133.2z
		 M71.5,135.2c-0.1,0-0.2-0.9-0.3-0.9c-0.1,0,0.6-0.3,0.9-0.3c0.2,0,0.4,0.8,0.4,0.9C72.4,135,71.6,135.2,71.5,135.2z M72.7,133
		c-0.1,0-0.4-2-0.2-2.3c0.1-0.1,1.4-0.4,1.6-0.5c0.1,0,0.7,1.8,0.6,2C74.5,132.6,72.9,133,72.7,133z M73.5,126.1
		c0.1,0,0.3,0.1,0.4,0.1c0.1,0,0.3,2.5,0.4,2.6c0,0-0.4,0.3-0.8,0.4c-0.4,0.2-0.9,0.3-1,0.2C72.2,129.5,72,126.6,73.5,126.1z
		 M73.6,135.1c-0.1,0-0.4-1-0.3-1.2c0-0.2,1-0.4,1.1-0.4c0.1,0,0.6,1.1,0.6,1.1C75,134.7,73.8,135.1,73.6,135.1z M74.2,125.1
		c0,0.1-0.7,0-1.2-0.2c-0.5-0.2-1-0.4-0.9-0.4c0.5-0.5,2.1-1.8,3.5-1.3C75.8,123.3,74.4,124.1,74.2,125.1z M75.2,125.4
		c0.6-1.1,1.4-2.1,2.4-1.7c1.3,0.5,0.6,2,0.4,2.6c-0.6,1.4-2.8,2-2.8,2S74.8,126.3,75.2,125.4z M76,134.4c0,0-0.7-1.4-0.6-1.5
		c0-0.1,1.2-0.4,1.9-0.8c0.1-0.1,0.6,0.6,0.6,0.7C77.2,133.9,76,134.4,76,134.4z M75.6,131.7c0,0-0.7-2.2-0.2-2.3
		c0.7-0.3,1.5-0.5,2.1-0.8c0.1,0,0.6,0.5,0.6,0.5C77.8,131.3,75.6,131.7,75.6,131.7z M78.7,132.2l-0.6-0.9c0,0,0.7-1,0.9-1.5
		c0.1-0.2,0.7,0.2,0.7,0.3C79.5,131.2,78.7,132.2,78.7,132.2z M80.1,129.2c0,0-0.7-0.4-1.2-0.9c-0.4-0.3-0.5-0.7-0.5-0.7
		c0,0,1-1.2,0.9-2.3C79.3,124.9,80.8,127.1,80.1,129.2z"/>
	<path d="M117.5,130c0,0-0.1,0-0.1,0c-0.1,0-0.1,0-0.1,0.1c0,0-0.1,0.1-0.1,0.2c0,0,0,0.1,0,0.1c0,0,0,0,0,0.1c0,0,0.1,0,0.1,0
		c0.1,0,0.1,0.1,0.1,0.1c0.1,0.1,0.1,0.2,0.1,0.4c0,0.2-0.2,0.5-0.5,0.7c-0.3,0.1-0.7,0.2-1.2,0.2c-0.5,0-1.1-0.1-1.8-0.5
		c-0.2-0.1-0.4-0.3-0.6-0.5c-0.2-0.2-0.4-0.4-0.5-0.6c-0.2-0.2-0.3-0.4-0.4-0.6c-0.1-0.1-0.2-0.2-0.2-0.2l-0.1-0.2l0.2,0
		c0,0,0.1,0,0.2,0c0.1,0,0.3-0.1,0.4-0.1c0.3-0.1,0.8-0.3,1.2-0.5c0.4-0.3,0.8-0.6,1-1c0.1-0.2,0.1-0.4,0.1-0.6
		c0-0.2-0.1-0.5-0.2-0.8c-0.3-0.6-0.7-1-1-1.2c-0.4-0.2-0.8-0.3-1.2-0.3c-0.4,0-0.9,0.1-1.3,0.1c-0.5,0.1-1,0.1-1.5,0.1
		c-0.5,0-0.9-0.1-1.4-0.2c-0.2-0.1-0.3-0.2-0.5-0.3c-0.1-0.1-0.3-0.3-0.4-0.5c-0.1-0.2-0.2-0.4-0.4-0.6c-0.1-0.2-0.2-0.4-0.3-0.7
		c-0.1-0.3-0.3-0.5-0.4-0.8c-0.1-0.2-0.3-0.5-0.4-0.6c-0.3-0.4-0.9-0.8-1.4-1c-0.3-0.1-0.5-0.2-0.7-0.3c-0.2-0.1-0.4-0.1-0.6-0.1
		c-0.1,0-0.1,0-0.1,0c-0.1,0-0.2,0.1-0.2,0.2c-0.1,0.1-0.1,0.2-0.2,0.3c0,0.1,0,0.2,0,0.3c0,0.1,0.1,0.2,0.3,0.3
		c0.2,0.2,0.4,0.2,0.6,0.3c0.2,0.1,0.5,0.1,0.8,0.3c0.3,0.2,0.6,0.5,1,0.9c0.1,0.1,0.1,0.2,0.2,0.3c0.1,0.1,0.2,0.2,0.2,0.4
		c0.3,0.5,0.6,1,1.1,1.6c0.4,0.5,0.9,0.9,1.5,1c0.2,0.1,0.5,0.1,0.8,0.1c0.5,0,1-0.1,1.6-0.1c0.3,0,0.5-0.1,0.8-0.1
		c0.3,0,0.5,0,0.7,0c0.4,0,0.7,0,1.1,0.2c0.3,0.1,0.6,0.4,0.7,0.7c0.1,0.2,0.2,0.4,0.2,0.6c0,0.2-0.1,0.4-0.2,0.5
		c-0.2,0.3-0.5,0.5-0.9,0.7c-0.4,0.2-0.7,0.3-1,0.4c-0.1,0-0.3,0.1-0.3,0.1c-0.1,0-0.1,0-0.1,0l-0.1,0l0-0.1c0,0-0.3-0.5-0.8-1.1
		c-0.2-0.3-0.5-0.6-0.7-0.8c-0.1-0.1-0.3-0.2-0.4-0.3c-0.1-0.1-0.2-0.1-0.3-0.1c-0.1,0-0.2,0-0.3,0c-0.4,0-0.6,0.1-0.8,0.2
		c-0.2,0.1-0.3,0.3-0.3,0.5c0,0.2,0,0.5,0.1,0.8c0.1,0.2,0.3,0.5,0.5,0.6c1.1,0.8,2,0.9,2.4,0.9c0.1,0,0.1,0,0.2,0c0,0,0,0,0,0
		l0.1,0l0,0.1c0,0,0,0,0.1,0.1c0,0.1,0.1,0.2,0.2,0.3c0.1,0.3,0.4,0.6,0.7,1c0.6,0.7,1.6,1.5,3,1.6c0.1,0,0.3,0,0.4,0
		c0.9,0,1.4-0.3,1.7-0.6c0.3-0.3,0.5-0.7,0.5-1c0-0.2,0-0.5-0.2-0.7C118,130.1,117.8,130,117.5,130z M111.1,128.7
		c0,0-0.7-0.2-1.2-0.4c-0.1-0.1-0.3-0.1-0.4-0.2c-0.1-0.1-0.2-0.2-0.3-0.3c-0.1-0.1-0.2-0.2-0.2-0.3c0-0.1,0-0.1,0-0.2
		c0-0.1,0.1-0.1,0.1-0.2c0.1-0.1,0.1-0.1,0.2-0.2c0.1,0,0.2-0.1,0.2-0.1c0.1,0,0.2,0,0.3,0.1c0.1,0,0.2,0.1,0.3,0.2
		c0.2,0.2,0.4,0.4,0.5,0.6c0.3,0.4,0.6,0.8,0.6,0.8l0.2,0.3L111.1,128.7z"/>
	<path d="M69.7,122.5c0.1-0.1,0.1-0.2,0.2-0.3c0.4-0.5,0.7-0.8,1-0.9c0.3-0.2,0.6-0.3,0.8-0.3c0.2-0.1,0.4-0.1,0.6-0.3
		c0.1-0.1,0.2-0.2,0.3-0.3c0-0.1,0-0.2,0-0.3c0-0.1-0.1-0.2-0.2-0.3c-0.1-0.1-0.2-0.1-0.3-0.2c0,0-0.1,0-0.1,0c-0.1,0-0.3,0-0.6,0.1
		c-0.2,0.1-0.5,0.2-0.7,0.3c-0.5,0.3-1,0.6-1.4,1c-0.1,0.2-0.3,0.4-0.4,0.6c-0.1,0.2-0.3,0.5-0.4,0.8c-0.1,0.2-0.2,0.4-0.3,0.7
		c-0.1,0.2-0.2,0.4-0.4,0.6c-0.1,0.2-0.3,0.4-0.4,0.5c-0.1,0.1-0.3,0.2-0.5,0.3c-0.5,0.2-0.9,0.2-1.4,0.2c-0.5,0-1-0.1-1.5-0.1
		c-0.5-0.1-0.9-0.1-1.3-0.1c-0.5,0-0.9,0.1-1.3,0.3c-0.4,0.2-0.7,0.6-1,1.2c-0.2,0.3-0.2,0.5-0.2,0.8c0,0.2,0,0.4,0.1,0.6
		c0.2,0.4,0.5,0.7,1,1c0.4,0.2,0.9,0.4,1.2,0.5c0.2,0.1,0.3,0.1,0.4,0.1c0.1,0,0.2,0,0.2,0l0.2,0l-0.1,0.2c0,0-0.1,0.1-0.2,0.2
		c-0.1,0.2-0.2,0.3-0.4,0.6c-0.2,0.2-0.3,0.4-0.5,0.6c-0.2,0.2-0.4,0.4-0.6,0.5c-0.6,0.4-1.3,0.5-1.8,0.5c-0.5,0-0.9-0.1-1.1-0.2
		c-0.3-0.1-0.5-0.4-0.5-0.7c0-0.1,0-0.3,0.1-0.4c0-0.1,0.1-0.1,0.1-0.1c0,0,0.1,0,0.1,0c0,0,0,0,0-0.1c0,0,0-0.1,0-0.1
		c0-0.1,0-0.1-0.1-0.2c0,0-0.1-0.1-0.1-0.1c0,0-0.1,0-0.1,0c-0.2,0-0.4,0.1-0.6,0.3c-0.2,0.2-0.2,0.4-0.2,0.7c0,0.3,0.2,0.7,0.5,1
		c0.3,0.3,0.9,0.6,1.7,0.6c0.1,0,0.3,0,0.4,0c1.4-0.1,2.4-0.9,3-1.6c0.3-0.4,0.5-0.7,0.7-1c0.1-0.1,0.1-0.2,0.2-0.3
		c0-0.1,0-0.1,0-0.1l0-0.1l0.1,0c0,0,0,0,0,0c0,0,0.1,0,0.2,0c0.4,0,1.4-0.1,2.4-0.9c0.2-0.1,0.4-0.4,0.5-0.6
		c0.1-0.2,0.1-0.5,0.1-0.8c0-0.2-0.1-0.4-0.3-0.5c-0.2-0.1-0.4-0.2-0.8-0.2c-0.1,0-0.2,0-0.3,0c-0.1,0-0.2,0.1-0.3,0.1
		c-0.1,0.1-0.2,0.2-0.4,0.3c-0.3,0.2-0.5,0.5-0.7,0.8c-0.4,0.6-0.8,1.1-0.8,1.1l0,0.1l-0.1,0c0,0-0.2,0-0.5-0.1
		c-0.3-0.1-0.7-0.2-1-0.4c-0.3-0.2-0.7-0.4-0.9-0.7c-0.1-0.2-0.2-0.3-0.2-0.5c0-0.2,0-0.4,0.1-0.6c0.2-0.4,0.4-0.6,0.8-0.7
		c0.3-0.1,0.7-0.2,1.1-0.2c0.2,0,0.5,0,0.7,0c0.3,0,0.5,0.1,0.8,0.1c0.5,0.1,1.1,0.1,1.6,0.1c0.3,0,0.5,0,0.8-0.1
		c0.6-0.1,1.1-0.5,1.5-1c0.4-0.5,0.8-1.1,1.1-1.6C69.6,122.8,69.7,122.6,69.7,122.5z M64.5,128.4c0,0,0.1-0.1,0.2-0.3
		c0.1-0.2,0.2-0.3,0.4-0.6c0.2-0.2,0.4-0.4,0.5-0.6c0.1-0.1,0.2-0.1,0.3-0.2c0.1,0,0.2-0.1,0.3-0.1c0.1,0,0.2,0,0.2,0.1
		c0.1,0,0.2,0.1,0.2,0.2c0,0.1,0.1,0.1,0.1,0.2c0,0.1,0,0.1,0,0.2c0,0.1-0.1,0.2-0.2,0.3c-0.1,0.1-0.2,0.2-0.3,0.3
		c-0.1,0.1-0.3,0.2-0.4,0.2c-0.6,0.3-1.2,0.4-1.2,0.4l-0.3,0.1L64.5,128.4z"/>
	<path d="M94.9,122c0-0.3,0-0.6,0-1c0-0.3-0.2-0.5-0.3-0.7c-0.2-0.2-0.4-0.3-0.5-0.4c-0.1,0-0.1-0.1-0.1-0.1c0,0-0.1-0.1-0.1-0.1
		c0,0-0.1-0.1-0.1-0.1c-0.1,0-0.1-0.1-0.2-0.1c-0.1-0.1-0.3-0.2-0.5-0.3c-0.2-0.1-0.3-0.2-0.5-0.3c-0.1-0.1-0.2-0.3-0.3-0.4
		c0-0.1,0-0.2,0-0.3c0-0.1,0-0.2,0.1-0.3c0.1-0.2,0.3-0.2,0.5-0.2c0.2,0,0.4,0.1,0.7,0.2c0.2,0.1,0.5,0.2,0.6,0.4
		c0.1,0.1,0.2,0.2,0.3,0.4c0.1,0.2,0.2,0.3,0.4,0.5c0.2,0.3,0.5,0.7,0.7,1c0.1,0.1,0.3,0.3,0.4,0.4c0.1,0.1,0.2,0.2,0.4,0.2
		c0,0,0.1,0,0.1,0c0.1,0,0.3,0,0.4-0.1c0.2,0,0.3-0.1,0.4-0.1c0,0,0.1,0,0.1,0c0,0,0,0,0,0c0,0,0,0,0.1,0c0,0,0,0,0,0c0,0,0,0,0.1,0
		c0,0,0.1,0.1,0.1,0.1c0,0,0,0,0.1,0.1c0,0,0,0,0,0c0.1,0.1,0.3,0.1,0.5,0.1c0.2,0,0.4,0.1,0.7,0.1c0,0,0.1,0,0.1,0
		c0.2,0,0.3-0.1,0.5-0.1c0.2-0.1,0.3-0.2,0.5-0.3c0.1-0.1,0.2-0.2,0.3-0.2c0.1-0.1,0.2-0.1,0.4-0.2c0.3-0.1,0.7-0.2,0.9-0.3
		c0.2,0,0.3-0.1,0.4-0.1c0,0,0,0,0,0c0,0,0,0,0,0c0,0,0,0,0,0c0,0,0.1-0.1,0.1-0.1c0-0.1,0-0.1,0.1-0.2c0-0.2,0-0.4,0.1-0.6
		c0-0.4,0-0.9,0-1.2c0,0,0,0,0-0.1c0-0.2-0.1-0.7-0.3-1.3c-0.2-0.6-0.5-1.2-0.9-1.7c-0.3-0.3-0.7-0.5-1-0.7
		c-0.4-0.1-0.7-0.2-0.9-0.2c-0.1,0-0.3,0-0.4-0.1c-0.2,0-0.5-0.1-0.8-0.1c-0.3-0.1-0.5-0.1-0.7-0.3c-0.2-0.1-0.3-0.3-0.3-0.5
		c0-0.2,0-0.4,0-0.5c0-0.1,0.1-0.2,0.2-0.3c0.1-0.1,0.2-0.1,0.3-0.1c0.2,0,0.3,0.1,0.5,0.2c0.1,0.1,0.2,0.1,0.3,0.2
		c0.1,0.1,0.2,0.2,0.3,0.3c0.2,0.2,0.4,0.3,0.5,0.4c0.1,0.1,0.2,0.1,0.2,0.1c0.1,0,0.1,0,0.2,0c0.2,0,0.3-0.1,0.5-0.2
		c0,0,0.1-0.1,0.1-0.1c0,0,0.1-0.1,0.2-0.1c0.1,0,0.2,0,0.2,0c0.1,0,0.2,0,0.3,0c0.2,0,0.4,0,0.6-0.1c0.1,0,0.2-0.1,0.3-0.2
		c0.1-0.1,0.3-0.2,0.4-0.3c0.1-0.1,0.2-0.2,0.3-0.3c0-0.1,0.1-0.1,0.1-0.1c0,0,0-0.1,0-0.1c0,0,0,0,0-0.1c0,0,0-0.1-0.1-0.1
		c-0.1-0.1-0.1-0.2-0.2-0.3c-0.1-0.2-0.2-0.3-0.3-0.5c-0.1-0.2-0.2-0.4-0.2-0.6c0-0.1,0-0.2,0-0.3c0-0.1,0-0.2,0-0.4
		c0-0.4,0.1-0.9,0-1.4c-0.1-0.5-0.2-1-0.5-1.4c-0.1-0.1-0.2-0.2-0.4-0.4c-0.2-0.1-0.4-0.3-0.6-0.4c-0.2-0.1-0.4-0.2-0.6-0.3
		c-0.2-0.1-0.4-0.1-0.5-0.1c0,0,0,0-0.1-0.1c0,0,0,0,0,0c0,0,0,0,0,0c0-0.1-0.1-0.2-0.2-0.4c-0.1-0.2-0.2-0.3-0.5-0.4
		c-0.3-0.1-0.7-0.2-1-0.2c-0.5,0-0.9,0.1-1.4,0.2c-0.4,0.1-0.9,0.2-1.2,0.3c-0.2,0.1-0.3,0.1-0.5,0.1c-0.1,0-0.1,0-0.2,0
		c-0.1,0-0.1,0-0.1,0c-0.1,0-0.2,0-0.3-0.1c-0.1,0-0.1-0.1-0.2-0.2c0-0.1,0-0.1,0-0.2c0-0.1,0-0.1,0-0.2c0,0,0-0.1,0-0.1
		c0-0.1-0.1-0.2-0.2-0.2c-0.1-0.1-0.3-0.1-0.4-0.1c-0.1,0-0.3,0-0.5,0.1c-0.3,0.1-0.5,0.2-0.8,0.4c-0.3,0.2-0.5,0.4-0.8,0.6
		c-0.2,0.1-0.3,0.3-0.5,0.4c-0.2,0.1-0.3,0.2-0.5,0.3c-0.3,0.2-0.6,0.3-1,0.3c-0.1,0-0.2,0-0.3,0c-0.2,0-0.3-0.1-0.4-0.2
		c-0.1-0.1-0.2-0.3-0.2-0.5c-0.1-0.4-0.1-0.8,0-1.4c0-0.3,0.2-0.7,0.4-1c0.2-0.3,0.5-0.6,0.7-0.8c0.2-0.2,0.3-0.3,0.3-0.4
		c0,0,0-0.1,0-0.1h0c0,0,0,0,0,0c0,0-0.1,0-0.2-0.1c-0.2,0-0.5-0.1-0.9-0.1c-0.2,0-0.3,0-0.4,0c-0.1,0-0.2,0.1-0.4,0.2
		c-0.1,0.1-0.2,0.2-0.3,0.4c-0.2,0.3-0.3,0.6-0.3,0.7c0,0,0,0,0,0l0,0c-0.1,0.1-0.1,0.3-0.2,0.5c0,0.2-0.1,0.5-0.1,0.7
		c0,0.2,0,0.3,0,0.5c0,0.1,0,0.3-0.1,0.4c0,0.1-0.1,0.2-0.1,0.3c-0.1,0.1-0.1,0.2-0.2,0.2c-0.1,0-0.2,0-0.3,0
		c-0.2,0-0.4-0.1-0.7-0.2c-0.3-0.1-0.5-0.2-0.9-0.3c-0.6-0.3-1.3-0.5-2-0.7c-0.6-0.2-1.2-0.3-1.7-0.3c-0.6,0-1.2,0.1-1.5,0.4
		c0,0-0.1,0.1-0.1,0.1c0,0,0,0.1,0,0.1c0,0.1,0,0.1,0,0.2c0,0,0,0,0,0.1c0,0,0,0,0,0.1c0,0,0,0,0,0.1c0,0,0,0.1,0,0.1c0,0,0,0-0.1,0
		c0,0,0,0-0.1,0c-0.1,0-0.1,0-0.2,0.1c-0.2,0-0.3,0.1-0.6,0.1c-0.5,0.1-1.2,0.2-1.7,0.5c-0.3,0.1-0.5,0.2-0.8,0.4
		c-0.2,0.2-0.4,0.3-0.5,0.5c0,0,0,0.1,0,0.1c0,0,0,0.1,0.1,0.2c0,0.1,0.1,0.2,0.1,0.3c0,0.1,0,0.3,0,0.5c0,0.1,0,0.2-0.1,0.2
		c0,0.1-0.1,0.2-0.2,0.2c-0.1,0.1-0.3,0.3-0.5,0.4c-0.2,0.2-0.3,0.3-0.5,0.4c-0.1,0.1-0.1,0.1-0.1,0.2c0,0.1,0,0.1-0.1,0.1
		c0,0.1,0,0.1,0,0.2c0,0.1,0.1,0.2,0.1,0.2c0.1,0.2,0.2,0.5,0.2,1c0,0.3-0.1,0.6-0.2,0.7c0,0.1-0.1,0.2-0.1,0.3c0,0.1,0,0.2,0,0.3
		c0,0,0,0.1,0.1,0.2c0.1,0.1,0.2,0.1,0.3,0.2c0.2,0.2,0.5,0.3,0.8,0.5c0.3,0.1,0.6,0.3,0.9,0.4c0.3,0.1,0.5,0.2,0.6,0.2
		c0.1,0,0.3,0,0.5,0c0.4,0,0.9-0.1,1.3-0.5c0,0,0.1-0.1,0.1-0.1c0.2-0.2,0.5-0.5,0.7-0.7c0.1-0.1,0.3-0.2,0.4-0.3
		c0.2-0.1,0.3-0.1,0.5-0.1c0.1,0,0.3,0,0.4,0.1c0.1,0.1,0.2,0.2,0.2,0.3c0,0.1,0,0.2,0,0.4c0,0.1-0.1,0.2-0.2,0.3
		c-0.1,0.1-0.1,0.2-0.2,0.3c0,0.1-0.1,0.1-0.1,0.1c0,0.1-0.1,0.1-0.2,0.2c-0.1,0.1-0.2,0.1-0.3,0.2c-0.2,0.1-0.4,0.2-0.7,0.3
		c-0.5,0.2-1.2,0.4-1.7,0.5c-0.2,0.1-0.4,0.1-0.6,0.2c-0.2,0.1-0.3,0.1-0.4,0.1c-0.2,0.1-0.4,0.2-0.7,0.5c-0.3,0.2-0.5,0.5-0.8,0.7
		c-0.3,0.3-0.5,0.6-0.6,0.9c-0.2,0.3-0.2,0.5-0.2,0.8c0,0.2,0.1,0.3,0.1,0.4c0,0.1,0.1,0.1,0.2,0.2c0.1,0.1,0.2,0.1,0.3,0.3
		c0.1,0.1,0.1,0.3,0.2,0.5c0,0.1,0,0.3,0,0.4c0,0.1,0,0.3,0,0.4c0,0.2,0,0.4,0,0.5s0,0.2,0.1,0.3c0.1,0.1,0.3,0.1,0.5,0.1
		c0.1,0,0.2,0,0.3,0c0.1,0,0.1,0,0.2,0c0,0,0.1,0,0.1,0c0,0,0,0,0.1,0c0,0,0,0,0,0h0c0.2,0,0.5,0.1,0.8,0.2c0.2,0,0.3,0.1,0.5,0.1
		c0.2,0,0.3,0,0.4,0c0,0,0,0,0.1,0c0.7-0.1,1.1-0.6,1.3-0.9c0.1-0.1,0.1-0.1,0.1-0.2c0,0,0,0,0.1-0.1c0,0,0.1,0,0.1,0
		c0,0,0.1,0,0.1,0c0.1,0,0.1,0,0.2,0c0.1,0,0.1,0,0.2,0.1c0.2,0.1,0.3,0.1,0.5,0.1c0.1,0,0.2,0,0.3,0c0,0,0,0,0.1,0
		c0,0,0.1-0.1,0.1-0.1c0.1-0.1,0.2-0.2,0.3-0.4c0.2-0.2,0.4-0.5,0.6-0.7c0.2-0.2,0.5-0.4,0.7-0.5c0.1,0,0.2,0,0.3,0
		c0.2,0,0.4,0,0.5,0.1c0.1,0,0.1,0.1,0.2,0.1c0,0.1,0.1,0.1,0.1,0.2c0,0.2,0,0.3-0.1,0.6c0,0,0,0,0,0c0,0,0,0,0,0c0,0-0.1,0-0.1,0.1
		c-0.1,0.1-0.2,0.1-0.4,0.2c-0.3,0.2-0.7,0.3-1.1,0.4c-0.3,0.1-0.4,0.2-0.5,0.4c0,0,0,0,0,0.1c0,0,0,0-0.1,0c0,0,0,0-0.1,0.1
		c0,0,0,0.1-0.1,0.1c-0.1,0.1-0.1,0.3-0.2,0.4c-0.1,0.4-0.2,0.8-0.2,1.3c0,0.5,0,1,0.2,1.4c0.1,0.5,0.4,0.9,0.7,1.2
		c0.1,0.1,0.3,0.2,0.4,0.2c0.1,0,0.2,0,0.2,0c0,0,0,0,0,0c0,0,0,0,0,0c0,0,0,0,0,0c0,0,0,0,0.1,0.1c0.4,0.9,0.8,1.5,1.1,1.8
		c0.1,0.2,0.3,0.3,0.4,0.4c0.1,0.1,0.2,0.1,0.2,0.1c0,0,0,0,0,0l0,0c0.1,0.1,0.2,0.2,0.3,0.2c0.1,0,0.1,0,0.2,0c0,0,0.1,0,0.1,0
		c0,0,0.1,0,0.1,0c0,0,0.1,0,0.1,0c0,0,0,0,0.1,0c0,0,0,0,0,0c0,0,0,0.1,0.1,0.1c0,0.1,0.1,0.2,0.1,0.2c0.1,0.1,0.1,0.2,0.2,0.3
		c0.1,0.1,0.1,0.2,0.2,0.2c0.3,0.2,0.9,0.8,1.5,1.3c0.3,0.2,0.7,0.5,0.9,0.6c0.1,0.1,0.3,0.2,0.4,0.2c0.1,0,0.2,0.1,0.3,0.1
		c0,0,0,0,0,0c0.1,0,0.2,0,0.3-0.1c0.1-0.1,0.2-0.1,0.4-0.3c0.3-0.2,0.6-0.5,0.9-0.9c0.3-0.4,0.6-0.7,0.8-1.1
		c0.2-0.4,0.4-0.8,0.5-1.1c0,0,0-0.1,0.1-0.1c0,0,0,0,0.1,0c0,0,0,0,0,0c0,0,0,0,0,0c0.1,0,0.2,0,0.3-0.1c0.2-0.1,0.3-0.2,0.6-0.3
		c0,0,0.1-0.1,0.2-0.2c0.1-0.1,0.2-0.2,0.3-0.4c0.2-0.3,0.5-0.7,0.8-1.2c0.5-0.8,0.8-1.7,0.9-2.2C94.8,122.7,94.9,122.3,94.9,122z
		 M91.8,114.8c-0.8-0.2-1.6-0.6-2.2-0.9c-0.3-0.2-0.5-0.3-0.7-0.4c-0.2-0.1-0.2-0.2-0.2-0.2l-0.2-0.1l0,0.2c0,0-0.1,0.4-0.1,1
		c0,0.3-0.1,0.6-0.2,0.8c-0.1,0.3-0.1,0.5-0.2,0.7c-0.1,0.4-0.3,1-0.4,1.6c-0.1,0.6-0.2,1.2-0.2,1.6c0,0.4,0.1,1,0.2,1.5
		c0.1,0.5,0.3,1.1,0.4,1.6c0.1,0.3,0.2,0.6,0.2,0.9c0,0.1,0,0.2,0.1,0.3c0,0.1,0,0.1,0,0.2c0,0,0,0.1,0,0.1c0,0,0,0.1,0,0.1v0
		c0,0.2,0.1,0.5,0,0.8c0,0.1,0,0.2-0.1,0.3c0,0,0,0,0,0.1c0,0,0,0,0,0c0,0,0,0,0,0c0,0-0.1,0-0.1,0c0,0,0,0,0,0c0,0,0-0.1,0-0.1
		c0-0.1,0-0.1,0-0.2c0-0.3,0-0.6-0.2-1.1c0-0.1-0.1-0.2-0.1-0.3c0,0,0,0,0,0c-0.2-0.4-0.5-1.1-0.7-1.9c-0.3-0.8-0.5-1.6-0.5-2.2
		c0-0.2,0-0.5,0.1-0.9c0-0.4,0.1-0.8,0.2-1.2c0.1-0.4,0.1-0.8,0.2-1.1c0.1-0.3,0.1-0.5,0.1-0.6c0.5-1.7,0.2-3,0.2-3l0-0.2l-0.2,0.2
		c0,0-0.1,0.1-0.2,0.2c-0.1,0.1-0.3,0.3-0.5,0.4c-0.4,0.3-1,0.8-1.7,1.1c0,0-0.2,0.1-0.3,0.1c-0.1,0.1-0.3,0.1-0.5,0.2h0
		c-0.3,0.1-0.7,0.3-1,0.4c-0.2,0.1-0.3,0.1-0.4,0.2c-0.1,0.1-0.2,0.1-0.3,0.1c0,0-0.1,0.1-0.1,0.1c-0.1,0-0.1,0.1-0.2,0.1
		c-0.2,0.1-0.4,0.3-0.6,0.4c-0.1,0.1-0.2,0.1-0.3,0.1c-0.1,0-0.1,0-0.2,0c0,0,0,0-0.1,0c0,0,0,0,0,0c0,0,0-0.1,0-0.1
		c0,0,0-0.1,0.1-0.1c0.1-0.1,0.2-0.2,0.3-0.3c0.3-0.2,0.7-0.4,0.9-0.6c0,0,0.1,0,0.1,0c0.1,0,0.2-0.1,0.3-0.2
		c0.3-0.2,0.7-0.4,1.1-0.6c0.4-0.2,0.7-0.5,0.9-0.6c0.1-0.1,0.2-0.1,0.2-0.1c0.7-0.5,1.3-1,1.7-1.5c0.2-0.2,0.3-0.5,0.5-0.6
		c0.1-0.1,0.1-0.2,0.1-0.2c0,0,0-0.1,0-0.1c0,0,0-0.1,0-0.1c0-0.1,0-0.2,0-0.3c0-0.1-0.1-0.2-0.1-0.3c0-0.1-0.1-0.2-0.1-0.3
		c0,0,0-0.1,0-0.1c0,0,0,0,0,0c-0.1,0-0.1-0.1-0.1-0.1c0,0-0.1,0-0.1,0c-0.1,0-0.3,0.1-0.5,0.1c-0.3,0.1-0.6,0.1-0.9,0.1
		c-0.1,0-0.2,0-0.3,0c0,0,0,0,0,0c-0.1,0-0.4-0.1-0.7-0.1c-0.3-0.1-0.7-0.2-1.1-0.3c-0.8-0.3-1.5-0.5-2.1-0.6
		c-0.4-0.1-0.8-0.1-1.1-0.1c-0.7,0-1.2,0.2-1.5,0.3c-0.1,0-0.1,0-0.2,0.1c-0.1,0-0.1,0-0.1,0c0,0,0,0,0,0v0c0,0,0-0.1,0-0.1
		c0,0,0,0,0-0.1c0,0,0.1-0.1,0.1-0.2c0.1-0.1,0.2-0.1,0.3-0.2c0.1-0.1,0.3-0.1,0.4-0.2c0.3-0.1,0.6-0.2,0.9-0.2
		c0.3-0.1,0.6-0.1,0.7-0.1c0,0,0,0,0,0c0.3,0,0.6,0,1,0.1c0.4,0.1,0.9,0.2,1.3,0.3v0c0.2,0,0.5,0.1,0.7,0.1c0.2,0,0.4,0.1,0.5,0.1
		c0.3,0,0.7,0.1,1.1,0.1c0.2,0,0.4,0,0.6-0.1c0.2-0.1,0.4-0.1,0.5-0.3c0-0.1,0-0.1,0-0.1s0,0,0,0c0-0.1,0-0.3,0-0.5
		c0-0.1,0-0.2,0.1-0.3c0-0.1,0.1-0.1,0.2-0.1c0.1,0,0.1,0,0.2,0c0.1,0,0.2,0,0.3,0.1c0.1,0,0.1,0.1,0.2,0.2c0.1,0.1,0.2,0.3,0.2,0.5
		c0,0.1,0,0.1,0.1,0.2c0,0.1,0,0.1,0.1,0.2c0,0,0.1,0.1,0.1,0.1c0,0,0.1,0.1,0.2,0.1c0.1,0.1,0.2,0.1,0.4,0.1c0.3,0.1,0.7,0.1,1,0.1
		c0.1,0,0.3,0,0.4,0c0.2,0,0.4-0.1,0.6-0.2c0.2-0.1,0.4-0.2,0.6-0.3c0.3-0.1,0.5-0.2,0.8-0.3c0.3-0.1,0.5-0.1,0.8-0.2
		c0.2,0,0.4,0,0.7,0c0.5,0,1.2,0,1.8,0.1c0.3,0,0.5,0.1,0.7,0.2c0.1,0,0.1,0.1,0.2,0.1c0,0,0,0,0,0c0,0,0,0,0,0.1c0,0,0,0,0,0
		c0,0-0.1,0-0.1,0c-0.1,0-0.2,0-0.4,0c-0.1,0-0.2,0-0.3,0c-0.1,0-0.1,0-0.2,0c-0.1,0-0.2,0-0.3,0c-0.1,0-0.2,0-0.3,0c0,0,0,0,0,0
		c0,0,0,0-0.1,0c0,0-0.1,0-0.1,0c-0.5,0-1,0.1-1.5,0.3c-0.5,0.2-1.1,0.4-1.6,0.7c-0.8,0.4-1.5,0.5-2,0.5c-0.2,0-0.4,0-0.5,0
		c-0.1,0-0.1,0-0.1,0c0,0,0,0,0,0l-0.2,0l0,0.2c0,0,0,0.3,0.1,0.6c0,0.2,0.1,0.3,0.1,0.5c0,0.2,0.1,0.3,0.1,0.4
		c0.1,0.2,0.2,0.4,0.4,0.6c0.2,0.2,0.4,0.4,0.6,0.6c0.5,0.4,1,0.8,1.3,1c0.1,0.1,0.2,0.1,0.4,0.2c0.1,0.1,0.3,0.1,0.5,0.2
		c0.4,0.2,0.8,0.3,1.2,0.5c0.8,0.3,1.6,0.6,1.8,0.6c0.2,0.1,0.5,0.2,0.8,0.3c0.2,0.1,0.3,0.1,0.4,0.2c0,0,0.1,0.1,0.1,0.1
		c0,0,0,0,0,0c0,0.1,0,0.1,0,0.1c0,0,0,0,0,0c0,0-0.1,0-0.2,0c-0.1,0-0.2-0.1-0.3-0.1c-0.3-0.1-0.7-0.3-1.2-0.4c0,0,0,0,0,0
		c0,0,0,0,0,0c0,0,0,0,0,0C93.7,115.1,92.6,115,91.8,114.8z"/>
	<path d="M144,108.3l0.1-0.3c-1.1-0.3-1.6-0.4-1.8-0.4c-0.1,0-0.1,0-0.1,0c0,0,0,0,0,0l0,0h0c0,0-0.1,0-0.1-0.1v0c0,0,0,0,0,0
		c0,0,0,0,0-0.1c0,0,0-0.1,0-0.1l0,0c-0.1,0-0.2,0-0.4,0c0,0,0,0,0,0c-0.2,0-0.5,0.1-0.7,0.1c-0.2,0-0.4,0.1-0.5,0.1
		c-0.3,0.1-0.6,0.1-0.8,0.2c-0.1,0-0.2,0.1-0.2,0.1c0,0-0.1,0-0.1,0l-0.1,0.1l-0.2-0.4c-0.1,0.1-0.3,0.2-0.5,0.2
		c-0.3,0.2-0.7,0.4-0.8,0.5c-0.3,0.2-1.1,0.8-1.1,0.8l-0.1,0.1l-0.1-0.1c-0.1-0.1-0.1-0.1-0.2-0.2c0,0,0,0,0,0
		c-0.4,0.5-0.9,1-1.2,1.5c-0.2,0.3-0.3,0.5-0.4,0.6c0,0.1-0.1,0.2-0.1,0.2c0,0,0,0,0,0.1c0,0,0,0,0,0c-0.3,0.6-0.4,1.3-0.4,2
		c0,0.7,0.1,1.3,0.1,1.7c0,0.1,0,0.1,0,0.2c0,0.1,0,0.2-0.1,0.3c-0.1,0.1-0.1,0.2-0.2,0.2c-0.2,0.1-0.4,0.3-0.7,0.4
		c-0.3,0.1-0.8,0.2-1.2,0.2c-0.3,0-0.5,0-0.8-0.1c-0.3-0.1-0.7-0.3-1.1-0.5c-0.3-0.2-0.7-0.5-1-0.7c-0.4-0.3-0.7-0.5-1.1-0.7
		c-0.3-0.2-0.6-0.3-0.9-0.4c-0.4-0.1-0.8-0.1-1.1-0.1c-0.1,0-0.3,0-0.4,0c-0.3,0-0.6,0.1-0.9,0.2c-0.1,0-0.2,0.1-0.3,0.1
		c-0.1,0-0.2,0-0.2,0c0,0-0.1,0-0.2,0c-0.1,0-0.2-0.1-0.3-0.1c-0.1,0-0.3-0.1-0.5-0.1c-0.4-0.1-0.9-0.1-1.5-0.1c0,0,0,0,0,0
		c0,0,0,0,0,0c0,0,0,0,0,0c0,0-0.1,0-0.1-0.1c-0.1,0-0.1-0.1-0.2-0.2c-0.1-0.1-0.1-0.2-0.1-0.3c0-0.1,0-0.3,0.1-0.4
		c0.1-0.2,0.3-0.3,0.4-0.4c0.1-0.1,0.3-0.1,0.4-0.1c0.1,0,0.2,0,0.2,0c0.1,0,0.2,0,0.2,0c0,0,0.1,0,0.1,0c0,0,0,0,0,0
		c0,0,0.1,0,0.1,0c0,0,0.1,0,0.1,0c0.1,0,0.3,0.1,0.4,0.1c0.3,0.1,0.7,0.2,1.1,0.4c0.4,0.1,0.8,0.2,1.2,0.2c0.1,0,0.2,0,0.3,0
		c0.2,0,0.5-0.1,0.6-0.2c0.2-0.1,0.2-0.3,0.3-0.4c0,0,0,0,0,0c0,0,0-0.1,0-0.2c0-0.1,0-0.2,0-0.3c0-0.1,0.1-0.2,0.2-0.2
		c0.1,0,0.2-0.1,0.3-0.1c0.1,0,0.2-0.1,0.3-0.1c0.1,0,0.2-0.1,0.4-0.1c0.2,0,0.4-0.1,0.6-0.1c0.1,0,0.2-0.1,0.2-0.1
		c0.1,0,0.1-0.1,0.2-0.1c0.1,0,0.1-0.1,0.2-0.2c0-0.1,0.1-0.3,0.1-0.4c0.1-0.2,0.1-0.4,0.2-0.7c0.1-0.2,0.2-0.4,0.4-0.6
		c0.9-0.8,1.8-0.9,2.4-1c0.1,0,0.3-0.1,0.4-0.1c0.1,0,0.2-0.1,0.3-0.1c0.1,0,0.1-0.1,0.2-0.1c0-0.1,0.1-0.1,0.1-0.2c0,0,0-0.1,0-0.1
		c0,0,0-0.1-0.1-0.1c-0.1-0.1-0.2-0.2-0.4-0.3c-0.3-0.2-0.8-0.3-1.4-0.5c-0.5-0.1-1.1-0.3-1.6-0.3c-0.5-0.1-0.9-0.1-1.1-0.1
		c-0.1,0-0.1,0-0.2,0c-0.6,0-1.8,0.1-2.4,0.2c-0.1,0-0.2,0-0.3,0c0,0-0.1,0-0.1,0c0,0,0,0-0.1,0c-0.1,0-0.1,0-0.2-0.1
		c0,0-0.1-0.1-0.1-0.1c0,0-0.1-0.1-0.1-0.1c0,0,0-0.1-0.1-0.1c0-0.1-0.1-0.1-0.1-0.1l0,0c-0.1,0-0.1,0-0.2,0c-0.2,0-0.4,0-0.7,0.1
		c-0.3,0.1-0.5,0.2-0.8,0.3c-0.6,0.2-1.2,0.6-1.8,0.9c-0.5,0.2-0.9,0.5-1.3,0.6c-0.2,0.1-0.4,0.2-0.5,0.2c-0.2,0-0.3,0.1-0.4,0.1
		c-0.1,0-0.2,0-0.3-0.1c0,0-0.1-0.1-0.1-0.1c0,0,0-0.1,0-0.1c0-0.1,0.1-0.1,0.1-0.2c0,0,0.1-0.1,0.2-0.1c0.1,0,0.1-0.1,0.2-0.1
		c0.2-0.1,0.3-0.2,0.5-0.3c0.2-0.1,0.3-0.2,0.4-0.4c0.1-0.1,0.1-0.2,0.1-0.2c0,0,0-0.1-0.1-0.2c0-0.1-0.1-0.1-0.1-0.2
		c0-0.1,0-0.2,0-0.3c0-0.3,0.2-0.6,0.4-0.8c0.1-0.1,0.1-0.2,0.2-0.3c0-0.1,0.1-0.2,0.1-0.3c0,0,0-0.1,0-0.1c0,0-0.1-0.1-0.2-0.1
		c-0.2-0.1-0.4-0.1-0.7-0.1c-0.7,0-1.7,0.2-2.8,0.6c0,0-0.1,0-0.1,0c-0.1,0-0.1,0-0.2,0c0,0-0.1,0-0.1-0.1c-0.1-0.1-0.3-0.1-0.5-0.1
		c-0.1,0-0.1,0-0.2,0c-1.1,0.2-1.8,0.8-2.2,1.5c-0.5,0.6-0.7,1.3-0.8,1.8c0,0.1,0,0.1-0.1,0.2c0,0.1,0,0.1-0.1,0.2
		c0,0,0,0.1-0.1,0.1c0,0,0,0-0.1,0.1c0,0-0.1,0-0.1,0c-0.1,0-0.2,0-0.3-0.1c-0.1-0.1-0.2-0.1-0.2-0.2c-0.1-0.1-0.1-0.2-0.1-0.3
		c0-0.1-0.1-0.2-0.1-0.4c-0.1-0.4-0.3-0.9-0.6-1.3c-0.3-0.4-0.7-0.9-1.4-1.2c0,0-0.1,0-0.2,0c-0.1,0-0.2,0-0.3,0
		c-0.1,0-0.2,0.1-0.3,0.1c-0.2,0.1-0.4,0.2-0.5,0.2c0,0,0,0-0.1,0c0,0,0,0,0,0c0,0,0,0-0.1,0l0,0c-1.4-0.4-2.3-0.5-3-0.5
		c-0.6,0-1,0.1-1.3,0.3c-0.1,0.1-0.1,0.1-0.2,0.2c0,0.1-0.1,0.2-0.1,0.4c0,0.1,0,0.2-0.1,0.3c0,0.1-0.1,0.2-0.2,0.3
		c-0.1,0.2-0.2,0.3-0.4,0.4c-0.1,0.1-0.3,0.2-0.4,0.3c-0.2,0.1-0.3,0.2-0.5,0.4c-0.1,0.1-0.2,0.3-0.2,0.5c0,0.2,0.1,0.4,0.2,0.6
		c0.1,0.2,0.2,0.3,0.4,0.5c0,0,0.1,0.1,0.1,0.1c0,0,0.1,0.1,0.1,0.1c0.1,0.1,0.1,0.2,0.1,0.3c0,0.2,0.1,0.4,0.1,0.5
		c0,0.1,0,0.2,0,0.2c0,0,0,0,0,0.1c0.5,0.1,0.8,0.2,1.1,0.4c0.3,0.1,0.6,0.3,0.8,0.5c0.2,0.2,0.3,0.4,0.4,0.6
		c0.1,0.2,0.1,0.5,0.1,0.7c0,0.3-0.1,0.6-0.2,0.8c-0.1,0.2-0.3,0.4-0.5,0.5c-0.4,0.2-0.9,0.3-1.3,0.3c-0.5,0-1-0.1-1.4-0.2
		c-0.4-0.1-0.7-0.2-0.9-0.3c0,0,0,0,0,0c0,0,0,0-0.1,0.1c0,0.1-0.1,0.2-0.1,0.4c0,0.2-0.1,0.3,0,0.5c0,0.1,0,0.2,0,0.2
		c0,0.1,0,0.1,0.1,0.1c0,0,0,0,0,0c0,0,0.1,0,0.2,0c0.5,0,1.3,0,2.1,0.8c0.3,0.3,0.5,0.7,0.6,1c0.2,0.4,0.3,0.8,0.4,1.3
		c0.2,0.5,0.3,1,0.5,1.5c0.2,0.5,0.5,0.9,0.9,1.3c0.5,0.5,0.8,0.7,1,0.8c0.1,0.1,0.2,0.1,0.3,0.1c0.1,0,0.2,0.1,0.3,0.1
		c0.1,0,0.1,0,0.2,0c0.1,0,0.2,0,0.2,0c0.1,0,0.1-0.1,0.2-0.1c0,0,0.1,0,0.1-0.1c0,0,0.1,0,0.1,0c0,0,0.1,0,0.1,0c0,0,0.1,0,0.1,0.1
		c0.1,0,0.1,0.1,0.2,0.2c0.1,0.1,0.2,0.3,0.4,0.5c0.2,0.3,0.4,0.6,0.6,0.9c0.1,0.1,0.2,0.3,0.3,0.3c0.1,0.1,0.2,0.2,0.3,0.2
		c0,0,0.1,0,0.1,0c0,0,0.1,0,0.1,0c0,0,0.1-0.1,0.1-0.1c0.1,0,0.1-0.1,0.2-0.1c0.1,0,0.2-0.1,0.3-0.1c0.1,0,0.1,0,0.2,0
		c0.1,0,0.1,0,0.2,0.1c0.1,0,0.1,0.1,0.2,0.1c0.2,0.1,0.3,0.2,0.5,0.3c0.2,0.2,0.5,0.3,0.7,0.4c0.1,0.1,0.2,0.1,0.3,0.2
		c0.1,0,0.2,0.1,0.2,0.1c0.1,0,0.2,0,0.4,0c0.3,0,0.5,0,0.8-0.1c0.3-0.1,0.6-0.1,0.8-0.2c0.2,0,0.3-0.1,0.5-0.1c0.1,0,0.2,0,0.3,0
		c0.2,0,0.3,0,0.5,0c0.1,0,0.3,0,0.4,0c0.1,0,0.2,0,0.3-0.1c0.1,0,0.1-0.1,0.2-0.2c0-0.1,0.1-0.2,0-0.3c0-0.1-0.1-0.2-0.1-0.4
		c-0.1-0.2-0.4-0.5-0.6-0.7c-0.1-0.1-0.2-0.2-0.2-0.3c-0.1-0.1-0.1-0.2-0.2-0.3c-0.1-0.1-0.1-0.2-0.1-0.3c0-0.1-0.1-0.2-0.1-0.3
		c0-0.1,0-0.3,0.1-0.4c0-0.1,0-0.3,0-0.4c0-0.1,0-0.2,0-0.3c0-0.1,0-0.2-0.1-0.2c0-0.1-0.1-0.1-0.2-0.2c-0.3-0.1-0.7-0.2-0.9-0.3
		c-0.2,0-0.3-0.1-0.5-0.1c-0.2,0-0.3-0.1-0.4-0.2c-0.3-0.1-0.5-0.3-0.7-0.6c-0.2-0.2-0.2-0.5-0.2-0.6c0-0.2,0.1-0.3,0.2-0.5
		c0.2-0.1,0.4-0.2,0.6-0.2c0.1,0,0.3,0,0.4,0.1c0.1,0,0.2,0.1,0.2,0.1c0.1,0.1,0.2,0.1,0.2,0.2c0.2,0.2,0.4,0.4,0.6,0.6
		c0.3,0.3,0.6,0.7,1,1c0.3,0.3,0.7,0.5,1,0.6c0.8,0.2,1,0.3,1.2,0.3c0.1,0,0.2,0,0.3,0c0,0,0,0,0,0c0.1,0,0.2,0,0.3,0
		c0.2,0,0.3,0,0.4-0.1c0,0,0.1,0,0.1,0c0,0,0,0,0.1-0.1c0,0,0,0,0,0c0,0,0,0,0-0.1c0,0,0.1-0.1,0.2-0.1c0,0,0.1,0,0.1,0
		c0,0,0.1,0,0.2,0c0.1,0,0.3,0,0.4,0c0.3,0,0.8,0,1.1-0.1c0.2,0,0.4,0,0.5-0.1c0.2,0,0.3-0.1,0.4-0.1c0.1,0,0.1-0.1,0.1-0.1
		c0,0,0.1-0.1,0.1-0.1c0.1-0.1,0.1-0.2,0.1-0.4c0.1-0.3,0.2-0.7,0.5-1.1c0.2-0.2,0.5-0.4,0.6-0.5c0.1-0.1,0.1-0.1,0.2-0.2
		c0.1,0,0.1-0.1,0.1-0.1c0,0,0.1-0.1,0.1-0.1c0,0,0-0.1,0-0.2c0-0.2-0.1-0.3-0.2-0.5c-0.1-0.1-0.3-0.2-0.5-0.4
		c-0.1,0-0.1-0.1-0.2-0.1c-0.1,0-0.1-0.1-0.2-0.2c-0.1-0.1-0.1-0.1-0.1-0.2c0-0.1,0-0.1,0-0.2c0-0.1,0.1-0.2,0.1-0.3
		c0.1-0.1,0.2-0.1,0.3-0.2c0.2-0.1,0.5-0.2,0.8-0.2c0.2,0,0.3,0,0.5,0c0.5,0,1,0.1,1.4,0.4c0.4,0.3,0.7,0.6,1.1,0.8
		c0.5,0.4,1,0.8,1.5,1c0.5,0.3,1,0.4,1.6,0.5c0.1,0,0.2,0,0.3,0.1c0.1,0.1,0.2,0.2,0.2,0.2c0.1,0.2,0.2,0.4,0.2,0.7
		c0,0.3,0,0.5,0,0.8c0,0.2-0.1,0.5-0.3,0.6c-0.2,0.3-0.5,0.5-0.8,0.7c-0.3,0.2-0.6,0.3-1,0.3c-0.3,0-0.7-0.1-1-0.3
		c0,0-0.1,0-0.1-0.1c0,0,0,0,0-0.1c0,0,0-0.1,0-0.1c0,0,0-0.1,0.1-0.1c0,0,0-0.1,0.1-0.1c0.1-0.1,0.2-0.2,0.2-0.4
		c0-0.2,0-0.4-0.1-0.6c-0.1-0.2-0.3-0.3-0.4-0.5c-0.2-0.1-0.4-0.2-0.7-0.2c-0.2,0-0.4,0-0.5,0.2c-0.4,0.3-0.6,0.7-0.7,1
		c-0.1,0.3,0,0.6,0.2,0.9s0.4,0.5,0.7,0.7c0.3,0.2,0.6,0.3,0.8,0.4c0.3,0,0.5,0.1,0.7,0.1c1.7,0,2.9-1,3.3-2.1
		c0.2-0.6,0.2-1.1,0.1-1.5c-0.1-0.2-0.1-0.4-0.2-0.5c0-0.1,0-0.1-0.1-0.1c0,0,0,0,0,0l-0.1-0.1l0.2,0c0,0,0.7-0.2,1.4-0.5
		c0.3-0.1,0.5-0.2,0.7-0.3c0.1-0.1,0.2-0.1,0.3-0.1c0,0,0.1,0,0.1,0c0,0,0.1,0,0.1,0c0,0,0,0,0,0c0.1,0,0.1,0,0.1,0
		c0,0,0.1,0,0.1,0.1c0.1,0.1,0.2,0.2,0.3,0.3c0.4,0.4,1.1,1,2,1.2c0.4,0.1,0.8,0.2,1.2,0.2c0.9,0,1.8-0.2,2.1-0.2
		c0-0.1-0.1-0.2-0.1-0.3l-0.1-0.1l0.1,0c0,0,0.2-0.1,0.5-0.2c0.1-0.1,0.3-0.1,0.4-0.2c0.1-0.1,0.3-0.1,0.4-0.2
		c0.2-0.1,0.5-0.3,0.7-0.5c0.1-0.1,0.3-0.2,0.3-0.2l-0.3-0.2l0.1-0.1c0,0,0.1-0.1,0.2-0.1c0.1-0.1,0.2-0.2,0.4-0.3
		c0.1-0.1,0.3-0.3,0.4-0.4c0.1-0.1,0.2-0.2,0.3-0.3c0-0.1,0.1-0.2,0.2-0.3c0.1-0.1,0.2-0.3,0.3-0.4c0.1-0.1,0.2-0.3,0.2-0.4
		c0,0,0,0,0,0c0,0,0,0,0,0c-0.1,0-0.1-0.1-0.1-0.1l-0.1-0.1l0-0.1c0,0,0.1-0.2,0.2-0.5c0.1-0.3,0.2-0.6,0.3-0.9
		c0.1-0.2,0.1-0.4,0.2-0.6c0-0.1,0.1-0.2,0.1-0.3l-0.3-0.2l0.6-1.6L144,108.3z M121.1,110.3L121.1,110.3c-0.1,0-0.2,0.1-0.3,0.1
		c-0.3,0.1-0.7,0.2-1.2,0.2c-0.5,0.1-1,0.1-1.5,0.2c-0.4,0.1-0.7,0.1-0.9,0.1c-0.2,0-0.4,0.1-0.7,0.2c-0.3,0.1-0.6,0.2-0.9,0.3
		c-0.6,0.2-1.1,0.4-1.1,0.4l-0.3,0.1l0.3,0.1c0,0,0.3,0.1,0.6,0.3c0.2,0.1,0.4,0.2,0.5,0.2c0.2,0.1,0.3,0.2,0.4,0.2
		c0.1,0.1,0.2,0.2,0.5,0.4c0.2,0.2,0.5,0.4,0.7,0.6c0.2,0.2,0.5,0.4,0.7,0.7c0.1,0.1,0.2,0.2,0.3,0.3c0.1,0.1,0.1,0.2,0.2,0.2
		c0.1,0.1,0.2,0.2,0.3,0.3c0.1,0.1,0.3,0.2,0.4,0.3c0.1,0.1,0.2,0.1,0.3,0.2c0.1,0.1,0.1,0.1,0.2,0.1c0,0,0,0,0,0.1c0,0,0,0,0,0
		c0,0,0,0,0,0c0,0-0.1,0.1-0.2,0.1c-0.1,0-0.3,0-0.4-0.1c-0.2-0.1-0.3-0.2-0.5-0.3c-0.3-0.2-0.7-0.5-0.9-0.7
		c-0.2-0.2-0.8-0.8-1.6-1.2c-0.8-0.5-1.7-0.9-2.7-0.9c-0.2,0-0.4,0-0.6,0.1c-0.3,0.1-0.6,0.2-0.9,0.4c-0.3,0.2-0.7,0.4-1.1,0.6
		c-0.3,0.2-0.7,0.4-0.9,0.5c-0.1,0.1-0.2,0.1-0.3,0.2c0,0-0.1,0-0.1,0.1c-0.1,0.1-0.1,0.1-0.1,0.1c0,0.1,0,0.1,0,0.1c0,0,0,0,0,0
		c0,0,0,0,0,0c0.1,0.1,0.2,0.2,0.4,0.5c0.1,0.1,0.2,0.2,0.2,0.4c0.1,0.2,0.2,0.4,0.2,0.6c0.1,0.2,0.1,0.4,0.2,0.6
		c0,0.2,0.1,0.4,0.1,0.5c0,0.2,0.1,0.4,0.2,0.6c0.1,0.2,0.2,0.4,0.3,0.6c0.2,0.3,0.3,0.5,0.3,0.5c0,0,0,0.1,0,0.1c0,0,0,0-0.1,0
		c0,0-0.1,0-0.2-0.1c-0.1-0.1-0.3-0.2-0.4-0.3c-0.3-0.3-0.6-0.7-0.7-1.2c-0.2-0.8-0.5-1.4-0.8-1.8c-0.1-0.2-0.3-0.4-0.4-0.5
		c-0.1-0.1-0.3-0.2-0.5-0.2c-0.1,0-0.2,0-0.3,0c-0.1,0-0.2,0-0.3,0c-0.1,0-0.2,0-0.3,0c-0.2,0-0.4,0.1-0.5,0.1c0,0-0.1,0-0.1,0
		c-0.1,0-0.1-0.1-0.2-0.1c-0.1-0.1-0.1-0.2-0.1-0.3c0-0.1,0-0.2,0.1-0.3c0.1-0.1,0.2-0.2,0.4-0.3c0,0,0,0,0,0c0,0,0,0,0.1,0
		c0,0,0.1,0,0.2,0c0.2,0,0.4,0,0.7-0.1c0.3-0.1,0.6-0.1,0.8-0.3c0.3-0.1,0.5-0.3,0.7-0.6c0.2-0.3,0.3-0.6,0.3-1
		c0-0.6-0.2-1.1-0.5-1.6c-0.3-0.5-0.7-0.9-1.1-1.4c-0.2-0.3-0.5-0.7-0.7-1c-0.1-0.2-0.2-0.4-0.2-0.5c0-0.1,0-0.1,0-0.1c0,0,0,0,0,0
		c0,0,0,0,0,0c0,0,0,0,0,0c0,0,0.1,0,0.2,0.1c0.1,0.1,0.2,0.1,0.2,0.2c0.2,0.2,0.3,0.4,0.4,0.6c0,0,0.1,0.1,0.1,0.1
		c0,0,0.1,0.1,0.1,0.1c0.1,0.1,0.2,0.2,0.3,0.3c0.2,0.2,0.5,0.4,0.7,0.6c0.4,0.4,0.7,0.8,0.9,1c0,0,0,0.1,0.1,0.1
		c0.2,0.3,0.3,0.8,0.4,1.1c0,0.2,0,0.3,0,0.5c0,0.1,0,0.1,0,0.1c0,0,0,0,0,0l0,0.2l0.2-0.1c0,0,0.7-0.3,1.5-0.6
		c0.4-0.2,0.8-0.4,1.1-0.5c0.3-0.2,0.6-0.3,0.8-0.4c0,0,0.1,0,0.1-0.1c0,0,0.1-0.1,0.1-0.1c0.1-0.1,0.1-0.2,0.2-0.3
		c0.1-0.2,0.3-0.5,0.4-0.8c0.2-0.4,0.4-0.8,0.6-1.1c0.1-0.2,0.2-0.3,0.3-0.4c0,0,0.1-0.1,0.1-0.1c0,0,0.1,0,0.1,0c0,0,0,0,0,0
		c0,0,0,0,0.1,0c0,0,0,0,0,0c0,0,0,0.1,0,0.2c0,0.1-0.1,0.2-0.1,0.2c0,0.1-0.1,0.2-0.1,0.3c0,0.1-0.1,0.1-0.1,0.2
		c-0.1,0.1-0.1,0.2-0.2,0.4c0,0.1-0.1,0.3-0.1,0.5c-0.1,0.3-0.2,0.6-0.2,0.6l0,0.2l0.2,0c0,0,0.6-0.1,1.4-0.3
		c0.8-0.1,1.8-0.3,2.6-0.3c0.1,0,0.1,0,0.2,0c0,0,0,0,0,0c0.1,0,0.2,0,0.4,0c0.1,0,0.3-0.1,0.5-0.1c0.2,0,0.4-0.1,0.6-0.1
		c0.2,0,0.4-0.1,0.5-0.1c0.1,0,0.2,0,0.2,0c0,0,0,0,0,0c0,0,0,0,0,0.1c0,0,0,0,0,0c0,0-0.1,0.1-0.2,0.1c-0.1,0-0.2,0.1-0.3,0.1
		C121.5,110.3,121.3,110.3,121.1,110.3z M142.1,108.5l1,0.2c-0.1,0.2,0,0.3-0.1,0.5c-0.1,0.2-0.2,0.3-0.3,0.5l-0.8-0.1L142.1,108.5z
		 M143,110.7c0,0-0.2,0.6-0.4,1c-0.2,0.4-0.5,0.7-0.5,0.7s-0.9-0.3-1-0.5c0-0.2,0.4-1.4,0.4-1.4L143,110.7z M141.7,113.2
		c-0.5,1.4-2,1.9-2,1.8c0-0.1-0.2-0.2-0.2-0.2c0.6-0.7,0.8-2,0.9-2C140.5,112.8,141.7,113.2,141.7,113.2z M139.6,108.7
		c0.1-0.1,1.3-0.4,1.6-0.4c0.1,0-0.1,1.3-0.2,1.3c0,0-1.2,0-1.3-0.1C139.6,109.4,139.6,108.8,139.6,108.7z M140.5,110.4
		c0,0-0.5,1.6-0.6,1.7c-0.1,0-1.2-0.3-2.3-0.4c-0.1,0,0-0.3,0-0.3C138.8,110.2,140.5,110.4,140.5,110.4z M138.6,108.8
		c0.1,0,0,0.8,0.1,0.9c0,0,0,0,0,0c0,0,0,0,0,0c-0.2,0.1-1.2,0.7-1.3,0.6c-0.1,0-0.2-0.3-0.2-0.5
		C137.2,109.6,138.5,108.8,138.6,108.8z M135.2,113c-0.1-0.1-0.1-1.5,1.1-2.8c0.1-0.1,0.7,1.6,0.4,1.7
		C135.8,112.3,135.3,113.1,135.2,113z M135.6,115c-0.5-0.6,0.4-1.5,0.6-1.7c1.5-1.2,3.2-0.4,3.2-0.4s-0.5,1.8-1.9,2.3
		C136.6,115.4,135.9,115.4,135.6,115z M137,116.2c0,0,0.8,0,1.8-0.6c0,0,0.3,0.2,0.6,0.5c0.3,0.3,0.5,0.8,0.5,0.8
		C139.9,116.9,138,117.2,137,116.2z M140.5,116.3c-0.1,0-0.3-0.6-0.2-0.6c0.6-0.2,1.1-0.8,1.2-0.8c0.1,0,0.7,0.6,0.7,0.6
		C141.7,115.9,140.7,116.3,140.5,116.3z M143.3,114.2c-0.2,0.2-0.6,0.6-0.6,0.6s-0.5-0.5-0.5-0.5c0.2-0.2,0.7-1.3,0.7-1.3l1,0.6
		C143.8,113.5,143.5,114,143.3,114.2z M144.1,112.5c0,0-0.7-0.3-0.7-0.4c0-0.1,0.3-1,0.3-1l1,0.2
		C144.8,111.3,144.4,112.4,144.1,112.5z M144.5,110.3l-0.5,0V110l-0.2-0.1l0.2-0.6l1,0.3L144.5,110.3z"/>
	<path d="M58.7,119c0.3-0.3,0.7-0.6,1-1c0.2-0.2,0.4-0.4,0.6-0.6c0.1-0.1,0.2-0.1,0.2-0.2c0.1-0.1,0.2-0.1,0.2-0.1
		c0.1,0,0.3-0.1,0.4-0.1c0.2,0,0.4,0.1,0.6,0.2c0.1,0.1,0.2,0.3,0.2,0.5s-0.1,0.4-0.2,0.6c-0.2,0.3-0.4,0.4-0.7,0.6
		c-0.1,0.1-0.3,0.1-0.4,0.2c-0.2,0-0.3,0.1-0.5,0.1c-0.3,0.1-0.6,0.2-0.9,0.3c-0.1,0-0.2,0.1-0.2,0.2c0,0.1-0.1,0.1-0.1,0.2
		c0,0.1,0,0.2,0,0.3c0,0.1,0,0.3,0,0.4c0,0.1,0,0.3,0,0.4c0,0.1,0,0.2,0,0.3c0,0.1-0.1,0.2-0.1,0.3c-0.1,0.1-0.1,0.2-0.2,0.3
		c-0.1,0.1-0.2,0.2-0.2,0.3c-0.2,0.2-0.5,0.5-0.6,0.7c-0.1,0.1-0.1,0.2-0.1,0.4c0,0.1,0,0.2,0,0.3c0.1,0.1,0.1,0.2,0.2,0.2
		c0.1,0,0.2,0.1,0.3,0.1c0.1,0,0.2,0,0.4,0c0.2,0,0.3,0,0.5,0c0.1,0,0.2,0,0.3,0c0.1,0,0.3,0.1,0.5,0.1c0.2,0.1,0.5,0.1,0.8,0.2
		c0.3,0.1,0.6,0.1,0.8,0.1c0.1,0,0.3,0,0.4,0c0.1,0,0.1,0,0.2-0.1c0.1,0,0.2-0.1,0.3-0.2c0.2-0.1,0.5-0.3,0.7-0.4
		c0.2-0.1,0.4-0.2,0.5-0.3c0.1,0,0.2-0.1,0.2-0.1c0.1,0,0.1-0.1,0.2-0.1c0.1,0,0.1,0,0.2,0c0.1,0,0.2,0,0.3,0.1
		c0.1,0,0.1,0.1,0.2,0.1c0.1,0,0.1,0.1,0.1,0.1c0,0,0.1,0,0.1,0c0,0,0,0,0.1,0c0.1,0,0.2-0.1,0.3-0.2c0.1-0.1,0.2-0.2,0.3-0.3
		c0.2-0.3,0.4-0.6,0.6-0.9c0.1-0.2,0.2-0.4,0.4-0.5c0.1-0.1,0.1-0.1,0.2-0.2c0,0,0.1,0,0.1-0.1c0,0,0.1,0,0.1,0c0.1,0,0.1,0,0.1,0
		c0,0,0.1,0,0.1,0.1c0.1,0,0.1,0.1,0.2,0.1c0.1,0,0.1,0,0.2,0c0,0,0.1,0,0.2,0c0.1,0,0.2-0.1,0.3-0.1c0.1,0,0.2-0.1,0.3-0.1
		c0.2-0.1,0.5-0.4,1-0.8c0.4-0.4,0.6-0.8,0.9-1.3c0.2-0.5,0.4-1,0.5-1.5c0.1-0.4,0.3-0.9,0.4-1.3c0.2-0.4,0.4-0.8,0.6-1
		c0.7-0.7,1.6-0.8,2.1-0.8c0.1,0,0.2,0,0.2,0c0,0,0,0,0,0h0c0,0,0-0.1,0.1-0.1c0-0.1,0-0.1,0-0.2c0-0.2,0-0.3,0-0.5
		c0-0.2-0.1-0.3-0.1-0.4c0,0,0-0.1-0.1-0.1c0,0,0,0,0,0c-0.2,0.1-0.5,0.2-0.9,0.3c-0.4,0.1-0.9,0.2-1.4,0.2c-0.5,0-1-0.1-1.3-0.3
		c-0.2-0.1-0.4-0.3-0.5-0.5c-0.1-0.2-0.2-0.5-0.2-0.8c0-0.3,0-0.5,0.1-0.7c0.1-0.2,0.2-0.4,0.4-0.6c0.2-0.2,0.4-0.3,0.8-0.5
		c0.3-0.1,0.7-0.3,1.1-0.4c0,0,0,0,0-0.1c0-0.1,0-0.1,0.1-0.2c0-0.2,0.1-0.4,0.1-0.5c0-0.1,0.1-0.2,0.1-0.3c0,0,0.1-0.1,0.1-0.1
		c0,0,0.1-0.1,0.1-0.1c0.1-0.1,0.3-0.3,0.4-0.5c0.1-0.2,0.2-0.4,0.2-0.6c0-0.1,0-0.2-0.1-0.3c0-0.1-0.1-0.2-0.1-0.2
		c-0.1-0.1-0.3-0.2-0.5-0.4c-0.1-0.1-0.3-0.2-0.4-0.3c-0.1-0.1-0.3-0.2-0.4-0.4c-0.1-0.1-0.1-0.2-0.2-0.3c0-0.1-0.1-0.2-0.1-0.3
		c0-0.1-0.1-0.2-0.1-0.3c0-0.1-0.1-0.2-0.2-0.2c-0.3-0.2-0.7-0.3-1.3-0.3c-0.7,0-1.7,0.2-3,0.5l0,0c0,0,0,0-0.1,0c0,0,0,0,0,0
		c0,0,0,0-0.1,0c-0.1-0.1-0.3-0.1-0.5-0.2c-0.1,0-0.2-0.1-0.3-0.1c-0.1,0-0.2,0-0.3,0c-0.1,0-0.1,0-0.2,0c-0.7,0.3-1.1,0.7-1.4,1.2
		c-0.3,0.4-0.4,0.9-0.6,1.3c0,0.1-0.1,0.3-0.1,0.4c0,0.1-0.1,0.2-0.1,0.3c-0.1,0.1-0.1,0.2-0.2,0.2c-0.1,0.1-0.2,0.1-0.3,0.1
		c0,0-0.1,0-0.1,0c0,0,0,0,0-0.1c0,0,0-0.1-0.1-0.1c0,0,0-0.1-0.1-0.2c0-0.1,0-0.1-0.1-0.2c-0.1-0.5-0.4-1.2-0.8-1.8
		c-0.5-0.6-1.1-1.2-2.2-1.5c-0.1,0-0.1,0-0.2,0c-0.2,0-0.3,0.1-0.5,0.1c0,0-0.1,0-0.1,0.1c0,0-0.1,0-0.2,0c0,0-0.1,0-0.1,0
		c-1.1-0.4-2.1-0.6-2.8-0.6c-0.3,0-0.6,0-0.7,0.1c-0.1,0-0.1,0.1-0.2,0.1c0,0,0,0.1,0,0.1c0,0.1,0,0.2,0.1,0.3
		c0,0.1,0.1,0.2,0.2,0.3c0.1,0.2,0.3,0.4,0.4,0.7c0,0.1,0,0.2,0,0.3c0,0.1-0.1,0.2-0.1,0.2c0,0.1-0.1,0.1-0.1,0.2c0,0,0,0.1,0.1,0.2
		c0.1,0.1,0.2,0.3,0.4,0.4c0.2,0.1,0.3,0.2,0.5,0.3c0.1,0,0.2,0.1,0.2,0.1c0.1,0,0.1,0.1,0.2,0.1c0,0,0.1,0.1,0.1,0.2
		c0,0,0,0.1,0,0.1c0,0,0,0.1-0.1,0.1c-0.1,0.1-0.2,0.1-0.3,0.1c-0.1,0-0.3,0-0.4-0.1c-0.2,0-0.3-0.1-0.5-0.2
		c-0.4-0.2-0.8-0.4-1.3-0.6c-0.6-0.3-1.2-0.6-1.8-0.9c-0.3-0.1-0.6-0.2-0.8-0.3c-0.3-0.1-0.5-0.1-0.7-0.1c-0.1,0-0.1,0-0.2,0v0
		c0,0,0,0-0.1,0.1c0,0,0,0.1-0.1,0.1c0,0-0.1,0.1-0.1,0.1c0,0-0.1,0.1-0.1,0.1c0,0-0.1,0.1-0.1,0.1c0,0,0,0-0.1,0c0,0-0.1,0-0.1,0
		c-0.1,0-0.2,0-0.3,0c0,0,0,0,0,0c-0.6-0.1-1.7-0.2-2.4-0.2c-0.1,0-0.2,0-0.2,0c-0.2,0-0.6,0.1-1.1,0.1c-0.5,0.1-1.1,0.2-1.6,0.3
		c-0.5,0.1-1,0.3-1.4,0.5c-0.2,0.1-0.3,0.2-0.4,0.3c0,0-0.1,0.1-0.1,0.1c0,0,0,0.1,0,0.1c0,0.1,0.1,0.2,0.1,0.2
		c0,0.1,0.1,0.1,0.2,0.1c0.1,0,0.2,0.1,0.3,0.1c0.1,0,0.2,0.1,0.4,0.1c0.6,0.1,1.5,0.3,2.4,1c0.2,0.2,0.3,0.4,0.4,0.6
		c0.1,0.2,0.2,0.4,0.2,0.6c0,0.2,0.1,0.3,0.1,0.4c0,0.1,0.1,0.2,0.2,0.2c0,0,0.1,0.1,0.2,0.1c0.1,0,0.1,0.1,0.2,0.1
		c0.2,0.1,0.4,0.1,0.6,0.1c0.1,0,0.2,0.1,0.4,0.1c0.1,0,0.2,0.1,0.3,0.1c0.1,0,0.2,0.1,0.3,0.1c0.1,0,0.1,0.1,0.2,0.2
		c0,0.1,0,0.2,0,0.3c0,0.1,0,0.1,0,0.2c0,0,0,0,0,0c0,0.2,0.1,0.3,0.3,0.4c0.2,0.1,0.4,0.2,0.6,0.2c0.1,0,0.2,0,0.3,0
		c0.4,0,0.8-0.1,1.2-0.2c0.4-0.1,0.8-0.2,1.1-0.4c0.2-0.1,0.3-0.1,0.4-0.1c0.1,0,0.1,0,0.2,0c0,0,0.1,0,0.1,0c0,0,0,0,0,0
		c0,0,0.1,0,0.1,0c0.1,0,0.2,0,0.2,0c0.1,0,0.2,0,0.2,0c0.1,0,0.3,0,0.4,0.1c0.1,0.1,0.3,0.2,0.4,0.4c0.1,0.1,0.1,0.3,0.1,0.4
		c0,0.1-0.1,0.2-0.1,0.3c-0.1,0.1-0.1,0.2-0.2,0.2c0,0-0.1,0-0.1,0.1c0,0,0,0,0,0c0,0,0,0,0,0c0,0,0,0,0,0c-0.6,0-1.1,0-1.5,0.1
		c-0.2,0-0.4,0.1-0.5,0.1c-0.1,0-0.3,0.1-0.3,0.1c0,0-0.1,0-0.2,0c-0.1,0-0.1,0-0.2,0c-0.1,0-0.2,0-0.3-0.1
		c-0.3-0.1-0.6-0.2-0.9-0.2c-0.1,0-0.2,0-0.4,0c-0.4,0-0.8,0-1.1,0.1c-0.2,0-0.5,0.2-0.9,0.4c-0.3,0.2-0.7,0.4-1.1,0.7
		c-0.3,0.2-0.7,0.5-1,0.7c-0.4,0.2-0.7,0.4-1.1,0.5c-0.2,0.1-0.5,0.1-0.8,0.1c-0.4,0-0.8-0.1-1.2-0.2c-0.3-0.1-0.5-0.2-0.7-0.4
		c-0.1-0.1-0.2-0.1-0.2-0.2c-0.1-0.1-0.1-0.2-0.1-0.3c0,0,0-0.1,0-0.2c0-0.4,0.1-1,0.1-1.7c0-0.7-0.1-1.4-0.4-2c0,0,0,0,0,0
		c0,0,0,0,0-0.1c0,0-0.1-0.1-0.1-0.2c-0.1-0.2-0.2-0.4-0.4-0.6c-0.3-0.5-0.7-1-1.2-1.5c0,0-0.1,0.1-0.2,0.2l-0.1,0.1l-0.1-0.1
		c0,0-0.8-0.6-1.1-0.8c-0.1-0.1-0.5-0.3-0.8-0.5c-0.2-0.1-0.3-0.2-0.5-0.2l-0.2,0.4l-0.1-0.1c0,0,0,0-0.1,0c0,0-0.1-0.1-0.2-0.1
		c-0.2-0.1-0.5-0.2-0.8-0.2c-0.1,0-0.2,0-0.5-0.1c-0.2,0-0.5-0.1-0.7-0.1c0,0,0,0,0,0c-0.1,0-0.3,0-0.4,0c0,0,0,0,0,0
		c0,0,0,0.1,0,0.1c0,0,0,0.1,0,0.1c0,0,0,0,0,0l0,0c0,0,0,0.1-0.1,0.1c0,0,0,0,0.1,0c0.1,0,0.3-0.1,0.3-0.1c0,0,0,0,0,0c0,0,0,0,0,0
		c0,0-0.1,0-0.3,0.1c0,0,0,0-0.1,0c0,0,0,0,0,0c0,0,0,0,0,0c0,0,0,0,0,0c-0.3,0.1-0.9,0.2-1.9,0.4l0.1,0.3l-2,0.7l0.6,1.6l-0.3,0.2
		c0,0.1,0,0.2,0.1,0.3c0.1,0.2,0.1,0.4,0.2,0.6c0.2,0.5,0.5,1.4,0.5,1.4l0,0.1l-0.1,0.1c0,0-0.1,0-0.1,0.1c0,0,0,0,0,0c0,0,0,0,0,0
		c0.1,0.1,0.2,0.2,0.2,0.4c0.1,0.1,0.2,0.3,0.3,0.4c0.1,0.1,0.2,0.2,0.2,0.3c0.1,0.1,0.1,0.2,0.3,0.3c0.1,0.1,0.3,0.3,0.4,0.4
		c0.3,0.3,0.5,0.5,0.5,0.5l0.1,0.1l-0.3,0.2c0.1,0.1,0.2,0.1,0.3,0.2c0.3,0.2,0.5,0.4,0.7,0.5c0.1,0.1,0.2,0.1,0.4,0.2
		c0.1,0.1,0.3,0.1,0.4,0.2c0.3,0.1,0.5,0.2,0.5,0.2l0.1,0l-0.1,0.1c-0.1,0.1-0.1,0.2-0.1,0.3c0.3,0.1,1.2,0.2,2.1,0.2
		c0.4,0,0.9,0,1.2-0.2c0.9-0.3,1.6-0.9,2-1.2c0.1-0.1,0.2-0.2,0.3-0.3c0,0,0.1-0.1,0.1-0.1c0,0,0.1,0,0.1,0c0,0,0,0,0,0
		c0,0,0.1,0,0.1,0c0,0,0.1,0,0.1,0.1c0.1,0,0.2,0.1,0.3,0.1c0.2,0.1,0.5,0.2,0.7,0.3c0.7,0.3,1.4,0.5,1.4,0.5l0.2,0l-0.1,0.1
		c0,0,0,0,0,0c0,0,0,0.1-0.1,0.1c-0.1,0.1-0.1,0.3-0.2,0.5c-0.1,0.4-0.1,0.9,0.1,1.5c0.5,1.1,1.6,2.1,3.3,2.1c0.2,0,0.5,0,0.7-0.1
		c0.2,0,0.5-0.2,0.8-0.4c0.3-0.2,0.5-0.4,0.7-0.7c0.2-0.3,0.3-0.6,0.2-0.9c-0.1-0.3-0.2-0.7-0.7-1c-0.1-0.1-0.3-0.2-0.5-0.2
		c-0.2,0-0.5,0.1-0.7,0.2c-0.2,0.1-0.3,0.3-0.4,0.5c-0.1,0.2-0.1,0.4-0.1,0.6c0,0.2,0.1,0.3,0.2,0.4c0,0,0.1,0.1,0.1,0.1
		c0,0,0,0.1,0.1,0.1c0,0,0,0.1,0,0.1c0,0,0,0.1,0,0.1c0,0-0.1,0.1-0.1,0.1c-0.4,0.2-0.7,0.3-1.1,0.3c-0.4,0-0.8-0.1-1-0.3
		c-0.3-0.2-0.5-0.5-0.8-0.7c-0.1-0.2-0.2-0.4-0.3-0.6c0-0.2-0.1-0.5,0-0.8c0-0.3,0.1-0.5,0.2-0.7c0.1-0.1,0.1-0.2,0.2-0.2
		c0.1-0.1,0.2-0.1,0.3-0.1c0.6,0,1.2-0.2,1.6-0.5c0.5-0.3,0.9-0.6,1.5-1c0.3-0.3,0.7-0.5,1.1-0.8c0.4-0.3,1-0.4,1.4-0.4
		c0.2,0,0.3,0,0.5,0c0.3,0,0.6,0.1,0.8,0.2c0.1,0.1,0.2,0.1,0.3,0.2c0.1,0.1,0.1,0.2,0.1,0.3c0,0.2-0.1,0.3-0.2,0.4
		c0,0.1-0.1,0.1-0.2,0.2c-0.1,0-0.1,0.1-0.2,0.1c-0.2,0.1-0.3,0.2-0.5,0.4c-0.1,0.1-0.2,0.3-0.2,0.5c0,0.1,0,0.1,0,0.2
		c0,0,0,0.1,0.1,0.1c0,0,0.1,0.1,0.1,0.1c0.1,0,0.1,0.1,0.2,0.2c0.2,0.1,0.4,0.3,0.6,0.5c0.4,0.4,0.4,0.8,0.5,1.1
		c0,0.2,0.1,0.3,0.1,0.4c0,0.1,0.1,0.1,0.1,0.1c0,0,0.1,0.1,0.1,0.1c0.1,0,0.2,0.1,0.4,0.1c0.2,0,0.3,0.1,0.5,0.1
		c0.4,0,0.8,0.1,1.1,0.1c0.2,0,0.3,0,0.4,0c0.1,0,0.1,0,0.2,0c0,0,0.1,0,0.1,0c0.1,0,0.1,0,0.2,0.1c0,0,0,0,0.1,0c0,0,0,0,0,0
		c0,0,0,0,0.1,0.1c0,0,0,0,0.1,0c0.1,0,0.2,0.1,0.4,0.1c0.1,0,0.2,0,0.3,0c0.1,0,0.2,0,0.3,0c0.2,0,0.5,0,1.2-0.3
		C58,119.6,58.3,119.3,58.7,119z M37,109.5c0-0.1,0-0.9,0.1-0.9c0.1,0,1.4,0.8,1.5,1c0,0.1-0.1,0.4-0.2,0.5
		C38.3,110.2,37.2,109.5,37,109.5C37,109.5,37,109.5,37,109.5C37,109.5,37,109.5,37,109.5z M38.1,111.2c0,0,0.1,0.3-0.1,0.3
		c-1,0-2.1,0.4-2.3,0.4c-0.1,0-0.6-1.7-0.6-1.7S36.9,110,38.1,111.2z M36.3,114.6c0,0-0.2,0.1-0.2,0.2c0,0.1-1.5-0.4-2-1.8
		c0,0,1.2-0.4,1.3-0.4C35.5,112.7,35.6,113.9,36.3,114.6z M34.5,108.1c0.2,0,1.5,0.3,1.6,0.4c0.1,0.1,0,0.7-0.1,0.8
		c0,0.1-1.3,0.1-1.3,0.1C34.7,109.4,34.4,108.1,34.5,108.1z M34.3,110.3c0,0,0.4,1.2,0.4,1.4c0,0.2-1,0.5-1,0.5s-0.3-0.3-0.5-0.7
		c-0.2-0.4-0.4-1-0.4-1L34.3,110.3z M33.6,108.3l0.1,1.1l-0.8,0.1c-0.1-0.2-0.2-0.3-0.3-0.5c-0.1-0.2,0-0.3-0.1-0.5L33.6,108.3z
		 M31.8,109.1l0.2,0.6l-0.2,0.1v0.2l-0.5,0.1l-0.4-0.7L31.8,109.1z M30.9,111.1l1-0.2c0,0,0.4,0.9,0.3,1c0,0.1-0.7,0.4-0.7,0.4
		C31.3,112.3,30.9,111.1,30.9,111.1z M33,114.6c0,0-0.5-0.4-0.6-0.6c-0.2-0.2-0.5-0.7-0.5-0.7l1-0.6c0,0,0.5,1.1,0.7,1.3
		C33.6,114.1,33,114.6,33,114.6z M35.2,116.1c-0.2,0-1.2-0.4-1.7-0.7c0,0,0.6-0.6,0.7-0.6c0.1,0,0.7,0.6,1.2,0.8
		C35.5,115.5,35.3,116.1,35.2,116.1z M35.8,116.8c0,0,0.2-0.5,0.5-0.8c0.3-0.3,0.5-0.5,0.6-0.5c1,0.6,1.8,0.6,1.8,0.6
		C37.8,117,35.8,116.7,35.8,116.8z M40.1,114.8c-0.3,0.4-1,0.5-1.9,0.1c-1.4-0.5-1.9-2.3-1.9-2.3s1.7-0.8,3.2,0.4
		C39.8,113.3,40.7,114.2,40.1,114.8z M40.5,112.9c-0.1,0.1-0.6-0.8-1.6-1c-0.3-0.1,0.4-1.8,0.4-1.7
		C40.6,111.4,40.6,112.8,40.5,112.9z M56.6,115.9c-0.2,0.1-0.3,0.1-0.4,0.1c-0.1,0-0.1,0-0.2-0.1c0,0,0,0,0,0v0c0,0,0,0,0,0
		c0,0,0,0,0-0.1c0,0,0.1-0.1,0.2-0.1c0.1,0,0.2-0.1,0.3-0.2c0.1-0.1,0.3-0.2,0.4-0.3c0.1-0.1,0.3-0.2,0.3-0.3c0-0.1,0.1-0.1,0.2-0.2
		c0.1-0.1,0.2-0.2,0.3-0.3c0.2-0.2,0.5-0.4,0.7-0.7c0.2-0.2,0.5-0.4,0.7-0.6c0.2-0.2,0.4-0.3,0.5-0.4c0.1-0.1,0.2-0.2,0.4-0.2
		c0.2-0.1,0.3-0.2,0.5-0.2c0.3-0.2,0.6-0.3,0.6-0.3l0.3-0.1l-0.3-0.1c0,0-0.5-0.2-1.1-0.4c-0.3-0.1-0.6-0.2-0.9-0.3
		c-0.3-0.1-0.5-0.2-0.7-0.2c-0.2,0-0.5-0.1-0.9-0.1c-0.5-0.1-1-0.1-1.5-0.2c-0.5-0.1-0.9-0.2-1.2-0.2c-0.1,0-0.2-0.1-0.3-0.1
		c-0.2,0-0.3-0.1-0.4-0.1c-0.1,0-0.2-0.1-0.3-0.1c-0.1,0-0.1-0.1-0.2-0.1c0,0,0,0,0,0c0,0,0,0,0-0.1c0,0,0,0,0,0c0,0,0.1,0,0.2,0
		c0.1,0,0.3,0,0.5,0.1c0.2,0,0.4,0.1,0.6,0.1c0.2,0,0.3,0.1,0.5,0.1c0.1,0,0.3,0,0.4,0c0,0,0,0,0,0c0.1,0,0.1,0,0.2,0
		c0.7,0,1.7,0.1,2.6,0.3c0.8,0.1,1.5,0.3,1.5,0.3l0.2,0l0-0.2c0,0-0.1-0.3-0.2-0.6c0-0.2-0.1-0.3-0.1-0.5c-0.1-0.1-0.1-0.3-0.2-0.4
		c0,0-0.1-0.1-0.1-0.2c-0.1-0.1-0.1-0.2-0.1-0.3c0-0.1-0.1-0.2-0.1-0.2c0-0.1,0-0.1,0-0.2c0,0,0,0,0,0s0,0,0.1,0c0,0,0,0,0,0
		c0,0,0,0,0.1,0c0,0,0.1,0,0.1,0.1c0.1,0.1,0.2,0.2,0.3,0.4c0.2,0.3,0.4,0.7,0.6,1.1c0.1,0.3,0.3,0.5,0.4,0.8
		c0.1,0.1,0.1,0.2,0.2,0.3c0,0,0.1,0.1,0.1,0.1c0,0,0.1,0.1,0.1,0.1c0.1,0.1,0.4,0.2,0.8,0.4c0.3,0.2,0.7,0.3,1.1,0.5
		c0.8,0.3,1.5,0.6,1.5,0.6l0.2,0.1l0-0.2c0,0,0,0,0,0c0,0,0-0.1,0-0.1c0-0.1,0-0.3,0-0.5c0-0.4,0.1-0.8,0.4-1.1c0,0,0,0,0.1-0.1
		c0.2-0.2,0.5-0.7,0.9-1c0.2-0.2,0.5-0.4,0.7-0.6c0.1-0.1,0.3-0.2,0.3-0.3c0,0,0.1-0.1,0.1-0.1c0,0,0.1-0.1,0.1-0.1
		c0.1-0.2,0.2-0.4,0.4-0.6c0.1-0.1,0.2-0.2,0.2-0.2c0.1-0.1,0.1-0.1,0.2-0.1c0,0,0,0,0,0c0,0,0,0,0,0c0,0,0,0,0,0c0,0,0,0.1,0,0.1
		c0,0.1-0.1,0.3-0.2,0.5c-0.2,0.4-0.5,0.8-0.7,1c-0.4,0.4-0.8,0.9-1.1,1.4c-0.3,0.5-0.5,1-0.5,1.6c0,0.4,0.1,0.8,0.3,1
		s0.4,0.5,0.7,0.6c0.3,0.1,0.6,0.2,0.8,0.3c0.3,0.1,0.5,0.1,0.7,0.1c0.1,0,0.1,0,0.2,0c0,0,0,0,0.1,0c0,0,0,0,0,0
		c0.2,0.1,0.3,0.2,0.4,0.3c0.1,0.1,0.1,0.2,0.1,0.3c0,0.1-0.1,0.2-0.1,0.3c-0.1,0.1-0.1,0.1-0.2,0.1c0,0-0.1,0-0.1,0
		c-0.1,0-0.3,0-0.5-0.1c-0.1,0-0.2,0-0.3,0c-0.1,0-0.2,0-0.3,0c-0.1,0-0.2,0-0.3,0c-0.2,0-0.3,0.1-0.5,0.2c-0.1,0.1-0.3,0.3-0.4,0.5
		c-0.3,0.4-0.5,1-0.8,1.8c-0.2,0.5-0.4,0.9-0.7,1.2c-0.1,0.1-0.3,0.2-0.4,0.3c-0.1,0-0.1,0.1-0.2,0.1c0,0-0.1,0-0.1,0c0,0,0,0,0,0
		c0,0,0,0,0-0.1c0-0.1,0.1-0.2,0.3-0.5c0.1-0.2,0.2-0.4,0.3-0.6c0.1-0.2,0.2-0.4,0.2-0.6c0-0.1,0-0.3,0.1-0.5c0-0.2,0.1-0.4,0.2-0.6
		c0.1-0.2,0.2-0.4,0.2-0.6c0.1-0.2,0.2-0.3,0.2-0.4c0.2-0.3,0.4-0.4,0.4-0.5c0,0,0,0,0,0c0,0,0,0,0,0c0-0.1,0-0.1,0-0.1
		c0-0.1-0.1-0.1-0.1-0.1c0,0,0,0-0.1,0c-0.1,0-0.2-0.1-0.3-0.2c-0.2-0.1-0.5-0.3-0.9-0.5c-0.3-0.2-0.7-0.4-1.1-0.6
		c-0.3-0.2-0.7-0.3-0.9-0.4c-0.2,0-0.4-0.1-0.6-0.1c-1,0-2,0.4-2.7,0.9c-0.8,0.5-1.4,1-1.6,1.2c-0.2,0.2-0.5,0.5-0.9,0.7
		C57,115.7,56.8,115.8,56.6,115.9z"/>
	<path d="M49.1,30.1h0.5l0-0.1v-0.3l0-1.1l0,0l0-0.8l0-0.4h0.1l0.5,2.5l0.1,0.1h0.6l0.1-0.1l0.4-2.4l0.1-0.2h0.1l0,2.6l0.3,0l0,0
		l0.2,0l0-0.1v-3.7l-0.1,0l-0.8,0l0,0l-0.5,2.6l0,0.1h-0.1l0-0.1L50,26.3l-0.1,0l-0.8,0l0,0.1L49.1,30.1L49.1,30.1z M49.2,28.2
		L49.2,28.2L49.2,28.2L49.2,28.2L49.2,28.2z"/>
	<rect x="49.2" y="28.2" width="0" height="0"/>
	<path d="M53.5,30.1L53.5,30.1l0.3,0v0l0.1,0l0.2-0.6l0.1-0.1l0.9,0v0l0.3,0l0.1,0.2l0.1,0.5l0.1,0.1l0.5,0l0-0.1l-0.5-1.7l0,0
		l-0.1-0.4l-0.5-1.6l0-0.1l-0.6,0l-0.1,0l-1,3.5L53.3,30l0.1,0L53.5,30.1z M54.4,28.5l0.3-1.1l0.1-0.1h0.1l0.4,1.3l0,0.1l-0.6,0
		l-0.1-0.1L54.4,28.5z"/>
	<path d="M57.4,30.1l0.6,0l0,0l0-1.2l0-0.2l0.1,0l0.8,0l0.1,0l0.1,0.1l0.1,0.1l0,0.9l0.1,0.3l0.1,0.1l0.1,0l0.5,0l0.1,0v-0.1
		l-0.1-0.1l0-0.5l0-0.8l-0.1-0.2l-0.2-0.2l0.2-0.2l0.1-0.2l0.1-0.3l0,0l0-0.1v-0.2l-0.1-0.4l-0.2-0.3l-0.1-0.1l-0.2-0.1l-0.2,0
		l-1.8,0l0,0l0,2L57.4,30.1L57.4,30.1z M58,26.9L58,26.9l1-0.1l0.2,0.1l0.1,0.2l0,0.2l-0.1,0.3l-0.1,0.2l-0.2,0.1l-0.7,0L58,27.8
		l0-0.3L58,26.9z"/>
	<polygon points="69.3,30 71.6,30 71.7,30 71.7,29.4 71.6,29.4 70,29.4 70,29.3 69.9,29.3 69.9,28.5 70,28.4 70,28.3 71.4,28.3 
		71.4,28.3 71.4,27.7 71.4,27.7 70.1,27.7 69.9,27.7 69.9,27.3 69.9,26.9 70,26.8 70.1,26.8 71,26.8 71,26.8 71.5,26.8 71.6,26.8 
		71.6,26.3 71.5,26.2 69.3,26.2 69.3,26.2 69.3,27.4 69.3,27.4 69.3,28.5 69.3,28.5 69.3,29.4 69.3,29.4 69.3,29.8 	"/>
	<polygon points="65.5,29.4 65.7,29.7 65.9,29.9 66.1,30 66.5,30.1 66.8,30.1 66.8,30.1 67.1,30.1 67.4,29.9 67.6,29.7 67.8,29.4 
		67.9,29 67.9,26.2 67.9,26.2 67.5,26.2 67.3,26.2 67.2,26.2 67.2,28.9 67.2,29.2 67,29.3 66.9,29.4 66.5,29.5 66.5,29.4 66.3,29.4 
		66.2,29.3 66,29 66,27.4 66,27.4 66,27.4 66,26.9 66,26.2 66,26.2 65.4,26.2 65.4,26.2 65.4,28.7 65.4,29.3 	"/>
	<path d="M61.2,28.8l0.2,0.5l0.2,0.4l0.3,0.2l0.2,0.1l0.4,0.1h0.3v0l0.2,0l0.5-0.2l0.3,0.3l0.1,0l0-0.1l0,0l0.2-0.2l0-0.1l-0.3-0.4
		v-0.1l0.1-0.3l0.1-0.3l0.1-0.6v-0.4L64,27.4L63.9,27l-0.2-0.3l-0.2-0.2l-0.2-0.2L63,26.2l-0.2,0l-0.5,0l-0.3,0.1l-0.3,0.2l-0.2,0.2
		l-0.3,0.5l-0.1,0.4l-0.1,0.4l0,0.5L61.2,28.8z M61.7,27.8L61.7,27.8l0-0.1l0.2-0.5l0.2-0.2l0.3-0.1l0.3,0l0.2,0l0.2,0.1l0.2,0.2
		l0.1,0.2l0.1,0.5v0.5l-0.1,0.5l-0.1,0l-0.3-0.3l0,0l0-0.1l-0.1,0l-0.2,0.3L62.7,29l0.3,0.3l0,0.1l-0.2,0.1l-0.2,0v0l-0.1,0
		l-0.2-0.1L62,29.2l-0.2-0.3l-0.1-0.4L61.7,27.8z"/>
	<path d="M103.8,29.9L103.8,29.9l1.6,0.1v0l0.3-0.1l0.2-0.2l0.2-0.3l0.2-0.3l0.1-0.5l0.1-0.7l-0.1-0.6l-0.1-0.2l-0.2-0.4l-0.3-0.4
		l-0.3-0.1h-1.6l-0.1,0.1l0,0l0,2.2L103.8,29.9z M104.4,26.8L104.4,26.8l0.7,0l0.2,0.1l0.2,0.2l0.1,0.3l0.1,0.5l0,0.4l-0.1,0.5
		l-0.2,0.3l-0.1,0.1l-0.3,0.1l-0.5,0v0l-0.1-0.1L104.4,26.8z"/>
	<polygon points="107.7,27 107.7,27 107.6,27.9 107.7,29.9 107.7,30 110,30 110,29.9 110,29.4 110,29.3 108.4,29.3 108.3,29.3 
		108.3,29.3 108.3,28.4 108.4,28.3 109.8,28.3 109.8,28.3 109.8,27.7 109.8,27.7 109.6,27.7 108.4,27.7 108.3,27.6 108.3,27.5 
		108.3,26.9 108.3,26.8 108.4,26.8 109.9,26.8 109.9,26.7 109.9,26.4 110,26.4 109.9,26.2 109,26.1 107.7,26.2 	"/>
	<path d="M111.3,29.9L111.3,29.9l0.6,0.1v0l0.1,0l0-0.5l0-0.8l0.1-0.1h0.7l0.3,0l0.3-0.1l0.3-0.3l0.2-0.5l0-0.1l0,0l0-0.6l-0.1-0.4
		l-0.2-0.2l-0.2-0.1l-0.2-0.1h-1.6l0,0l0,2.6l0,0l0,0L111.3,29.9z M112,26.8l0.7,0l0.2,0L113,27l0.1,0.2l0,0.3l-0.1,0.2l-0.1,0.1
		l-0.2,0.1H112v0l-0.1,0L112,26.8L112,26.8z"/>
	<polygon points="122.7,28.9 122.7,29.9 122.8,30 124.4,30 125.1,30 125.1,29.6 125.1,29.6 125.1,29.4 125,29.3 123.4,29.3 
		123.4,29.3 123.4,28.4 123.4,28.3 124.9,28.3 124.9,28.3 124.9,27.7 124.8,27.7 123.4,27.7 123.4,27.6 123.4,27.1 123.4,27.1 
		123.4,26.8 123.5,26.8 125,26.8 125,26.7 125,26.2 125,26.2 122.8,26.1 122.7,26.2 122.7,27.2 122.7,28.9 122.7,28.9 	"/>
	<path d="M126.4,30L126.4,30l1.8,0l0,0l0.2,0v0h0.1v0l0.3,0l0,0l0-0.3l0-0.3l-1.7,0l0,0l0-0.9l0.1-0.1l1.4,0l0-0.1l0-0.4l0-0.1
		l-1.4,0l-0.1,0v-0.8l0.1,0l1.5,0l0,0v-0.5l0,0l-0.8,0l-0.2,0v0h-1.3l0,0.7l0,0l0,2L126.4,30z M126.6,26.7L126.6,26.7L126.6,26.7
		L126.6,26.7L126.6,26.7z"/>
	<polygon points="126.6,26.7 126.6,26.7 126.5,26.7 126.6,26.7 	"/>
	<path d="M114.9,29l0.1,0.3l0.2,0.3l0.2,0.2l0.3,0.2l0.4,0.1l0.3,0v0l0.2,0l0.3-0.1l0.2-0.2l0.2-0.2l0.2-0.4l0.2-0.5l0.1-0.5l0-0.4
		l-0.1-0.6l-0.2-0.5l-0.2-0.2l-0.3-0.2l-0.5-0.1l-0.4,0l-0.2,0l-0.3,0.1l-0.2,0.1l-0.3,0.3L115,27l-0.1,0.4l-0.1,0.5l0,0.5L114.9,29
		z M115.5,27.4l0.2-0.3l0.2-0.1l0.2-0.1l0.3,0l0.2,0l0.2,0.1l0.2,0.2l0.2,0.4l0.1,0.5l0,0.4l-0.1,0.6l-0.2,0.3l-0.2,0.1l-0.2,0
		l-0.1,0h-0.1l0,0l-0.2,0l-0.2-0.1l-0.2-0.2l-0.1-0.2l-0.1-0.4l-0.1-0.5L115.5,27.4z"/>
	<polygon points="119,29.4 119.2,29.6 119.4,29.9 119.6,30 120,30.1 120.4,30.1 120.4,30.1 120.7,30 121,29.9 121.3,29.7 
		121.4,29.3 121.5,28.9 121.5,28.8 121.5,28.5 121.4,28.3 121.3,28.1 121,27.9 120.8,27.8 119.8,27.6 119.6,27.5 119.6,27.3 
		119.6,27.1 119.6,27 119.7,26.8 119.9,26.7 120.3,26.7 120.5,26.8 120.7,27 120.8,27.3 120.9,27.3 121.3,27.3 121.3,27.3 
		121.4,27.3 121.4,27.1 121.3,26.8 121.2,26.5 121,26.3 120.8,26.2 120.4,26.1 120,26.1 119.6,26.2 119.4,26.3 119.2,26.5 
		119.1,26.7 119,27 119,27.5 119.1,27.9 119.3,28.1 119.7,28.2 120.3,28.4 120.6,28.5 120.7,28.6 120.9,28.8 120.9,29 120.8,29.2 
		120.7,29.4 120.3,29.5 120.1,29.5 119.8,29.3 119.6,29.1 119.5,28.9 119.5,28.8 118.9,28.8 118.9,28.9 118.9,29.1 	"/>
</g>
</svg>
