<?xml version="1.0" encoding="utf-8"?>
<!-- Generator: Adobe Illustrator 21.0.0, SVG Export Plug-In . SVG Version: 6.00 Build 0)  -->
<svg version="1.1" fill="#dee0f6" id="Слой_1" xmlns="http://www.w3.org/2000/svg" xmlns:xlink="http://www.w3.org/1999/xlink" x="0px" y="0px"
	 viewBox="0 0 173.2 19.6" style="enable-background:new 0 0 173.2 19.6;" xml:space="preserve">
<g id="g439" transform="matrix(3.3216098,0,0,-3.3216098,116.05142,331.83973)">
	<path id="path441" d="M11,97.6H9.7V94H11v2.3h4.7V94H17v3.6L11,97.6L11,97.6z M-10.5,98.6h4.6c0.7,0.2,1.2,0.7,1.4,1.3h-7.2v-3.6h6
		v-0.9h-4.6c-0.7-0.3-1.2-0.7-1.3-1.3l0-0.1h7.3v3.6h-6V98.6z M0.9,95.4v4.5h-1.3V94h5.9v0.1c0.6,0.3,1.1,0.7,1.2,1.3L0.9,95.4z
		 M10.9,98.6h5c0.7,0.3,1.2,0.7,1.4,1.3H9.5C9.6,99.3,10.2,98.8,10.9,98.6z M-22,98.6h5c0.7,0.3,1.2,0.7,1.4,1.3h-7.7
		C-23.2,99.3-22.7,98.8-22,98.6z M-22,94h5c0.7,0.3,1.2,0.7,1.4,1.3h-7.7C-23.2,94.8-22.7,94.3-22,94z M-34.9,99.9
		c0.2-0.6,0.7-1.1,1.4-1.3h2.1l0.1,0V94h1.3v4.5l0.1,0h2.1c0.7,0.3,1.2,0.7,1.3,1.3v0L-34.9,99.9L-34.9,99.9z M-22,96.3h5
		c0.7,0.3,1.2,0.7,1.4,1.3h-7.7C-23.2,97-22.7,96.5-22,96.3"/>
</g>
</svg>
