<?xml version="1.0" encoding="utf-8"?>
<!-- Generator: Adobe Illustrator 21.0.0, SVG Export Plug-In . SVG Version: 6.00 Build 0)  -->
<svg version="1.1" id="Слой_1" xmlns="http://www.w3.org/2000/svg" xmlns:xlink="http://www.w3.org/1999/xlink" x="0px" y="0px"
	 viewBox="0 0 92.4 95.4" style="enable-background:new 0 0 92.4 95.4;" xml:space="preserve">
<style type="text/css">
	.st0{fill:#dee0f6;}
	.st1{fill-rule:evenodd;clip-rule:evenodd;fill:#dee0f6;}
</style>
<polygon class="st0" points="0,95.1 0,82.2 0.2,82.2 3.8,82.2 3.8,86.2 6.6,82.2 6.8,82.2 11,82.2 6.5,88 12,95.1 11.8,95.1 
	7.3,95.1 3.8,89.8 3.8,95.1 3.6,95.1 0,95.1 "/>
<polygon class="st0" points="12.9,82.2 16.4,82.2 16.4,89.6 21.2,82.2 21.4,82.2 24.9,82.2 24.9,95.1 24.7,95.1 21.3,95.1 
	21.3,87.6 16.5,95.1 16.3,95.1 12.7,95.1 12.7,82.2 12.9,82.2 "/>
<polygon class="st0" points="27.9,95.1 27.9,82.2 28.1,82.2 31.7,82.2 31.7,95.1 31.5,95.1 27.9,95.1 "/>
<path class="st0" d="M34.7,82.2h6.2c1.2,0,2,0.2,2.6,0.6c0.5,0.4,0.9,0.9,1.1,1.4c0.1,0.2,0.1,0.5,0.2,0.7c0,0.2,0,0.4,0,0.6
	c0,0.7-0.2,1.2-0.6,1.7c-0.4,0.5-0.9,0.8-1.4,1v0c0.1,0,0.3,0.1,0.5,0.2c0.2,0.1,0.4,0.2,0.6,0.3c0.4,0.2,0.7,0.6,1.1,1
	c0.3,0.4,0.5,1,0.5,1.8c0,0.1,0,0.1,0,0.2c0,0.1,0,0.1,0,0.2c-0.1,0.8-0.5,1.5-1.1,2.2c-0.6,0.7-1.7,1-3.1,1h-0.2h-6.6V82.2H34.7
	L34.7,82.2z M38.3,92.5h1.5c0.1,0,0.2,0,0.4,0c0.2,0,0.3,0,0.5-0.1c0.3-0.1,0.5-0.2,0.7-0.4c0.2-0.2,0.3-0.5,0.3-0.9
	c0-0.4-0.1-0.7-0.3-0.9c-0.2-0.2-0.5-0.3-0.7-0.4c-0.1,0-0.3,0-0.4,0c-0.1,0-0.3,0-0.4,0h-1.5V92.5L38.3,92.5z M38.3,87.3h1.3
	c0.5,0,0.9-0.1,1.1-0.2c0.2-0.2,0.4-0.4,0.5-0.6c0-0.1,0-0.1,0-0.2c0-0.1,0-0.1,0-0.2c0-0.3-0.1-0.6-0.4-0.9
	c-0.2-0.3-0.7-0.4-1.3-0.4h-1.3V87.3L38.3,87.3z"/>
<polygon class="st0" points="62.2,95.1 62.2,85.7 58.6,85.7 58.6,82.2 58.8,82.2 69.5,82.2 69.5,85.7 65.9,85.7 65.9,95.1 
	65.8,95.1 62.3,95.1 62.2,95.1 "/>
<path class="st0" d="M67.8,95.1l4.6-12.9h0.2h4.4l4.6,12.9h-0.2h-3.9l-0.7-2.2h-4.2l-0.7,2.2h-0.2H67.8L67.8,95.1z M74.6,85.5
	L73.3,90H76L74.6,85.5L74.6,85.5z"/>
<path class="st0" d="M82.1,95.1V82.2h0.2h5.4c1.4,0,2.4,0.3,3.1,0.9c0.7,0.6,1.1,1.2,1.4,1.9c0.1,0.3,0.1,0.5,0.2,0.8
	c0,0.3,0.1,0.8,0.1,1s0,0.5-0.1,0.7c0,0.3-0.1,0.5-0.2,0.8c-0.2,0.7-0.7,1.4-1.4,2c-0.7,0.6-1.7,0.9-3.1,0.9h-1.8v3.9h-0.2H82.1
	L82.1,95.1z M85.9,85v3.3h0.8c0.5,0,0.9-0.1,1.2-0.3c0.2-0.2,0.4-0.4,0.5-0.6c0.1-0.1,0.1-0.3,0.1-0.4c0-0.1,0-0.2,0-0.3
	s0-0.5,0-0.5c0-0.1,0-0.1,0-0.2c-0.1-0.3-0.2-0.5-0.5-0.7c-0.2-0.2-0.7-0.3-1.3-0.3H85.9L85.9,85z"/>
<path class="st0" d="M53.1,95.4l-0.1,0h0l-0.1,0h0l-0.1,0h0c-2.1-0.1-3.7-0.7-4.8-2c-1-1.1-1.5-2.4-1.7-3.8l0,0l0-0.1l0,0l0-0.1l0,0
	l0-0.1c0-0.1,0-0.2,0-0.2l0,0l0-0.1v0l0-0.1v0l0-0.1v0l0-0.1v0l0-0.1l0-0.1v0l0-0.1v0l0-0.1v0l0-0.1v0l0-0.1l0,0c0-0.1,0-0.2,0-0.2
	l0-0.1l0,0l0-0.1l0,0l0-0.1l0,0c0.2-1.4,0.7-2.7,1.7-3.8c1.1-1.3,2.7-2,4.8-2h0l0.1,0h0l0.1,0h0l0.1,0l0.2,0c0.5,0,1,0,1.4,0.1
	c1.5,0.3,2.5,1,3.4,2.1c0.1,0.1,0.1,0.2,0.2,0.2l-2.6,2.1c-0.1-0.1-0.1-0.1-0.2-0.2c-0.5-0.5-1-0.9-1.6-1.1h0l0,0
	c-0.1,0-0.3-0.1-0.4-0.1c-0.1,0-0.2,0-0.2,0l0,0l0,0h0l0,0h0l0,0h0l0,0h0h0l0,0l0,0l0,0h0h0l0,0l0,0h0l0,0l0,0l0,0h0l0,0l0,0h0h0
	l0,0l0,0l0,0h0l0,0h0c-0.1,0-0.3,0-0.4,0c-0.1,0-0.2,0-0.3,0.1l0,0l0,0l0,0h0l0,0l0,0l0,0h0l0,0h0l0,0l0,0l0,0h0l0,0h0l0,0l0,0l0,0
	l0,0l0,0l0,0l0,0l0,0l0,0c-0.6,0.2-1.1,0.5-1.6,1.1c-0.5,0.6-0.7,1.4-0.7,2.5s0.2,1.9,0.7,2.5c0.5,0.6,1,0.9,1.6,1.1l0,0l0,0l0,0
	l0,0l0,0l0,0l0,0l0,0l0,0h0l0,0h0l0,0l0,0l0,0h0l0,0h0l0,0l0,0l0,0h0l0,0h0l0,0h0l0,0h0c0.1,0,0.2,0.1,0.3,0.1c0.1,0,0.2,0,0.4,0h0
	l0,0h0h0h0h0h0h0h0h0h0h0l0,0h0h0h0h0h0h0h0h0h0h0h0h0l0,0l0,0l0,0h0l0,0h0h0l0,0h0l0,0h0l0,0h0l0,0h0h0h0l0,0h0h0h0l0,0h0
	c0.1,0,0.1,0,0.2,0c0.1,0,0.3-0.1,0.4-0.1l0,0h0c0.6-0.2,1.1-0.5,1.6-1.1c0.1-0.1,0.1-0.1,0.2-0.2l2.6,2.1c-0.1,0.1-0.1,0.2-0.2,0.2
	c-0.9,1.1-1.9,1.8-3.4,2.1c-0.5,0.1-0.9,0.1-1.4,0.1L53.1,95.4L53.1,95.4z"/>
<path class="st1" d="M25.6,73.9c1.9,0,3.4,1.5,3.4,3.4c0,1.9-1.5,3.4-3.4,3.4c-1.9,0-3.4-1.5-3.4-3.4C22.2,75.4,23.7,73.9,25.6,73.9
	L25.6,73.9z M34,73.9c1.9,0,3.4,1.5,3.4,3.4c0,1.9-1.5,3.4-3.4,3.4c-1.9,0-3.4-1.5-3.4-3.4C30.6,75.4,32.1,73.9,34,73.9L34,73.9z"/>
<path class="st1" d="M46.5,0L46.5,0c2.6,0,4.7,2.1,4.7,4.7v17.3c0,2.6-2.1,4.7-4.7,4.7l0,0c-2.6,0-4.7-2.1-4.7-4.7V4.7
	C41.8,2.1,43.9,0,46.5,0L46.5,0z"/>
<path class="st1" d="M11.3,25.5L11.3,25.5c0.8-2.4,3.4-3.8,5.9-3l16.4,5.3c2.4,0.8,3.8,3.4,3,5.9l0,0c-0.8,2.4-3.4,3.8-5.9,3
	l-16.4-5.3C11.9,30.6,10.5,28,11.3,25.5L11.3,25.5z"/>
<path class="st1" d="M24.8,66.8L24.8,66.8c-2.1-1.5-2.5-4.4-1-6.5l10.2-14c1.5-2.1,4.4-2.5,6.5-1l0,0c2.1,1.5,2.5,4.4,1,6.5
	l-10.2,14C29.7,67.9,26.8,68.3,24.8,66.8L24.8,66.8z"/>
<path class="st1" d="M68.2,66.8L68.2,66.8c-2.1,1.5-5,1-6.5-1l-10.2-14c-1.5-2.1-1-5,1-6.5l0,0c2.1-1.5,5-1,6.5,1l10.2,14
	C70.7,62.4,70.2,65.3,68.2,66.8L68.2,66.8z"/>
<path class="st1" d="M81.6,25.5L81.6,25.5c0.8,2.4-0.6,5.1-3,5.9l-16.4,5.3c-2.4,0.8-5.1-0.6-5.9-3l0,0c-0.8-2.4,0.6-5.1,3-5.9
	l16.4-5.3C78.2,21.7,80.8,23.1,81.6,25.5L81.6,25.5z"/>
</svg>
