<?xml version="1.0" encoding="utf-8"?>
<!-- Generator: Adobe Illustrator 21.0.0, SVG Export Plug-In . SVG Version: 6.00 Build 0)  -->
<svg fill="#dee0f6" version="1.1" id="_x2D_deT_1" xmlns="http://www.w3.org/2000/svg" xmlns:xlink="http://www.w3.org/1999/xlink" x="0px" y="0px"
	 viewBox="0 0 340.952 95.65" style="enable-background:new 0 0 340.952 95.65;" xml:space="preserve">
<style type="text/css">
	.st0{fill:#dee0f6;}
</style>
<path d="M117.347,53.223c-0.46,0-0.827,0.164-1.12,0.51c-0.294,0.328-0.441,0.784-0.441,1.367h3.104
	c-0.019-0.619-0.184-1.075-0.478-1.402C118.118,53.387,117.769,53.223,117.347,53.223z"/>
<path d="M133.177,53.332c-0.532,0-0.991,0.219-1.359,0.638c-0.367,0.418-0.551,1.02-0.551,1.822c0,0.783,0.184,1.403,0.551,1.822
	c0.367,0.42,0.826,0.621,1.359,0.621c0.551,0,0.992-0.201,1.359-0.621c0.368-0.419,0.551-1.038,0.551-1.841
	c0-0.783-0.184-1.384-0.551-1.803C134.169,53.551,133.728,53.332,133.177,53.332z"/>
<path d="M143.682,54.863c0.276-0.165,0.422-0.438,0.422-0.784c0-0.347-0.128-0.584-0.404-0.729
	c-0.257-0.128-0.735-0.201-1.414-0.201h-1.341v1.97h1.341C142.929,55.119,143.388,55.026,143.682,54.863z"/>
<path d="M183.244,26.738c0.414-0.173,0.741-0.39,1.025-0.671c0.262-0.303,0.458-0.628,0.589-1.017
	c0.131-0.39,0.196-0.801,0.196-1.235c0-0.476-0.065-0.886-0.217-1.276c-0.131-0.39-0.349-0.693-0.633-0.953
	c-0.284-0.238-0.655-0.434-1.091-0.585c-0.436-0.13-1.025-0.195-1.745-0.195h-2.4v6.192h2.64
	C182.305,26.998,182.829,26.911,183.244,26.738z"/>
<path d="M185.207,31.436c-0.349-0.282-0.786-0.52-1.331-0.672c-0.546-0.174-1.244-0.239-2.094-0.239h-2.815v6.756h3.425
	c0.655,0,1.2-0.065,1.659-0.195c0.436-0.151,0.829-0.369,1.156-0.628c0.327-0.281,0.589-0.627,0.786-1.039
	c0.174-0.411,0.283-0.866,0.283-1.407c0-0.541-0.109-1.04-0.283-1.472C185.818,32.107,185.557,31.739,185.207,31.436z"/>
<path d="M143.811,56.613c-0.312-0.146-0.9-0.219-1.8-0.219h-1.066v2.041h1.635c0.588,0,1.029-0.073,1.285-0.219
	c0.275-0.146,0.422-0.42,0.422-0.783C144.288,57.032,144.123,56.777,143.811,56.613z"/>
<path d="M187.189,56.631c-0.257,0.2-0.404,0.455-0.404,0.747c0,0.31,0.111,0.565,0.331,0.784c0.221,0.2,0.495,0.31,0.827,0.31
	c0.368,0,0.716-0.127,1.065-0.364c0.257-0.2,0.421-0.437,0.496-0.711c0.054-0.182,0.073-0.529,0.073-1.021v-0.437
	c-0.258,0.091-0.681,0.201-1.25,0.328C187.74,56.394,187.372,56.521,187.189,56.631z"/>
<path d="M93.184,21.087c-0.24-0.066-0.524-0.108-0.829-0.152c-0.306-0.044-0.72-0.044-1.266-0.044h-2.117v6.733h2.4
	c0.676,0,1.265-0.065,1.767-0.238c0.502-0.173,0.916-0.411,1.266-0.693c0.327-0.303,0.589-0.671,0.741-1.083
	c0.175-0.411,0.262-0.887,0.262-1.407c0-0.779-0.174-1.45-0.524-1.97C94.536,21.694,93.969,21.304,93.184,21.087z"/>
<path d="M30.296,53.277c-0.496,0-0.919,0.201-1.249,0.602c-0.331,0.4-0.496,0.984-0.496,1.767c0,0.911,0.166,1.568,0.514,2.005
	c0.349,0.419,0.772,0.638,1.267,0.638c0.496,0,0.881-0.2,1.212-0.583c0.313-0.401,0.478-1.056,0.478-1.95
	c0-0.838-0.165-1.458-0.496-1.859C31.196,53.478,30.792,53.277,30.296,53.277z"/>
<path d="M46.531,58.053h3.526l0.019-4.52H47.56C47.486,55.738,47.137,57.25,46.531,58.053z"/>
<path d="M39.332,53.332c-0.532,0-0.991,0.219-1.359,0.638c-0.367,0.418-0.551,1.02-0.551,1.822c0,0.783,0.184,1.403,0.551,1.822
	c0.368,0.42,0.827,0.621,1.359,0.621s0.991-0.201,1.359-0.621c0.367-0.419,0.551-1.038,0.551-1.841c0-0.783-0.184-1.384-0.551-1.803
	C40.323,53.551,39.864,53.332,39.332,53.332z"/>
<path d="M89.817,53.496c-0.533,0-0.955,0.201-1.322,0.638c-0.367,0.419-0.551,1.002-0.551,1.713c0,0.729,0.184,1.313,0.532,1.732
	c0.349,0.419,0.79,0.638,1.304,0.638c0.569,0,1.01-0.219,1.378-0.656c0.348-0.438,0.532-1.021,0.532-1.695
	c0-0.711-0.184-1.294-0.551-1.732C90.791,53.715,90.332,53.496,89.817,53.496z"/>
<path d="M75.584,56.631c-0.275,0.2-0.403,0.455-0.403,0.747c0,0.31,0.11,0.565,0.33,0.784c0.202,0.2,0.478,0.31,0.826,0.31
	c0.368,0,0.717-0.127,1.066-0.364c0.239-0.2,0.404-0.437,0.496-0.711c0.055-0.182,0.073-0.529,0.073-1.021v-0.437
	c-0.257,0.091-0.679,0.201-1.267,0.328C76.135,56.394,75.769,56.521,75.584,56.631z"/>
<path d="M56.301,56.631c-0.257,0.2-0.404,0.455-0.404,0.747c0,0.31,0.11,0.565,0.331,0.784c0.221,0.2,0.495,0.31,0.827,0.31
	c0.367,0,0.716-0.127,1.065-0.364c0.257-0.2,0.422-0.437,0.496-0.711c0.055-0.182,0.073-0.529,0.073-1.021v-0.437
	c-0.258,0.091-0.68,0.201-1.249,0.328C56.852,56.394,56.485,56.521,56.301,56.631z"/>
<path d="M155.877,53.332c-0.551,0-1.01,0.219-1.377,0.638c-0.368,0.418-0.551,1.02-0.551,1.822c0,0.783,0.184,1.403,0.551,1.822
	c0.367,0.42,0.826,0.621,1.377,0.621c0.532,0,0.992-0.201,1.359-0.621c0.367-0.419,0.551-1.038,0.551-1.841
	c0-0.783-0.184-1.384-0.551-1.803C156.868,53.551,156.409,53.332,155.877,53.332z"/>
<path d="M340.952,31.133V6.711c0-3.702-3.622-6.711-8.095-6.711h-21.685h-0.175h-8.116h-12.868h-22.089H8.116
	C3.621,0,0,3.009,0,6.711v24.401c2.269,1.45,3.753,3.875,3.753,6.624c0,2.729-1.484,5.153-3.753,6.604v21.801
	c0,3.725,3.621,6.712,8.116,6.712h114.909c0.066,0,0.11,0.022,0.175,0.022h8.291h127.054c-0.09-0.969,0.139-1.938,0.834-2.803
	c0.103-0.128,0.209-0.245,0.316-0.358l-6.683,0h-6.612H9.032c-3.513,0-6.371-3.247-6.371-7.231V46.938v-1.147l0.917-0.694
	c2.029-1.472,3.272-4.308,3.272-7.361c0-3.075-1.243-5.889-3.272-7.383l-0.917-0.693v-1.148V10.24c0-3.984,2.858-7.231,6.371-7.231
	h237.367h6.612h14.914h22.089h41.796c3.514,0,6.37,3.247,6.37,7.231v18.273v1.148l-0.937,0.693
	c-2.006,1.494-3.251,4.308-3.251,7.383c0,3.052,1.245,5.889,3.251,7.361l0.937,0.694v1.147v15.545c0,3.984-2.857,7.231-6.37,7.231
	h-30.526c0.177,0.802,0.305,1.574,0.354,2.308c0.021,0.272,0.023,0.562,0.025,0.854h31.194c4.473,0,8.095-3.009,8.095-6.711V44.34
	c-2.248-1.451-3.753-3.854-3.753-6.604C337.199,34.987,338.704,32.583,340.952,31.133z"/>
<polygon points="311.802,21.472 311.783,21.472 308.316,31.89 315.268,31.89 "/>
<path d="M261.846,62.765c-1.592,0-2.879-1.278-2.879-2.858c0-1.581,1.286-2.858,2.879-2.858c0.522,0,1.007,0.148,1.432,0.388
	l-0.559-1.598c-0.278,0.089-0.568,0.149-0.873,0.149c-1.592,0-2.879-1.299-2.879-2.88c0-1.325,0.909-2.426,2.139-2.751
	c0.016-0.489,0.114-1.005,0.316-1.513c-1.39-0.204-2.456-1.379-2.456-2.815c0-1.603,1.286-2.88,2.879-2.88
	c1.58,0,2.878,1.258,2.899,2.843c0.016-0.005,0.029-0.011,0.045-0.016c0.719-0.215,1.396-0.324,2.051-0.324
	c2.203,0,3.686,1.342,4.188,2.685l2.356,6.712l0.742-0.325c1.592-0.672,3.054-0.823,4.297-0.477
	c0.589,0.152,1.113,0.412,1.571,0.801l0.392,0.302l0.458-0.238c0.895-0.454,2.248-1.018,3.622-1.018
	c0.437,0,0.872,0.065,1.243,0.174c0.808,0.217,1.505,0.65,2.051,1.277L288.178,56l0.524-0.26c0.806-0.432,2.072-0.909,3.467-0.909
	c0.458,0,0.917,0.044,1.332,0.153c1.177,0.281,2.77,1.082,3.665,3.333l0.808,1.97c1.051,2.591,2.008,4.964,2.688,7.133h31.149
	c2.248,0,4.059-2.208,4.059-4.937V46.938c-2.509-1.841-4.188-5.261-4.188-9.202c0-3.94,1.679-7.361,4.188-9.223V10.24
	c0-2.727-1.811-4.936-4.059-4.936h-41.796h-22.089h-14.914h-6.612H9.032c-2.247,0-4.08,2.208-4.08,4.936v18.273
	c2.509,1.862,4.21,5.283,4.21,9.223c0,3.941-1.701,7.361-4.21,9.202v15.545c0,2.729,1.833,4.937,4.08,4.937h237.367h6.612h6.043
	c-0.066-0.239-0.087-0.476-0.087-0.714c0-1.581,1.286-2.88,2.879-2.88c1.593,0,2.903,1.299,2.903,2.88
	c0,0.238-0.045,0.475-0.11,0.714h2.13l-2.244-6.417C264.086,62.037,263.047,62.765,261.846,62.765z M301.08,39.411l7.56-21.749
	c0.077-0.213,0.162-0.388,0.265-0.524c0.103-0.129,0.265-0.233,0.485-0.304c0.22-0.065,0.524-0.11,0.918-0.13
	c0.388-0.019,0.912-0.032,1.552-0.032c0.743,0,1.339,0.013,1.785,0.032c0.44,0.02,0.783,0.065,1.028,0.13
	c0.246,0.071,0.427,0.175,0.53,0.317c0.11,0.136,0.2,0.323,0.278,0.569l7.579,21.729c0.149,0.453,0.246,0.815,0.285,1.08
	c0.033,0.265-0.013,0.466-0.155,0.595c-0.136,0.136-0.382,0.213-0.737,0.246c-0.356,0.033-0.841,0.052-1.462,0.052
	c-0.64,0-1.145-0.013-1.507-0.033c-0.356-0.019-0.634-0.058-0.821-0.11c-0.188-0.058-0.323-0.136-0.401-0.239
	c-0.071-0.104-0.136-0.233-0.187-0.401l-1.649-4.921h-9.209l-1.552,4.792c-0.052,0.175-0.117,0.323-0.2,0.446
	c-0.078,0.117-0.214,0.213-0.395,0.285c-0.181,0.065-0.446,0.116-0.776,0.142c-0.336,0.026-0.776,0.039-1.319,0.039
	c-0.582,0-1.035-0.019-1.365-0.058c-0.33-0.039-0.556-0.129-0.679-0.278c-0.129-0.142-0.175-0.349-0.136-0.615
	C300.834,40.207,300.931,39.851,301.08,39.411z M277.624,17.469c0-0.123,0.039-0.239,0.117-0.336
	c0.071-0.103,0.207-0.187,0.408-0.246c0.194-0.064,0.452-0.116,0.763-0.155c0.317-0.039,0.724-0.058,1.216-0.058
	c0.478,0,0.879,0.02,1.19,0.058c0.317,0.039,0.569,0.091,0.763,0.155c0.188,0.058,0.323,0.142,0.408,0.246
	c0.077,0.097,0.123,0.214,0.123,0.336v14.479c0,0.97,0.116,1.811,0.356,2.529c0.239,0.711,0.589,1.306,1.035,1.772
	c0.446,0.465,0.983,0.815,1.61,1.047c0.627,0.233,1.326,0.356,2.095,0.356c0.783,0,1.481-0.123,2.102-0.362
	c0.621-0.24,1.145-0.589,1.572-1.054c0.433-0.459,0.763-1.028,0.996-1.701c0.233-0.679,0.349-1.449,0.349-2.302V17.469
	c0-0.123,0.039-0.239,0.117-0.336c0.071-0.103,0.207-0.187,0.395-0.246c0.194-0.064,0.446-0.116,0.769-0.155
	c0.324-0.039,0.724-0.058,1.203-0.058c0.479,0,0.873,0.02,1.183,0.058c0.31,0.039,0.556,0.091,0.75,0.155
	c0.188,0.058,0.323,0.142,0.395,0.246c0.078,0.097,0.116,0.214,0.116,0.336v14.706c0,1.5-0.22,2.845-0.666,4.035
	c-0.44,1.183-1.093,2.192-1.946,3.013c-0.86,0.821-1.921,1.442-3.188,1.875c-1.261,0.427-2.716,0.64-4.352,0.64
	c-1.546,0-2.93-0.188-4.152-0.576c-1.229-0.388-2.263-0.97-3.111-1.752c-0.841-0.783-1.487-1.759-1.94-2.93
	c-0.446-1.164-0.673-2.535-0.673-4.1V17.469z M258.967,5.304h5.759c0,0.087,0.023,0.173,0.023,0.259c0,1.58-1.31,2.879-2.903,2.879
	c-1.592,0-2.879-1.299-2.879-2.879V5.304z M261.846,9.158c1.593,0,2.903,1.299,2.903,2.88c0,1.58-1.31,2.858-2.903,2.858
	c-1.592,0-2.879-1.278-2.879-2.858C258.967,10.457,260.253,9.158,261.846,9.158z M261.846,15.87c1.593,0,2.903,1.277,2.903,2.858
	c0,1.58-1.31,2.879-2.903,2.879c-1.592,0-2.879-1.299-2.879-2.879C258.967,17.146,260.253,15.87,261.846,15.87z M261.846,22.689
	c1.593,0,2.903,1.278,2.903,2.858c0,1.581-1.31,2.88-2.903,2.88c-1.592,0-2.879-1.299-2.879-2.88
	C258.967,23.967,260.253,22.689,261.846,22.689z M261.846,29.358c1.593,0,2.903,1.277,2.903,2.858c0,1.581-1.31,2.879-2.903,2.879
	c-1.592,0-2.879-1.299-2.879-2.879C258.967,30.635,260.253,29.358,261.846,29.358z M258.967,39.078c0-1.58,1.286-2.858,2.879-2.858
	c1.593,0,2.903,1.278,2.903,2.858c0,0.011-0.003,0.021-0.003,0.032c0,0.011,0.003,0.021,0.003,0.032c0,1.581-1.31,2.88-2.903,2.88
	c-1.592,0-2.879-1.299-2.879-2.88c0-0.011,0.003-0.021,0.003-0.032C258.97,39.1,258.967,39.09,258.967,39.078z M194.087,17.84
	c0-0.109,0.042-0.217,0.108-0.325c0.088-0.086,0.219-0.173,0.393-0.238c0.196-0.065,0.437-0.109,0.742-0.152
	c0.284-0.022,0.676-0.043,1.113-0.043c0.48,0,0.85,0.021,1.156,0.043c0.305,0.043,0.545,0.087,0.72,0.152
	c0.174,0.065,0.305,0.152,0.393,0.238c0.065,0.109,0.108,0.217,0.108,0.325v22.473c0,0.13-0.043,0.238-0.108,0.346
	c-0.089,0.088-0.219,0.173-0.393,0.238c-0.175,0.065-0.415,0.109-0.72,0.152c-0.305,0.022-0.676,0.043-1.156,0.043
	c-0.437,0-0.829-0.021-1.135-0.043c-0.305-0.043-0.545-0.087-0.72-0.152c-0.174-0.065-0.305-0.151-0.393-0.238
	c-0.066-0.108-0.108-0.216-0.108-0.346V17.84z M199.567,48.54c-0.056,0.674-0.294,1.22-0.699,1.603
	c-0.404,0.401-0.937,0.583-1.598,0.583c-0.642,0-1.174-0.182-1.597-0.583c-0.403-0.382-0.643-0.929-0.697-1.603h1.01
	c0.038,0.364,0.166,0.619,0.368,0.801c0.219,0.201,0.514,0.291,0.917,0.291c0.404,0,0.716-0.091,0.919-0.291
	c0.219-0.182,0.348-0.437,0.367-0.801H199.567z M126.04,18.706c0-0.542,0.131-0.931,0.392-1.17c0.284-0.238,0.612-0.346,1.004-0.346
	h11.606c0.109,0,0.197,0.022,0.284,0.087c0.088,0.065,0.153,0.173,0.218,0.325c0.066,0.151,0.11,0.347,0.131,0.585
	c0.044,0.237,0.044,0.541,0.044,0.909c0,0.346,0,0.628-0.044,0.866c-0.021,0.26-0.065,0.432-0.131,0.584
	c-0.065,0.152-0.13,0.26-0.218,0.325c-0.087,0.065-0.174,0.109-0.284,0.109h-8.291v5.801h7.026c0.109,0,0.196,0.044,0.284,0.109
	c0.087,0.065,0.174,0.174,0.218,0.303c0.065,0.152,0.109,0.346,0.153,0.585c0.022,0.239,0.044,0.519,0.044,0.865
	c0,0.347-0.022,0.65-0.044,0.888c-0.044,0.238-0.087,0.411-0.153,0.563c-0.044,0.13-0.131,0.238-0.218,0.303
	c-0.087,0.065-0.175,0.087-0.284,0.087h-7.026v6.712h8.356c0.109,0,0.218,0.043,0.306,0.108c0.087,0.065,0.174,0.174,0.218,0.324
	c0.066,0.13,0.108,0.325,0.131,0.563c0.044,0.238,0.044,0.542,0.044,0.91c0,0.346,0,0.649-0.044,0.888
	c-0.022,0.238-0.065,0.433-0.131,0.585c-0.044,0.13-0.131,0.238-0.218,0.303c-0.088,0.086-0.197,0.108-0.306,0.108h-11.672
	c-0.392,0-0.72-0.108-1.004-0.346c-0.261-0.26-0.392-0.65-0.392-1.169V18.706z M47.368,18.229c0.022-0.259,0.087-0.454,0.131-0.606
	c0.065-0.152,0.131-0.26,0.217-0.346c0.088-0.065,0.197-0.087,0.305-0.087h16.385c0.109,0,0.218,0.022,0.306,0.087
	c0.087,0.087,0.152,0.195,0.218,0.346c0.065,0.152,0.109,0.346,0.13,0.606c0.044,0.26,0.044,0.585,0.044,0.953
	c0,0.346,0,0.65-0.044,0.909c-0.022,0.238-0.066,0.454-0.13,0.606c-0.066,0.151-0.131,0.26-0.218,0.324
	c-0.088,0.087-0.196,0.108-0.306,0.108h-5.826v19.183c0,0.13-0.021,0.238-0.109,0.346c-0.088,0.088-0.196,0.173-0.393,0.238
	c-0.174,0.065-0.414,0.109-0.719,0.152c-0.306,0.022-0.676,0.043-1.134,0.043c-0.458,0-0.852-0.021-1.156-0.043
	c-0.306-0.043-0.546-0.087-0.72-0.152c-0.174-0.065-0.306-0.151-0.393-0.238c-0.065-0.108-0.109-0.216-0.109-0.346V21.13h-5.826
	c-0.109,0-0.218-0.021-0.305-0.108c-0.087-0.064-0.153-0.173-0.217-0.324c-0.044-0.152-0.109-0.368-0.131-0.606
	c-0.022-0.259-0.044-0.563-0.044-0.909C47.324,18.814,47.346,18.489,47.368,18.229z M17.064,40.313V17.84
	c0-0.109,0.043-0.217,0.109-0.325c0.088-0.086,0.218-0.173,0.393-0.238c0.197-0.065,0.437-0.109,0.742-0.152
	c0.284-0.022,0.676-0.043,1.135-0.043c0.458,0,0.851,0.021,1.134,0.043c0.306,0.043,0.546,0.087,0.72,0.152
	c0.175,0.065,0.306,0.152,0.393,0.238c0.065,0.109,0.109,0.217,0.109,0.325v22.473c0,0.13-0.044,0.238-0.109,0.346
	c-0.088,0.088-0.218,0.173-0.393,0.238c-0.174,0.065-0.414,0.109-0.72,0.152c-0.283,0.022-0.676,0.043-1.134,0.043
	c-0.458,0-0.851-0.021-1.156-0.043c-0.305-0.043-0.545-0.087-0.72-0.152c-0.174-0.065-0.305-0.151-0.393-0.238
	C17.107,40.551,17.064,40.443,17.064,40.313z M24.309,59.783h-2.075v-6.287h-2.81v6.287h-2.075v-8h6.96V59.783z M33.18,58.854
	c-0.643,0.747-1.413,1.112-2.332,1.112c-0.422,0-0.826-0.091-1.175-0.256c-0.349-0.182-0.717-0.474-1.102-0.91v4.027h-2.075V51.783
	h1.928v1.184c0.257-0.4,0.588-0.729,1.01-0.984c0.441-0.255,0.918-0.382,1.432-0.382c0.901,0,1.672,0.364,2.314,1.093
	c0.624,0.728,0.955,1.749,0.955,3.043C34.134,57.085,33.803,58.125,33.18,58.854z M42.234,58.781
	c-0.772,0.784-1.726,1.185-2.902,1.185c-0.716,0-1.395-0.164-2.038-0.492c-0.661-0.329-1.157-0.821-1.488-1.458
	c-0.349-0.638-0.514-1.422-0.514-2.352c0-0.692,0.165-1.367,0.514-2.042c0.331-0.656,0.808-1.148,1.432-1.494
	c0.625-0.346,1.322-0.528,2.094-0.528c1.176,0,2.148,0.4,2.902,1.184c0.753,0.784,1.138,1.787,1.138,2.988
	C43.372,56.977,42.987,57.98,42.234,58.781z M41.456,41.027c-0.415,0-0.764-0.043-1.07-0.13c-0.305-0.086-0.589-0.238-0.851-0.476
	c-0.262-0.216-0.502-0.542-0.742-0.909c-0.24-0.389-0.524-0.887-0.807-1.516l-5.804-11.128c-0.327-0.65-0.676-1.364-1.003-2.122
	c-0.35-0.779-0.677-1.516-0.939-2.252h-0.043c0.043,0.888,0.087,1.775,0.109,2.641c0.022,0.888,0.044,1.798,0.044,2.728v12.45
	c0,0.108-0.044,0.216-0.109,0.325c-0.065,0.086-0.174,0.174-0.327,0.238c-0.174,0.086-0.393,0.13-0.676,0.173
	c-0.262,0.022-0.612,0.043-1.048,0.043c-0.414,0-0.763-0.021-1.047-0.043c-0.284-0.043-0.48-0.087-0.633-0.173
	c-0.174-0.065-0.284-0.152-0.327-0.238c-0.066-0.109-0.087-0.217-0.087-0.325V18.923c0-0.585,0.153-1.018,0.479-1.299
	c0.328-0.303,0.742-0.433,1.222-0.433h2.531c0.458,0,0.829,0.043,1.156,0.108c0.306,0.087,0.589,0.217,0.83,0.412
	c0.239,0.173,0.479,0.433,0.697,0.758c0.197,0.324,0.437,0.714,0.655,1.191l4.538,8.703c0.262,0.541,0.524,1.061,0.763,1.559
	c0.262,0.52,0.524,1.018,0.764,1.538c0.24,0.498,0.458,0.995,0.698,1.493c0.218,0.476,0.436,0.974,0.654,1.472h0.022
	c-0.043-0.866-0.065-1.753-0.088-2.685c-0.021-0.93-0.021-1.818-0.021-2.663V17.905c0-0.13,0.043-0.238,0.109-0.325
	c0.066-0.108,0.196-0.194,0.349-0.259c0.174-0.087,0.393-0.13,0.676-0.173c0.284-0.022,0.632-0.044,1.047-0.044
	c0.414,0,0.764,0.022,1.026,0.044c0.283,0.043,0.502,0.086,0.654,0.173c0.152,0.065,0.24,0.151,0.306,0.259
	c0.065,0.087,0.087,0.196,0.087,0.325v21.391c0,0.281-0.044,0.542-0.13,0.758c-0.11,0.217-0.24,0.39-0.393,0.541
	c-0.175,0.152-0.349,0.259-0.59,0.324c-0.218,0.066-0.436,0.109-0.654,0.109H41.456z M52.959,61.898h-1.69v-2.115h-5.932v2.115
	h-1.69v-3.845h0.863c0.349-0.402,0.643-1.021,0.863-1.878c0.239-0.857,0.386-2.315,0.423-4.392h6.317v6.27h0.845V61.898z
	 M59.13,59.783c-0.055-0.128-0.129-0.346-0.202-0.619c-0.037-0.128-0.056-0.2-0.073-0.255c-0.349,0.364-0.734,0.619-1.139,0.801
	c-0.403,0.165-0.826,0.256-1.285,0.256c-0.808,0-1.432-0.219-1.909-0.675c-0.46-0.437-0.698-1.002-0.698-1.694
	c0-0.438,0.11-0.857,0.33-1.203c0.202-0.346,0.496-0.621,0.882-0.819c0.385-0.183,0.937-0.347,1.653-0.492
	c0.956-0.183,1.635-0.347,2.002-0.51v-0.219c0-0.401-0.092-0.693-0.294-0.875c-0.203-0.164-0.569-0.255-1.102-0.255
	c-0.386,0-0.661,0.073-0.863,0.219c-0.22,0.146-0.385,0.418-0.514,0.784l-1.873-0.346c0.22-0.766,0.569-1.349,1.083-1.713
	c0.533-0.365,1.286-0.564,2.314-0.564c0.919,0,1.598,0.109,2.057,0.346c0.46,0.219,0.772,0.51,0.955,0.838
	c0.183,0.347,0.275,0.984,0.275,1.896l-0.018,2.478c0,0.711,0.036,1.221,0.092,1.549c0.073,0.347,0.202,0.693,0.385,1.075H59.13z
	 M70.167,59.783l-0.973-2.314c-0.184-0.4-0.331-0.692-0.496-0.838c-0.147-0.146-0.349-0.237-0.625-0.255v3.408h-2.057v-3.408
	c-0.275,0.019-0.459,0.091-0.569,0.182c-0.11,0.11-0.294,0.402-0.551,0.911l-0.991,2.314h-2.222l1.102-2.205
	c0.55-1.094,1.138-1.732,1.744-1.895c-0.459-0.182-0.79-0.638-1.028-1.367c-0.184-0.547-0.349-0.874-0.514-0.983
	c-0.147-0.11-0.496-0.165-1.047-0.165v-1.403c0.404-0.018,0.698-0.036,0.863-0.036c0.459,0,0.845,0.109,1.176,0.31
	c0.312,0.219,0.624,0.73,0.9,1.55c0.22,0.637,0.404,1.038,0.532,1.202c0.128,0.163,0.331,0.255,0.606,0.273v-3.281h2.057v3.281
	c0.257,0,0.459-0.091,0.588-0.273c0.147-0.183,0.312-0.583,0.533-1.202c0.275-0.82,0.588-1.332,0.9-1.531
	c0.312-0.22,0.716-0.329,1.212-0.329c0.147,0,0.423,0.019,0.826,0.036v1.403c-0.532,0-0.881,0.056-1.047,0.165
	c-0.146,0.109-0.312,0.437-0.495,0.983c-0.238,0.729-0.587,1.185-1.047,1.367c0.606,0.163,1.194,0.801,1.745,1.895l1.119,2.205
	H70.167z M78.413,59.783c-0.055-0.128-0.128-0.346-0.203-0.619c-0.037-0.128-0.055-0.2-0.073-0.255
	c-0.349,0.364-0.735,0.619-1.139,0.801c-0.404,0.165-0.826,0.256-1.285,0.256c-0.808,0-1.451-0.219-1.91-0.675
	c-0.459-0.437-0.698-1.002-0.698-1.694c0-0.438,0.11-0.857,0.312-1.203c0.221-0.346,0.515-0.621,0.901-0.819
	c0.367-0.183,0.918-0.347,1.653-0.492c0.955-0.183,1.634-0.347,2.002-0.51v-0.219c0-0.401-0.091-0.693-0.294-0.875
	c-0.202-0.164-0.569-0.255-1.12-0.255c-0.367,0-0.643,0.073-0.863,0.219c-0.202,0.146-0.367,0.418-0.496,0.784l-1.873-0.346
	c0.203-0.766,0.569-1.349,1.083-1.713c0.515-0.365,1.286-0.564,2.296-0.564c0.937,0,1.616,0.109,2.076,0.346
	c0.441,0.219,0.771,0.51,0.955,0.838c0.184,0.347,0.276,0.984,0.276,1.896l-0.019,2.478c0,0.711,0.019,1.221,0.092,1.549
	c0.073,0.347,0.183,0.693,0.367,1.075H78.413z M80.857,39.988c-0.022,0.238-0.066,0.433-0.131,0.585
	c-0.066,0.13-0.131,0.238-0.218,0.303c-0.087,0.086-0.196,0.108-0.306,0.108H68.53c-0.393,0-0.72-0.108-1.004-0.346
	c-0.261-0.26-0.392-0.65-0.392-1.169V18.706c0-0.542,0.131-0.931,0.392-1.17c0.284-0.238,0.611-0.346,1.004-0.346h11.607
	c0.109,0,0.196,0.022,0.283,0.087c0.087,0.065,0.153,0.173,0.218,0.325c0.066,0.151,0.109,0.347,0.132,0.585
	c0.044,0.237,0.044,0.541,0.044,0.909c0,0.346,0,0.628-0.044,0.866c-0.022,0.26-0.066,0.432-0.132,0.584
	c-0.065,0.152-0.131,0.26-0.218,0.325c-0.087,0.065-0.175,0.109-0.283,0.109h-8.29v5.801h7.024c0.11,0,0.197,0.044,0.284,0.109
	c0.088,0.065,0.174,0.174,0.24,0.303c0.044,0.152,0.086,0.346,0.13,0.585c0.022,0.239,0.044,0.519,0.044,0.865
	c0,0.347-0.022,0.65-0.044,0.888c-0.044,0.238-0.087,0.411-0.13,0.563c-0.066,0.13-0.152,0.238-0.24,0.303
	c-0.087,0.065-0.174,0.087-0.284,0.087h-7.024v6.712h8.355c0.109,0,0.218,0.043,0.306,0.108c0.087,0.065,0.152,0.174,0.218,0.324
	c0.065,0.13,0.109,0.325,0.131,0.563c0.043,0.238,0.065,0.542,0.065,0.91C80.922,39.447,80.9,39.75,80.857,39.988z M92.719,58.764
	c-0.753,0.801-1.726,1.203-2.939,1.203c-0.827,0-1.56-0.2-2.185-0.601c-0.625-0.419-1.084-0.966-1.359-1.677
	c-0.257-0.711-0.404-1.878-0.404-3.499c0-1.932,0.348-3.299,1.047-4.137c0.679-0.838,1.892-1.257,3.599-1.257h1.047
	c0.294,0,0.496-0.109,0.587-0.31h1.414c-0.055,0.638-0.201,1.13-0.495,1.458c-0.275,0.328-0.973,0.492-2.094,0.492
	c-0.128,0-0.257,0-0.385-0.018h-0.276c-0.661,0-1.193,0.073-1.598,0.237c-0.423,0.145-0.753,0.419-1.01,0.856
	c-0.276,0.42-0.404,1.113-0.423,2.059c0.313-0.582,0.698-1.02,1.194-1.312c0.478-0.291,1.047-0.437,1.726-0.437
	c1.029,0,1.892,0.401,2.608,1.221c0.716,0.82,1.065,1.768,1.065,2.844C93.839,56.995,93.472,57.961,92.719,58.764z M93.598,33.363
	c-0.24-0.455-0.502-0.844-0.807-1.169c-0.284-0.302-0.633-0.541-1.004-0.693c-0.392-0.173-0.829-0.238-1.331-0.238h-1.484v9.05
	c0,0.13-0.044,0.238-0.109,0.346c-0.088,0.088-0.219,0.173-0.393,0.238c-0.174,0.065-0.414,0.109-0.72,0.152
	c-0.305,0.022-0.676,0.043-1.156,0.043c-0.436,0-0.829-0.021-1.134-0.043c-0.305-0.043-0.545-0.087-0.719-0.152
	c-0.175-0.065-0.306-0.151-0.371-0.238c-0.088-0.108-0.109-0.216-0.109-0.346V18.706c0-0.542,0.131-0.931,0.393-1.17
	c0.262-0.238,0.611-0.346,1.004-0.346h6.021c0.611,0,1.113,0,1.506,0.022c0.392,0.043,0.742,0.065,1.069,0.108
	c0.938,0.13,1.789,0.368,2.531,0.693c0.742,0.325,1.374,0.758,1.898,1.299c0.524,0.541,0.917,1.169,1.2,1.884
	c0.283,0.735,0.414,1.58,0.414,2.51c0,0.801-0.109,1.538-0.306,2.188c-0.196,0.649-0.48,1.234-0.872,1.753
	c-0.37,0.519-0.851,0.974-1.418,1.343c-0.545,0.389-1.2,0.692-1.92,0.93c0.349,0.173,0.677,0.368,0.982,0.628
	c0.306,0.238,0.589,0.541,0.873,0.888c0.261,0.346,0.523,0.736,0.763,1.191c0.24,0.454,0.458,0.952,0.698,1.515l1.964,4.698
	c0.174,0.455,0.283,0.801,0.349,1.018c0.065,0.216,0.087,0.389,0.087,0.498c0,0.13-0.022,0.26-0.065,0.346
	c-0.044,0.086-0.174,0.173-0.349,0.216c-0.174,0.066-0.436,0.109-0.786,0.152c-0.349,0.021-0.829,0.021-1.418,0.021
	c-0.502,0-0.916,0-1.2-0.021c-0.305-0.044-0.545-0.087-0.72-0.152c-0.174-0.065-0.283-0.151-0.371-0.26
	c-0.065-0.108-0.13-0.216-0.174-0.367l-2.073-5.326C94.078,34.381,93.838,33.84,93.598,33.363z M102.728,59.783h-2.002v-5.102
	l-3.232,5.102h-1.983v-8h1.983v5.031l3.195-5.031h2.039V59.783z M112.333,59.783h-2.057v-6.268h-2.828v3.59
	c0,0.912-0.093,1.549-0.313,1.914c-0.202,0.382-0.422,0.619-0.68,0.728c-0.256,0.109-0.661,0.182-1.212,0.182
	c-0.331,0-0.753-0.054-1.304-0.146v-1.548h0.349c0.221,0.017,0.385,0.036,0.496,0.036c0.276,0,0.46-0.091,0.514-0.291
	c0.073-0.183,0.11-0.711,0.11-1.568v-4.629h6.924V59.783z M116.245,57.87c0.331,0.346,0.735,0.51,1.194,0.51
	c0.331,0,0.606-0.091,0.826-0.255c0.22-0.182,0.386-0.474,0.495-0.875l2.076,0.347c-0.275,0.765-0.698,1.367-1.267,1.768
	c-0.569,0.401-1.285,0.601-2.148,0.601c-1.359,0-2.37-0.455-3.011-1.367c-0.515-0.729-0.791-1.64-0.791-2.753
	c0-1.33,0.349-2.369,1.029-3.116c0.68-0.747,1.524-1.13,2.571-1.13c1.157,0,2.076,0.4,2.755,1.184
	c0.68,0.784,0.991,1.987,0.973,3.609h-5.198C115.767,57.032,115.932,57.524,116.245,57.87z M119.211,41.027
	c-0.415,0-0.786-0.043-1.091-0.13c-0.306-0.086-0.59-0.238-0.829-0.476c-0.262-0.216-0.524-0.542-0.763-0.909
	c-0.241-0.389-0.503-0.887-0.808-1.516l-5.782-11.128c-0.328-0.65-0.676-1.364-1.026-2.122c-0.349-0.779-0.655-1.516-0.938-2.252
	h-0.022c0.043,0.888,0.087,1.775,0.109,2.641c0.022,0.888,0.022,1.798,0.022,2.728v12.45c0,0.108-0.022,0.216-0.088,0.325
	c-0.065,0.086-0.196,0.174-0.349,0.238c-0.152,0.086-0.37,0.13-0.655,0.173c-0.284,0.022-0.632,0.043-1.047,0.043
	c-0.436,0-0.785-0.021-1.047-0.043c-0.284-0.043-0.502-0.087-0.654-0.173c-0.153-0.065-0.262-0.152-0.327-0.238
	c-0.065-0.109-0.087-0.217-0.087-0.325V18.923c0-0.585,0.175-1.018,0.501-1.299c0.327-0.303,0.72-0.433,1.2-0.433h2.531
	c0.458,0,0.851,0.043,1.156,0.108c0.306,0.087,0.589,0.217,0.829,0.412c0.262,0.173,0.481,0.433,0.699,0.758
	c0.218,0.324,0.436,0.714,0.676,1.191l4.516,8.703c0.262,0.541,0.524,1.061,0.786,1.559c0.261,0.52,0.502,1.018,0.741,1.538
	c0.24,0.498,0.48,0.995,0.699,1.493c0.24,0.476,0.458,0.974,0.677,1.472h0.021c-0.044-0.866-0.065-1.753-0.087-2.685
	c-0.022-0.93-0.022-1.818-0.022-2.663V17.905c0-0.13,0.022-0.238,0.108-0.325c0.066-0.108,0.175-0.194,0.35-0.259
	c0.175-0.087,0.393-0.13,0.676-0.173c0.262-0.022,0.611-0.044,1.047-0.044c0.415,0,0.742,0.022,1.026,0.044
	c0.284,0.043,0.48,0.086,0.632,0.173c0.153,0.065,0.262,0.151,0.328,0.259c0.043,0.087,0.087,0.196,0.087,0.325v21.391
	c0,0.281-0.044,0.542-0.153,0.758c-0.087,0.217-0.218,0.39-0.393,0.541c-0.153,0.152-0.35,0.259-0.568,0.324
	c-0.218,0.066-0.436,0.109-0.676,0.109H119.211z M128.586,53.496h-2.515v6.287h-2.057v-6.287h-2.517v-1.713h7.089V53.496z
	 M136.079,58.781c-0.771,0.784-1.726,1.185-2.883,1.185c-0.734,0-1.414-0.164-2.056-0.492c-0.661-0.329-1.157-0.821-1.488-1.458
	c-0.331-0.638-0.514-1.422-0.514-2.352c0-0.692,0.184-1.367,0.514-2.042c0.331-0.656,0.826-1.148,1.432-1.494
	c0.625-0.346,1.322-0.528,2.094-0.528c1.175,0,2.149,0.4,2.901,1.184c0.754,0.784,1.139,1.787,1.139,2.988
	C137.218,56.977,136.832,57.98,136.079,58.781z M145.776,59.2c-0.44,0.401-1.102,0.583-1.984,0.583h-4.94v-8h4.536
	c0.938,0,1.635,0.182,2.094,0.529c0.459,0.346,0.698,0.855,0.698,1.567c0,0.437-0.128,0.839-0.385,1.166
	c-0.257,0.328-0.569,0.547-0.955,0.656c0.533,0.145,0.937,0.382,1.212,0.765c0.257,0.364,0.385,0.783,0.385,1.221
	C146.437,58.308,146.216,58.817,145.776,59.2z M150.627,41.092c-0.436,0-0.829-0.021-1.134-0.043
	c-0.306-0.043-0.546-0.087-0.72-0.152c-0.174-0.065-0.305-0.151-0.393-0.238c-0.066-0.108-0.109-0.216-0.109-0.346V21.13h-5.826
	c-0.131,0-0.218-0.021-0.306-0.108c-0.088-0.064-0.152-0.173-0.218-0.324c-0.065-0.152-0.109-0.368-0.13-0.606
	c-0.044-0.259-0.044-0.563-0.044-0.909c0-0.368,0-0.693,0.044-0.953c0.021-0.259,0.066-0.454,0.13-0.606
	c0.066-0.152,0.131-0.26,0.218-0.346c0.088-0.065,0.174-0.087,0.306-0.087h16.384c0.109,0,0.197,0.022,0.306,0.087
	c0.088,0.087,0.153,0.195,0.218,0.346c0.066,0.152,0.109,0.346,0.131,0.606c0.022,0.26,0.044,0.585,0.044,0.953
	c0,0.346-0.022,0.65-0.044,0.909c-0.022,0.238-0.065,0.454-0.131,0.606c-0.066,0.151-0.13,0.26-0.218,0.324
	c-0.108,0.087-0.196,0.108-0.306,0.108h-5.825v19.183c0,0.13-0.044,0.238-0.109,0.346c-0.087,0.088-0.218,0.173-0.393,0.238
	c-0.174,0.065-0.414,0.109-0.72,0.152C151.478,41.071,151.085,41.092,150.627,41.092z M158.76,58.781
	c-0.753,0.784-1.726,1.185-2.883,1.185c-0.716,0-1.396-0.164-2.057-0.492c-0.643-0.329-1.138-0.821-1.488-1.458
	c-0.331-0.638-0.496-1.422-0.496-2.352c0-0.692,0.165-1.367,0.496-2.042c0.35-0.656,0.827-1.148,1.451-1.494
	c0.625-0.346,1.322-0.528,2.075-0.528c1.195,0,2.167,0.4,2.921,1.184c0.752,0.784,1.138,1.787,1.138,2.988
	C159.917,56.977,159.531,57.98,158.76,58.781z M168.566,59.783h-2.094V56.43h-2.956v3.353h-2.076v-8h2.076v2.935h2.956v-2.935h2.094
	V59.783z M170.023,31.046h-8.966c-0.11,0-0.218-0.043-0.306-0.129c-0.109-0.065-0.174-0.217-0.24-0.39
	c-0.065-0.194-0.109-0.454-0.13-0.757c-0.044-0.325-0.066-0.737-0.066-1.234c0-0.477,0.022-0.867,0.066-1.191
	c0.022-0.325,0.065-0.585,0.13-0.779c0.066-0.194,0.132-0.324,0.24-0.411c0.088-0.065,0.196-0.109,0.306-0.109h8.966
	c0.109,0,0.218,0.044,0.306,0.109c0.109,0.087,0.175,0.238,0.24,0.432c0.043,0.195,0.087,0.455,0.131,0.758
	c0.044,0.324,0.044,0.714,0.044,1.191c0,0.498,0,0.909-0.044,1.234c-0.044,0.303-0.088,0.562-0.131,0.757
	c-0.066,0.174-0.132,0.325-0.24,0.39C170.241,31.003,170.132,31.046,170.023,31.046z M174.48,56.85h-4.076v-2.132h4.076V56.85z
	 M183.166,59.783h-2.056v-6.268h-2.828v3.59c0,0.912-0.111,1.549-0.313,1.914c-0.202,0.382-0.441,0.619-0.68,0.728
	c-0.256,0.109-0.66,0.182-1.212,0.182c-0.33,0-0.771-0.054-1.303-0.146v-1.548h0.348c0.222,0.017,0.387,0.036,0.496,0.036
	c0.277,0,0.459-0.091,0.515-0.291c0.073-0.183,0.092-0.711,0.092-1.568v-4.629h6.941V59.783z M181.913,40.984h-6.174
	c-0.392,0-0.72-0.108-1.004-0.346c-0.261-0.26-0.392-0.65-0.392-1.169V18.706c0-0.542,0.131-0.931,0.392-1.17
	c0.284-0.238,0.611-0.346,1.004-0.346h5.847c1.418,0,2.618,0.108,3.6,0.368c1.004,0.238,1.833,0.606,2.509,1.104
	c0.676,0.498,1.2,1.126,1.549,1.884c0.371,0.758,0.546,1.667,0.546,2.685c0,0.584-0.065,1.126-0.218,1.625
	c-0.152,0.519-0.349,0.974-0.632,1.406c-0.262,0.412-0.611,0.779-1.004,1.104c-0.414,0.303-0.872,0.563-1.374,0.758
	c0.654,0.13,1.265,0.346,1.811,0.649c0.568,0.303,1.048,0.694,1.462,1.192c0.414,0.476,0.742,1.039,0.982,1.689
	c0.24,0.649,0.348,1.385,0.348,2.187c0,0.866-0.108,1.624-0.327,2.317c-0.24,0.671-0.545,1.277-0.96,1.818
	c-0.393,0.52-0.873,0.974-1.418,1.364c-0.568,0.369-1.178,0.693-1.854,0.931c-0.676,0.238-1.375,0.433-2.138,0.542
	C183.701,40.918,182.851,40.984,181.913,40.984z M190.017,59.783c-0.055-0.128-0.128-0.346-0.203-0.619
	c-0.036-0.128-0.054-0.2-0.073-0.255c-0.349,0.364-0.734,0.619-1.139,0.801c-0.404,0.165-0.825,0.256-1.285,0.256
	c-0.807,0-1.432-0.219-1.91-0.675c-0.459-0.437-0.697-1.002-0.697-1.694c0-0.438,0.109-0.857,0.33-1.203
	c0.203-0.346,0.495-0.621,0.881-0.819c0.386-0.183,0.937-0.347,1.653-0.492c0.955-0.183,1.635-0.347,2.003-0.51v-0.219
	c0-0.401-0.093-0.693-0.295-0.875c-0.202-0.164-0.569-0.255-1.102-0.255c-0.385,0-0.661,0.073-0.864,0.219
	c-0.22,0.146-0.385,0.418-0.515,0.784l-1.873-0.346c0.22-0.766,0.569-1.349,1.084-1.713c0.532-0.365,1.285-0.564,2.313-0.564
	c0.919,0,1.598,0.109,2.057,0.346c0.461,0.219,0.771,0.51,0.956,0.838c0.184,0.347,0.276,0.984,0.276,1.896l-0.019,2.478
	c0,0.711,0.036,1.221,0.092,1.549c0.073,0.347,0.201,0.693,0.385,1.075H190.017z M200.817,59.783h-2.003v-5.102l-3.213,5.102h-2.002
	v-8h2.002v5.031l3.177-5.031h2.039V59.783z M209.962,59.783h-2.076V56.43h-2.957v3.353h-2.074v-8h2.074v2.935h2.957v-2.935h2.076
	V59.783z M215.227,39.902c-0.022,0.238-0.087,0.454-0.13,0.606c-0.066,0.174-0.131,0.303-0.242,0.368
	c-0.087,0.065-0.196,0.108-0.305,0.108h-10.647c-0.392,0-0.742-0.108-1.003-0.346c-0.262-0.26-0.392-0.65-0.392-1.169V17.84
	c0-0.109,0.022-0.217,0.109-0.325c0.066-0.086,0.197-0.173,0.393-0.238c0.175-0.065,0.415-0.109,0.721-0.152
	c0.305-0.022,0.677-0.043,1.135-0.043c0.479,0,0.85,0.021,1.155,0.043c0.306,0.043,0.546,0.087,0.721,0.152
	c0.174,0.065,0.306,0.152,0.393,0.238c0.065,0.109,0.109,0.217,0.109,0.325v19.161h7.309c0.131,0,0.218,0.021,0.305,0.086
	c0.11,0.086,0.176,0.195,0.242,0.346c0.042,0.153,0.108,0.347,0.13,0.607c0.023,0.238,0.044,0.563,0.044,0.93
	C215.271,39.338,215.25,39.642,215.227,39.902z M231.503,39.988c-0.023,0.238-0.066,0.433-0.132,0.585
	c-0.044,0.13-0.131,0.238-0.218,0.303c-0.087,0.086-0.195,0.108-0.306,0.108h-11.672c-0.393,0-0.719-0.108-1.004-0.346
	c-0.261-0.26-0.393-0.65-0.393-1.169V18.706c0-0.542,0.132-0.931,0.393-1.17c0.285-0.238,0.612-0.346,1.004-0.346h11.606
	c0.11,0,0.197,0.022,0.285,0.087c0.087,0.065,0.153,0.173,0.218,0.325c0.066,0.151,0.108,0.347,0.132,0.585
	c0.042,0.237,0.042,0.541,0.042,0.909c0,0.346,0,0.628-0.042,0.888c-0.024,0.238-0.066,0.41-0.132,0.562
	c-0.065,0.152-0.131,0.26-0.218,0.325c-0.088,0.065-0.175,0.109-0.285,0.109h-8.29v5.801h7.025c0.109,0,0.195,0.044,0.282,0.109
	c0.089,0.065,0.176,0.174,0.242,0.303c0.043,0.152,0.087,0.346,0.13,0.585c0.023,0.239,0.044,0.519,0.044,0.865
	c0,0.347-0.022,0.65-0.044,0.888c-0.043,0.238-0.087,0.411-0.13,0.563c-0.066,0.13-0.153,0.238-0.242,0.303
	c-0.087,0.065-0.174,0.087-0.282,0.087h-7.025v6.712h8.355c0.111,0,0.219,0.043,0.306,0.108c0.087,0.065,0.174,0.174,0.218,0.324
	c0.066,0.13,0.109,0.325,0.132,0.563c0.043,0.238,0.043,0.542,0.043,0.91C231.546,39.447,231.546,39.75,231.503,39.988z
	 M251.356,20.091c-0.022,0.238-0.066,0.454-0.13,0.606c-0.066,0.151-0.131,0.26-0.219,0.324c-0.109,0.087-0.197,0.108-0.305,0.108
	h-5.825v19.183c0,0.13-0.044,0.238-0.109,0.346c-0.088,0.088-0.218,0.173-0.394,0.238c-0.174,0.065-0.414,0.109-0.719,0.152
	c-0.306,0.022-0.698,0.043-1.155,0.043c-0.437,0-0.83-0.021-1.135-0.043c-0.305-0.043-0.545-0.087-0.72-0.152
	c-0.174-0.065-0.306-0.151-0.392-0.238c-0.066-0.108-0.109-0.216-0.109-0.346V21.13h-5.825c-0.131,0-0.219-0.021-0.306-0.108
	c-0.086-0.064-0.153-0.173-0.218-0.324c-0.065-0.152-0.109-0.368-0.132-0.606c-0.021-0.259-0.043-0.563-0.043-0.909
	c0-0.368,0-0.693,0.043-0.953c0.023-0.259,0.066-0.454,0.132-0.606c0.065-0.152,0.132-0.26,0.218-0.346
	c0.087-0.065,0.175-0.087,0.306-0.087h16.385c0.108,0,0.196,0.022,0.305,0.087c0.087,0.087,0.153,0.195,0.219,0.346
	c0.064,0.152,0.108,0.346,0.13,0.606c0.023,0.26,0.044,0.585,0.044,0.953C251.4,19.528,251.378,19.832,251.356,20.091z"/>
<path class="st0" d="M270.964,78.257c0.153,0.475,0.676,0.735,1.156,0.562c0.503-0.173,0.742-0.693,0.568-1.169l-1.655-4.775h-2.783
	c0.336,0.204,0.685,0.422,1.055,0.661L270.964,78.257z"/>
<path class="st0" d="M298.998,76.676c-0.306,2.987-0.654,6.343,0.11,9.288c-8.116,3.01-16.014,6.019-18.675,7.036
	c-0.7-1.538-2.64-4.655-8.116-9.526c-6.873-6.149-9.382-7.838-9.927-8.183c-0.246-0.244-1.286-1.323-1.497-2.416h-2.348
	c0.145,1.554,1.117,3.105,2.339,4.212c0.087,0.065,0.174,0.13,0.24,0.173c0.088,0.043,2.182,1.299,9.643,7.967
	c6.371,5.672,7.55,8.639,7.724,9.179l0.022,0.109c0.087,0.39,0.305,0.737,0.655,0.931c0.35,0.216,0.808,0.26,1.156,0.13l0.087-0.044
	c1.812-0.693,11.149-4.244,20.42-7.664c0.721-0.259,1.092-1.039,0.83-1.754c-0.916-2.663-0.567-6.148-0.261-9.202
	c0.141-1.449,0.273-2.82,0.265-4.038h-2.41C299.255,73.977,299.123,75.291,298.998,76.676z"/>
<path class="st0" d="M297.166,58.316c-0.895-2.252-2.488-3.052-3.665-3.333c-0.415-0.109-0.873-0.153-1.332-0.153
	c-1.395,0-2.661,0.477-3.467,0.909L288.178,56l-0.415-0.455c-0.546-0.627-1.243-1.06-2.051-1.277
	c-0.371-0.109-0.807-0.174-1.243-0.174c-1.375,0-2.728,0.564-3.622,1.018l-0.458,0.238l-0.392-0.302
	c-0.458-0.39-0.982-0.65-1.571-0.801c-1.243-0.346-2.705-0.195-4.297,0.477l-0.742,0.325l-2.356-6.712
	c-0.502-1.343-1.985-2.685-4.188-2.685c-0.655,0-1.331,0.109-2.051,0.324c-0.016,0.005-0.029,0.011-0.045,0.016
	c0,0.013,0.004,0.025,0.004,0.037c0,1.58-1.31,2.858-2.903,2.858c-0.145,0-0.284-0.022-0.423-0.042
	c-0.202,0.508-0.301,1.023-0.316,1.513c0.237-0.063,0.482-0.107,0.739-0.107c0.53,0,1.023,0.152,1.453,0.399
	c-0.062-0.67,0.132-1.919,2.145-2.552c2.554-0.801,3.317,0.714,3.425,0.996l2.837,8.097c0.021,0.109,0.066,0.195,0.109,0.282
	l3.206,9.179c0.176,0.476,0.7,0.715,1.179,0.564c0.479-0.174,0.742-0.694,0.567-1.17l-3.01-8.617
	c0.982-0.584,2.704-1.385,4.015-1.018c0.763,0.217,1.33,0.802,1.722,1.776c1.964,4.762,2.356,6.69,2.356,6.711
	c0.109,0.498,0.589,0.823,1.113,0.736c0.045,0,0.088-0.021,0.132-0.043c0.435-0.151,0.698-0.585,0.611-1.039
	c-0.023-0.087-0.416-2.079-2.467-7.079c-0.021-0.044-0.042-0.065-0.066-0.109c0.895-0.563,2.619-1.407,3.928-1.039
	c0.697,0.195,1.245,0.736,1.614,1.645c0.044,0.109,0.089,0.195,0.131,0.303c0,0.044,0.021,0.065,0.021,0.087
	c1.703,4.157,2.052,5.867,2.052,5.889c0.088,0.476,0.546,0.779,1.026,0.692c0.044-0.021,0.087-0.021,0.131-0.043
	c0.393-0.13,0.654-0.541,0.567-0.974c-0.022-0.065-0.327-1.646-1.854-5.5c1.111-0.822,2.748-1.494,4.123-1.169
	c0.917,0.218,1.592,0.867,2.03,1.927c0.261,0.672,0.524,1.343,0.785,1.992c0.89,2.185,1.75,4.305,2.402,6.245h2.534
	c-0.68-2.169-1.637-4.542-2.688-7.133L297.166,58.316z"/>
<path class="st0" d="M262.719,55.839l0.559,1.598c0.872,0.493,1.471,1.408,1.471,2.47c0,0.389-0.081,0.758-0.224,1.096l2.244,6.417
	h1.156h1.195l-4.619-13.161C264.166,55.01,263.514,55.585,262.719,55.839z"/>
<path class="st0" d="M301.284,69.714h-2.472c0.222,0.883,0.374,1.71,0.426,2.458c0.016,0.218,0.015,0.462,0.015,0.703h2.41
	c-0.002-0.292-0.004-0.582-0.025-0.854C301.589,71.288,301.461,70.515,301.284,69.714z"/>
<path class="st0" d="M261.19,71.545c0.617-0.755,1.605-1.986,7.061,1.33h2.783l-0.003-0.01c0-0.216-0.087-0.433-0.219-0.628
	l-0.885-2.523l-10.231,0c-0.107,0.113-0.213,0.231-0.316,0.358c-0.695,0.865-0.924,1.834-0.834,2.803h2.348
	C260.804,72.414,260.859,71.95,261.19,71.545z"/>
<path class="st0" d="M298.128,67.419c0.268,0.799,0.502,1.568,0.685,2.295h2.472c-0.162-0.735-0.374-1.502-0.623-2.295H298.128z"/>
<path class="st0" d="M269.12,67.419h-1.195h-1.156l0.791,2.263l-1.572-0.649c-1.198-0.476-2.246-0.714-3.141-0.714
	c-1.246,0-2.265,0.452-3.153,1.395l10.231,0L269.12,67.419z"/>
<path class="st0" d="M264.749,46.029c0-0.013-0.004-0.025-0.004-0.037c-1.856,0.593-2.862,1.696-3.322,2.853
	c0.139,0.02,0.278,0.042,0.423,0.042C263.439,48.887,264.749,47.609,264.749,46.029z"/>
<path class="st0" d="M261.107,50.357c-0.016,0.494,0.047,0.96,0.17,1.356l1.443,4.125c0.795-0.254,1.447-0.829,1.781-1.58
	l-1.129-3.216c-0.023-0.073-0.057-0.213-0.073-0.393c-0.43-0.247-0.922-0.399-1.453-0.399
	C261.589,50.25,261.344,50.294,261.107,50.357z"/>
<path class="st0" d="M264.749,59.907c0-1.063-0.599-1.978-1.471-2.47l1.247,3.566C264.668,60.665,264.749,60.295,264.749,59.907z"/>
</svg>
