<?xml version="1.0" encoding="utf-8"?>
<!-- Generator: Adobe Illustrator 21.0.0, SVG Export Plug-In . SVG Version: 6.00 Build 0)  -->
<svg version="1.1" fill="#dee0f6" id="Слой_1" xmlns="http://www.w3.org/2000/svg" xmlns:xlink="http://www.w3.org/1999/xlink" x="0px" y="0px"
	 viewBox="0 0 407.4 98.5" style="enable-background:new 0 0 407.4 98.5;" xml:space="preserve">
<rect x="121.3" y="0.3" width="6" height="98.2"/>
<polygon points="6,9.2 42.9,58 47.2,58 84.3,8.9 84.3,98.5 90.3,98.5 90.3,0.4 83.2,0.4 45,50.9 6.7,0.2 0,0.2 0,98.5 6,98.5 "/>
<path d="M331.5,70.3H388l12.8,28.2h6.6L362.6,0.1h-6.2l-44.3,98.4h6.6L331.5,70.3z M359.6,7.8l25.7,56.5h-51.1L359.6,7.8z"/>
<polygon points="279.8,6 316,6 316,0 238.1,0 238.1,6 273.8,6 273.8,98.5 279.8,98.5 "/>
<path d="M197.4,53c10-1.5,23.6-8.2,23.6-26.3c0-20.9-18.3-26.4-28-26.4h-39.2v6H193c0.9,0,22,0.3,22,20.4c0,20.3-21.1,20.7-22,20.7
	h-39.2v6h36.5l30.6,45.1h7.2L197.4,53z"/>
</svg>
