<?xml version="1.0" encoding="utf-8"?>
<!-- Generator: Adobe Illustrator 21.0.0, SVG Export Plug-In . SVG Version: 6.00 Build 0)  -->
<svg version="1.1" id="Слой_1" xmlns="http://www.w3.org/2000/svg" xmlns:xlink="http://www.w3.org/1999/xlink" x="0px" y="0px"
	 viewBox="0 0 245.1 175.3" style="enable-background:new 0 0 245.1 175.3;" xml:space="preserve">
<style type="text/css">
	.st0{fill:#dee0f6;}
</style>
<g>
	<path class="st0" d="M61,52.2c0.3,0.6,1.1,0.9,1.7,0.5c0.7-0.3,0.9-1.1,0.5-1.7l-3.3-6.1c-0.3-0.7-1.1-0.9-1.8-0.5
		c-0.6,0.3-0.8,1.1-0.5,1.8L61,52.2z"/>
	<path class="st0" d="M138.9,23.6c0.7,0.1,1.3-0.5,1.4-1.1l0.4-2.9c0.1-0.7-0.4-1.3-1.1-1.4c-0.7-0.1-1.3,0.4-1.4,1.1l-0.3,2.9
		C137.7,22.9,138.2,23.5,138.9,23.6z"/>
	<path class="st0" d="M84.3,133l-5.6,16.6c-0.3,1.6,1.7,2.3,2.4,0.8l2.4-7.1l3.2-9.5C87,132.2,85,131.5,84.3,133z"/>
	<path class="st0" d="M137.2,37.9c0.7,0.1,1.3-0.4,1.4-1.1l0.7-5.3c0.1-0.7-0.4-1.3-1.1-1.4c-0.7-0.1-1.3,0.4-1.4,1.1l-0.6,5.3
		C136,37.2,136.5,37.9,137.2,37.9z"/>
	<path class="st0" d="M124,138.3c-0.3-1.7-2.4-1.6-2.5,0l0.1,17.5c0.2,1.6,2.4,1.6,2.5,0l0-7.5L124,138.3z"/>
	<path class="st0" d="M122.7,6.1C58.7,6.1,6.8,42.6,6.8,87.7c0,45.1,51.9,81.6,115.9,81.6s115.9-36.5,115.9-81.6
		C238.6,42.6,186.7,6.1,122.7,6.1z M186.6,27.6l9.8,6.4c3.2,2.1,3.4,6.6,2.1,8.6l-12.8,19.7c-2.7,3.3-7.5,0.2-5.5-3.6L192,40.5
		c0.8-1.4-1.1-2.7-2.1-1.4l-11.9,18.3c-2.7,3.4-7.5,0.2-5.5-3.6l11.9-18.2c0.8-1.4-1.1-2.7-2.1-1.4l-11.9,18.3
		c-2.7,3.3-7.5,0.2-5.5-3.6l12.8-19.7C179.3,26.7,183.5,25.6,186.6,27.6z M184.9,87.7c0,21.7-27.8,39.2-62.1,39.2
		s-62.1-17.6-62.1-39.2c0-21.7,27.8-39.2,62.1-39.2S184.9,66,184.9,87.7z M161.9,18.9c0.1,2.3-2.1,6.5-2.9,9.8
		c3.3-2.9,6.4-9.3,10.1-8.8c3.7,0.5,2.1,4.3,1.3,6.1L164.5,40c-1.2,2.9-2,6.5-3.6,8.4c-1.5,1.8-2.6,1.8-4,1.1
		c-1.4-0.7-1.5-2.7-0.9-4.1l3-7.9c-2.7,2.4-5.6,6-8.9,7.9c-1.8,1-4.8-0.2-3.5-3.2c4-8.4,8.1-22.7,10.5-24.9
		C159.8,14.9,161.9,18.2,161.9,18.9z M129,40.1l3.2-26.1c0.2-2,2-3.1,3.7-2.9l4.5,0.5c4.5,0.6,7.4,4.3,6.9,8.7l-0.5,4.1
		c-0.2,1.4-1.4,3.2-3.7,2.9c2.3,0.3,3.1,2.2,2.9,3.6l-0.8,6.2c-0.5,4.1-4.3,7.5-8.8,6.9l-4.3-0.5C130,43.4,128.8,41.7,129,40.1z
		 M108.9,13.7c0.2-4.4,6.3-4.4,6.6,0v7.5c0.2,1.6,2.4,1.6,2.5,0v-7.5c0.3-4.4,6.2-4.4,6.6,0v8.7c0,2.1-1.6,3.3-3.3,3.3
		c1.6,0,3.3,1.4,3.3,3.3v11c-0.3,4.3-6.3,4.3-6.6,0c0-3.4,0.1-6.4,0-9.8c-0.2-1.6-2.3-1.6-2.5,0V40c-0.3,4.3-6.2,4.3-6.6,0V13.7z
		 M101.7,19.4c0.7,2.1,0.2,0.8,0.6,3c0.3,4.1-5.3,5.1-6.5,1.2l-0.5-3c-0.6-1.6-2.6-1.2-2.5,0.5l3.1,17.2c0.5,1.6,2.7,1.2,2.5-0.5
		l-1-5.4c-0.2-4,5.2-5,6.5-1.2l0.9,4.8c1.5,10.7-13.1,13.4-15.5,2.8l-3-16.8C85,12,99.3,9.4,101.7,19.4z M64.7,24.9
		c0.3-3.3,4.1-2.3,4.6-1.8c1.6,1.6,2.8,6.3,4.4,9.2c0.5-4.4-1.5-11.2,1.6-13.3c3.1-2.1,4.4,1.8,5.1,3.6l4.9,14.3
		c1.1,2.9,2.8,6.2,2.9,8.6c0.1,2.4-0.7,3.1-2.2,3.5c-1.5,0.4-2.9-1-3.4-2.4l-3-7.8c-0.5,3.6-0.2,8.2-1.4,11.7c-0.7,2-3.7,3.1-4.7,0
		C70.9,41.6,64.4,28.3,64.7,24.9z M50.6,30.6l4-2.2c4.1-1.7,6.8,3.2,3.1,5.8l-4,2.2c-1.4,1-0.3,3,1.2,2.3c4.1-2.2,8.5-0.9,10.6,2.9
		l3.9,7c4.4,9.6-8.3,16.6-13.9,7.6l-8.1-14.9C45.3,37.2,47,32.5,50.6,30.6z M57.7,148.3l-10.5-5.4c-3.4-1.8-4.1-6.2-3-8.4L55,113.6
		c2.4-3.6,7.5-1,5.9,3l-10,19.4c-0.6,1.6,1.4,2.6,2.2,1.2l10-19.4c2.4-3.6,7.5-1,5.9,3l-10,19.4c-0.6,1.5,1.4,2.6,2.2,1.2l10-19.4
		c2.3-3.6,7.4-1,5.8,3l-10.8,20.9C65,148.4,61,150,57.7,148.3z M93,135.9L87.5,152c-3.9,10.1-17.9,5.3-14.9-5l5.5-16.1
		C81.9,121.3,95.7,126,93,135.9z M111.2,142.6c-0.3,2.1-2,3.1-3.6,2.9c1.6,0.2,3.1,1.8,2.8,3.6l-1.4,10.9c-0.8,4.2-6.8,3.5-6.5-0.8
		c0.4-3.4,0.8-6.3,1.2-9.7c0-1.6-2.1-1.9-2.5-0.3l-1.2,9.7c-0.9,4.2-6.7,3.5-6.6-0.8l3.2-26.1c0.7-4.3,6.8-3.6,6.5,0.8l-0.9,7.5
		c0,1.6,2.1,1.9,2.5,0.3l0.9-7.4c0.9-4.3,6.7-3.6,6.5,0.8L111.2,142.6z M114.9,155.3l-0.1-17c0.6-10.3,15.1-10.3,15.8-0.1l0.1,17
		C130.3,166.1,115.4,166.1,114.9,155.3z M152.5,159.2c-0.5,0.8-1.2,1.3-2.1,1.4c-0.9,0.1-1.6-0.1-2.4-0.8c-0.7-0.6-1.2-1.5-1.3-2.6
		l-3.2-21.9l-1.9,0.3c-0.5,0.1-0.9,0.4-1.2,0.9c-0.3,0.5-0.4,1-0.3,1.7l2.9,19.7c0.1,1,0,2-0.5,2.8c-0.5,0.8-1.2,1.3-2,1.4
		c-0.9,0.1-1.7-0.1-2.4-0.8c-0.7-0.7-1.2-1.5-1.3-2.6l-2.5-21.8c0.2-1.4,0.4-3.2,1.2-4.5c1.3-2.2,3.1-3.4,5.3-3.7l5-0.7
		c0.9-0.1,1.6,0.2,2.3,0.8c0.7,0.7,1.2,1.5,1.3,2.6l3.6,25C153.1,157.4,153,158.4,152.5,159.2z M175,153.4c-0.4,0.9-1,1.4-1.8,1.7
		c-0.9,0.3-1.7,0.1-2.5-0.4c-0.8-0.6-1.3-1.3-1.6-2.3l-1.7-5.8l-3.6,1l1.7,5.8c0.3,1,0.2,2-0.1,2.9c-0.4,0.9-1,1.4-1.8,1.7
		c-0.8,0.2-1.7,0.1-2.5-0.5c-0.8-0.5-1.3-1.3-1.6-2.3l-5.5-18.9c-0.7-2.6-0.6-5.1,0.4-7.4c1-2.3,2.6-3.7,4.7-4.4
		c2.2-0.6,4.3-0.2,6.3,1.2c2.1,1.4,3.5,3.4,4.3,6l5.5,18.9C175.4,151.6,175.4,152.5,175,153.4z M197.7,142.3
		c-0.1,0.1-0.2,0.2-0.3,0.2l-13.6,6.3c-1.4,0.6-2.5,0.4-3.2-0.3c-0.5-0.3-0.9-0.8-1.2-1.3c-0.7-1.4-0.1-3.1,1.1-4.1l-6.8-14.8
		c-1.2-2.6-1.5-5-0.9-7.5c0.6-2.4,1.9-4.1,3.9-5.1l4.5-2c0.8-0.4,1.6-0.3,2.4,0.1c0.9,0.5,1.6,1.1,2,2.1l9.5,20.4
		c1.5-0.3,3.1,0.4,3.7,1.8C199.7,139.7,199.1,141.4,197.7,142.3z"/>
	<path class="st0" d="M179.6,121.8c-0.5,0.2-0.8,0.6-0.9,1.2c-0.2,0.5-0.1,1.1,0.2,1.7l7.3,15.8l3.4-1.6l-8.3-17.9L179.6,121.8z"/>
	<path class="st0" d="M162.3,130.6c-0.5-0.3-0.9-0.4-1.4-0.3c-0.5,0.2-0.9,0.5-1.1,1c-0.2,0.5-0.3,1.1-0.1,1.7l2.7,9.4l3.6-1
		l-2.7-9.4C163,131.4,162.7,131,162.3,130.6z"/>
	<path class="st0" d="M122.5,0C55,0,0,39.3,0,87.6c0,48.3,55,87.6,122.5,87.6c67.6,0,122.5-39.3,122.5-87.6
		C245.1,39.3,190.1,0,122.5,0z M206.6,146.6c-22.5,16-52.4,24.8-84.1,24.8c-31.7,0-61.5-8.8-84-24.8C16.2,130.7,3.9,109.8,3.9,87.6
		c0-22.2,12.3-43.1,34.6-59c22.5-16,52.4-24.8,84-24.8c31.7,0,61.6,8.8,84.1,24.8c22.3,15.8,34.6,36.8,34.6,59
		C241.2,109.8,228.9,130.7,206.6,146.6z"/>
	<path class="st0" d="M122.5,50.3c-33.1,0-60,16.8-60,37.3c0,20.6,26.9,37.3,60,37.3c33.2,0,60.1-16.8,60.1-37.3
		C182.6,67.1,155.7,50.3,122.5,50.3z M122.5,123c-32,0-58.1-15.9-58.1-35.3c0-19.5,26.1-35.4,58.1-35.4c32.1,0,58.2,15.9,58.2,35.4
		C180.7,107.1,154.6,123,122.5,123z"/>
	<path class="st0" d="M139.5,68.1c-4.6-1.3-5.2,4.8-8.9,4.8c-3.5-0.1-2.9-6.3-8.1-6.3c-5.1,0-4.5,6.3-8.1,6.3
		c-3.7,0.1-4.3-6.1-8.9-4.8c-3.8,1.1-3.9,8.7-0.9,9.8c6.5,2.3,12.8,1.9,17.9,9.9c5.1-8,11.4-7.6,17.9-9.9
		C143.4,76.8,143.3,69.2,139.5,68.1z M135.6,77.9c-4.5,1.2-9.1,2.4-13,7.6c-3.9-5.2-8.5-6.4-13-7.6c-3-0.8-5.8-0.9-5.7-4.8
		c0.2-4.5,3.4-4.8,5.9-1.8c3.1,3.8,6.4,4.1,9.1-0.3c2.3-3.9,5.1-3.9,7.5,0c2.6,4.3,6,4,9.1,0.3c2.6-3.1,5.9-2.6,5.9,2.2
		C141.3,77.2,138.6,77.1,135.6,77.9z"/>
	<path class="st0" d="M148.3,89.4c0-3-1.2-5.7-2.7-8.2c2-1.9,2.6-5,2.6-7.7c0.2-10.1-10.2-15.4-17.5-8.3c-4.5-5.7-11.8-5.8-16.3,0
		c-7.1-7-17.5-1.8-17.5,8.3c0,2.7,0.6,5.7,2.6,7.7c-1.5,2.6-2.7,5.2-2.7,8.2c0,2.5,0.9,4.9,2.7,7.1c-1.8,2-3.1,4.3-3.1,7
		c-0.2,7.3,5.8,11.7,13.1,10.9c0,0,0,0,0,0c0,0,0.1,0,0.1,0c5.4-1.1,10.2-4.2,13-8.4c2.8,4.1,7.7,7.4,13,8.4c0,0,0.1,0,0.1,0
		c0,0,0,0,0.1,0c7,0.8,13-3.6,13-10.9c0-2.7-1.2-5-3.1-7C147.4,94.3,148.3,91.9,148.3,89.4z M147.3,102.8
		c0.4,6.9-4.9,11.3-11.6,10.3c-5.4-0.8-10.8-4.6-13.3-9.7c-2.5,5.2-7.9,8.9-13.2,9.7c-6.7,1-12-3.3-11.6-10.3
		c0.1-2.5,1.7-4.5,3.5-6.3c-2-2-3.2-4.4-3.2-7.1c0-2.5,0.9-4.6,2-6.5l3.4,2c-0.7,1.8-1.5,3.9-0.7,6c1.2,3.1,5.2,2.4,5.2,5.7
		c0,1.9-5.4,1.9-6.1,6.8c-0.2,1.7,1.1,4,2.7,4.6c3.5,1.3,9.9-0.7,12.8-5.3c2.5-4,2.7-10.1,0.2-14.4c-4.8-8-17.7-2.1-19.1-12.4
		c-0.4-3.1-0.3-6.5,1.5-8.7c5.2-6.3,11.4-3.9,14.7,0.3c1.8-3.1,4.8-5.1,8-5.1c3.2,0,6.2,2,8.1,5.1c3.3-4.2,9.4-6.6,14.7-0.3
		c1.8,2.2,1.9,5.7,1.5,8.7c-1.4,10.4-14.3,4.5-19.1,12.4c-2.5,4.3-2.3,10.4,0.2,14.4c2.8,4.6,8.1,6.6,12.8,5.3
		c1.9-0.5,2.9-2.8,2.7-4.6c-0.7-5-6.1-4.9-6.1-6.8c0-3.3,4.3-2.5,5.2-5.7c1.1-2,0-4.2-0.7-6l3.4-2c1.1,2,2,4.1,2,6.5
		c0,2.7-1.2,5.1-3.2,7.1C145.6,98.2,147.2,100.2,147.3,102.8z M106,92.3c-3.9-2-2.2-4.9-1-8c-0.7-0.2-1.2-0.7-1.6-1
		c1.3,0.4,2.7,0.7,4.1,0.9c6.2,1.2,10.5,3.9,10.5,10.4c0,6.5-4.3,12-10.8,12.1c-1.8,0-3.3-0.2-3.9-2.2c-0.7-2.2,1.6-4.3,3.4-5.2
		C110.6,97.6,109.6,94.2,106,92.3z M139,92.3c-3.6,1.8-4.3,5-0.7,7.1c2.5,1.2,5.6,4.9,1.8,7.2c-7.7,1.3-13.1-4.7-13.1-11.9
		c0-6.6,4.4-9.3,10.5-10.5c1.3-0.3,2.7-0.5,4-0.9c-0.2,0.1-1.5,1.1-1.5,1.1C141.3,87.5,142.8,90.4,139,92.3z"/>
</g>
</svg>
