<svg xmlns="http://www.w3.org/2000/svg" xmlns:xlink="http://www.w3.org/1999/xlink" fill="#8d90ef" width="162" height="30" viewBox="0 0 162 30"><defs><path id="78vqa" d="M649 976.955s76.406-47.162 155 0"/><path id="78vqc" d="M805 975.03c2.761 0 5 2.232 5 4.985S807.761 985 805 985c-2.762 0-5-2.232-5-4.985s2.238-4.985 5-4.985z"/><path id="78vqe" d="M653 972.03c2.761 0 5 2.232 5 4.985S655.76 982 653 982s-5-2.232-5-4.985 2.239-4.985 5-4.985z"/><clipPath id="78vqb"><use fill="#8d90ef"  xlink:href="#78vqa"/></clipPath><linearGradient id="78vqd" x1="800" x2="810" y1="980" y2="980.03" gradientUnits="userSpaceOnUse"><stop offset="0" stop-color="#451bff" stop-opacity=".25"/><stop offset="1" stop-color="#451bff" stop-opacity="0"/></linearGradient><linearGradient id="78vqf" x1="648" x2="658" y1="977" y2="977.03" gradientUnits="userSpaceOnUse"><stop offset="0" stop-color="#451bff" stop-opacity=".25"/><stop offset="1" stop-color="#451bff" stop-opacity="0"/></linearGradient></defs><g><g transform="translate(-648 -955)"><use fill="#8d90ef" fill-opacity="0" stroke="#8d90ef" stroke-miterlimit="50" stroke-width="4" clip-path="url(&quot;#78vqb&quot;)" xlink:href="#78vqa"/></g><g transform="translate(-648 -955)"><use fill="#8d90ef" xlink:href="#78vqc"/><use fill="url(#78vqd)" xlink:href="#78vqc"/></g><g transform="translate(-648 -955)"><use fill="#8d90ef" xlink:href="#78vqe"/><use fill="url(#78vqf)" xlink:href="#78vqe"/></g></g></svg>