<?xml version="1.0" ?><svg fill="#a9a9a9" enable-background="new 0 0 500 500" id="Layer_1" version="1.1" viewBox="0 0 500 500" xml:space="preserve" xmlns="http://www.w3.org/2000/svg" xmlns:xlink="http://www.w3.org/1999/xlink"><g><g><polygon points="325,428 257.2,326.2 279.9,311 319.4,370.3 332.1,339.9 365,339.9 328.6,285.4 351.4,270.2 416.1,367.3     350.3,367.3   "/></g><g><polygon points="175,428 149.7,367.3 83.9,367.3 148.6,270.2 171.4,285.4 135,339.9 167.9,339.9 180.6,370.3 220.1,311     242.8,326.2   "/></g><g><path d="M250,345.7c-8.7,0-17.5-2.7-24.9-8.1l-21.9-15.8l-26.7-4.3c-18.1-2.9-32.3-17.1-35.2-35.2l-4.3-26.7l-15.8-21.9    c-10.7-14.9-10.7-34.9,0-49.8L137,162l4.3-26.7c2.9-18.1,17.1-32.3,35.2-35.2l26.7-4.3l21.9-15.8c14.9-10.8,34.9-10.7,49.8,0    l21.9,15.8l26.7,4.3c18.1,2.9,32.3,17.1,35.2,35.2L363,162l15.8,21.9c10.7,14.9,10.7,34.9,0,49.8L363,255.6l-4.3,26.7    c-2.9,18.1-17.1,32.3-35.2,35.2l-26.7,4.3l-21.9,15.8C267.5,343,258.7,345.7,250,345.7z M250,99.3c-3.1,0-6.2,1-8.9,2.9L214,121.7    l-33.1,5.4c-6.5,1-11.5,6.1-12.6,12.6l-5.4,33.1l-19.6,27.2c-3.8,5.3-3.8,12.5,0,17.8l19.6,27.2l5.4,33.1    c1,6.5,6.1,11.5,12.6,12.6l33.1,5.4l27.2,19.6c5.3,3.8,12.4,3.8,17.8,0l27.2-19.6l33.1-5.4c6.5-1,11.5-6.1,12.6-12.6l5.4-33.1    l19.6-27.2c3.8-5.3,3.8-12.5,0-17.8L337,172.7l-5.4-33.1c-1-6.5-6.1-11.5-12.6-12.6l-33.1-5.4l-27.2-19.6    C256.2,100.2,253.1,99.3,250,99.3z"/></g></g></svg>