<svg xmlns="http://www.w3.org/2000/svg" xmlns:xlink="http://www.w3.org/1999/xlink" width="141" height="112" viewBox="0 0 141 112"><defs><path id="uvcca" d="M991.197 112.19c-17.099 3.787-26.492-5.74-24.313-11.724 2.514-6.904 2.855-15.756-9.209-12.824-12.064 2.93-15.318 11.602-23.943 10.625-11.577-1.311-8.565-12.335-4.79-15.755 3.777-3.42 29.5-19.42 58.57-5.863 29.07 13.557 31.312 45.068 31.312 45.068-8.964-16.61-10.53-13.312-27.627-9.526zM927.1 147c.322 6.961 9.716 13.19 13.63 5.862 3.913-7.328 8.61-7.695 9.577-5.863.967 1.832 4.19 6.504 12.525 1.832 11.634-6.521-.323 3.39 1.841 12.458 2.164 9.069 10.084 9.252 10.315 2.199.782-14.382 7.229-12.183 14.366-8.061s17.727-1.65 21.733-6.596 6.539-10.076 5.894-7.328c-5.157 20.702-23.207 34.992-39.047 39.572-15.84 4.58-33.613.824-47.15-8.427-15.387-10.516-18.787-28.946-18.787-28.946 5.25 15.022 14.78-3.664 15.103 3.297zm-15.863-13.875c-.165 1.331-.306 2.52-.421 3.571-.894 5.042-2.343 9.435-4.345 13.182-2.003 3.745-4.084 6.844-6.242 9.296-2.159 2.45-4.207 4.27-6.142 5.462-1.938 1.19-3.258 1.785-3.96 1.785-.493 0-.696-.246-.61-.735.05-.28.116-.456.198-.525.77-.771 1.533-1.804 2.292-3.099a46.085 46.085 0 0 0 2.18-4.253 67.159 67.159 0 0 0 1.984-4.937 109.808 109.808 0 0 0 1.706-5.147c1.257-3.92 2.437-8.193 3.538-12.814 1.696-6.792 3.32-12.674 4.871-17.647 1.551-4.97 2.9-9.102 4.046-12.394 1.387-3.85 2.662-7.072 3.826-9.663.19-.28.292-.455.305-.525.036-.21-.051-.315-.262-.315a.255.255 0 0 0-.169.052.245.245 0 0 1-.167.053c-.082.07-.16.105-.229.105-2.24 1.12-4.07 2.591-5.483 4.411-1.415 1.822-2.565 3.642-3.45 5.462a28.55 28.55 0 0 0-2.21 6.512c-.113.63-.256 1.05-.434 1.26-.179.21-.339.316-.48.316-.14 0-.412-.158-.813-.473-.402-.315-.775-.788-1.122-1.418-.346-.63-.628-1.418-.848-2.363-.22-.945-.218-2.048.007-3.309.173-.98.604-2.222 1.294-3.729.69-1.504 1.9-3.08 3.637-4.726 1.734-1.645 4.15-3.256 7.245-4.832 3.096-1.575 7.137-2.923 12.124-4.044a.84.84 0 0 1 .403.105c.257.141.366.315.33.526-.027.14-.134.35-.324.63-1.432 2.52-2.716 5.288-3.848 8.298a111.296 111.296 0 0 0-2.993 9.138 177.362 177.362 0 0 0-2.315 9.19c-.68 3.046-1.251 5.866-1.71 8.456a236.822 236.822 0 0 0-.85 5.094c-.244 1.576-.43 2.925-.56 4.044zm19.82-1.19c.056-.32.02-.482-.11-.482-.064 0-.173.065-.324.193l-.227.192c-3.083 5.007-5.597 8.538-7.542 10.591-1.946 2.054-3.467 3.081-4.564 3.081-1.355 0-2.364-.497-3.027-1.492-.662-.994-1.095-2.198-1.296-3.61a20.712 20.712 0 0 1-.168-4.237c.088-1.411.212-2.567.372-3.466a42.84 42.84 0 0 1 2.174-7.895c.96-2.504 2.031-4.814 3.214-6.933 1.183-2.118 2.411-4.044 3.686-5.777 1.276-1.733 2.505-3.209 3.69-4.429.868-.898 1.702-1.411 2.499-1.54.797-.128 1.55-.193 2.261-.193.45 0 .65.161.593.482-1.984 2.825-3.617 5.569-4.896 8.232-1.28 2.664-2.327 5.199-3.14 7.606-.814 2.407-1.427 4.59-1.838 6.547a164.48 164.48 0 0 0-.976 4.959c-.4 2.248-.21 3.37.564 3.37.71 0 1.755-.802 3.137-2.407 1.381-1.604 2.799-3.594 4.252-5.97a72.794 72.794 0 0 0 4.077-7.702c1.265-2.76 2.198-5.296 2.801-7.607.088-.128.24-.256.456-.385.151-.128.33-.224.535-.289.206-.063.475-.128.81-.192.644 0 1.235.129 1.77.385.482.192.911.498 1.29.915.378.418.665.979.863 1.684l-.034.193c-.023.13-.026.24-.011.337.015.096.01.21-.012.337-.058.322-.257.996-.6 2.022a81.868 81.868 0 0 0-1.184 3.948 255.743 255.743 0 0 0-1.475 5.584 96.42 96.42 0 0 0-1.453 6.836c-.513 2.889-.821 5.633-.927 8.232-.106 2.6.177 4.733.85 6.403.06.385.084.61.074.674-.07.385-.33.578-.78.578-1.554-.707-2.802-1.863-3.743-3.466-.86-1.348-1.526-3.226-2.003-5.633-.476-2.407-.355-5.633.362-9.676zm27.27-31.704a38.525 38.525 0 0 1-1.14 1.707c-.351.496-.7.89-1.044 1.182-.356.35-.701.642-1.036.875-.345.293-.66.496-.944.613-.285.117-.555.233-.81.35a1.758 1.758 0 0 1-.736.175c-.4-.058-.726-.204-.978-.438-.253-.232-.437-.598-.554-1.094-.118-.495-.099-1.182.056-2.057l.116-.656c.036-.204.11-.452.221-.744a7.45 7.45 0 0 1 .585-1.313c.179-.35.437-.73.774-1.138a5.02 5.02 0 0 1 1.198-1.05l.958-.438c.314-.116.656-.233 1.029-.35a4.236 4.236 0 0 1 1.263-.175c.705 0 1.295.146 1.772.437.048.059.115.175.202.35.037.118.067.278.09.482a2.72 2.72 0 0 1-.043.744 9.411 9.411 0 0 1-.284 1.094c-.136.438-.368.919-.696 1.444zm-4.34 16.543c-1.04 2.219-2.042 4.727-3.008 7.528-.836 2.393-1.7 5.194-2.59 8.403-.892 3.21-1.68 6.74-2.362 10.591-.104.584-.239.934-.407 1.05-.168.117-.456.175-.866.175-.352 0-.636-.058-.849-.175-.166-.058-.268-.145-.305-.262-1.174-.992-1.8-2.596-1.875-4.814-.078-2.217.112-4.61.569-7.178a69.25 69.25 0 0 1 1.181-5.427c.456-1.75.932-3.355 1.426-4.814a131.854 131.854 0 0 1 1.646-4.814c.11-.291.37-.685.781-1.182.41-.495.953-.991 1.628-1.488a10.41 10.41 0 0 1 2.337-1.269 7.584 7.584 0 0 1 2.821-.525c.41 0 .681.131.81.394.13.262.164.569.102.919-.052.292-.232.818-.543 1.575-.31.76-.477 1.197-.496 1.313zm14.281 18.82c-.432 1.838-1.072 3.44-1.92 4.805-.85 1.366-1.777 2.495-2.78 3.387-1.003.893-1.978 1.549-2.924 1.97-.945.42-1.735.63-2.369.63-1.532 0-2.755-.473-3.67-1.418-.914-.946-1.62-2.1-2.117-3.466a14.56 14.56 0 0 1-.849-4.372c-.069-1.549.009-2.955.233-4.215.577-3.256 1.573-6.118 2.988-8.587 1.414-2.468 2.992-4.516 4.732-6.144 1.74-1.628 3.541-2.849 5.402-3.664 1.86-.813 3.53-1.22 5.01-1.22.58 0 .726.814.437 2.442a19.9 19.9 0 0 1-1.276 4.293c-.59 1.392-1.123 3.139-1.601 5.239-.02.105-.072.25-.157.433-.086.184-.234.276-.445.276-.106 0-.318-.145-.636-.434-.32-.288-.631-.76-.937-1.418-.307-.656-.533-1.536-.68-2.639-.149-1.103-.082-2.442.198-4.017-.045-.052-.061-.105-.051-.158-.088-.105-.159-.158-.21-.158-.054 0-.363.106-.928.316-.565.21-1.215.67-1.948 1.378-.732.71-1.471 1.747-2.215 3.112-.744 1.366-1.32 3.204-1.729 5.514-.215 1.209-.338 2.574-.37 4.097a22.888 22.888 0 0 0 .3 4.332c.234 1.367.61 2.521 1.13 3.467.518.945 1.253 1.418 2.204 1.418.263 0 .574-.04.93-.118.357-.08.797-.328 1.321-.749.523-.42 1.11-1.05 1.761-1.89.651-.84 1.428-2.022 2.332-3.546.01-.051.046-.104.108-.157.123-.105.238-.158.345-.158.158 0 .293.132.405.394a.517.517 0 0 0 .037.237c-.019.105-.024.21-.016.315.007.105-.008.263-.045.472zm4.564 27.921c-.083.467-.289.7-.617.7-1-.186-1.75-.654-2.252-1.4a7.183 7.183 0 0 1-1.05-2.416c-.198-.864-.298-1.692-.298-2.485 0-.795.01-1.378.03-1.751.214-1.215.572-2.51 1.075-3.886a58.444 58.444 0 0 1 1.569-3.887c.168-.42.362-.852.582-1.295.219-.444.408-.853.569-1.226.215-.42.407-.84.576-1.26a1.2 1.2 0 0 0 .013-.28 1.09 1.09 0 0 1 .016-.28.462.462 0 0 1-.033-.21c-1.004-3.081-1.68-6.022-2.027-8.823-.348-2.801-.52-5.275-.515-7.423-.023-2.52.137-4.878.48-7.072.016-.093.107-.21.273-.35.11-.093.254-.175.431-.246.176-.07.43-.105.758-.105.094 0 .369.035.826.105.457.07.924.21 1.404.42.479.21.905.515 1.282.91.375.398.505.923.39 1.576l-.248 1.4c-.15.841-.334 1.939-.55 3.292a56.365 56.365 0 0 0-.51 4.272 68.32 68.32 0 0 0-.225 4.446c-.027 1.47.081 2.72.32 3.746-.008.047.008.094.047.14.039.047.105.07.2.07.14 0 .314-.186.52-.56 1.731-3.407 3.491-6.582 5.28-9.523.786-1.26 1.607-2.52 2.465-3.781a47.617 47.617 0 0 1 2.675-3.572 38.098 38.098 0 0 1 2.793-3.046c.936-.91 1.872-1.621 2.809-2.135.25-.093.478-.186.683-.28.501-.186.87-.28 1.105-.28s.363.07.385.21c-.016.094-.078.245-.185.455-.108.21-.372.572-.791 1.085-.942 1.074-2.105 2.731-3.487 4.972-1.192 1.96-2.712 4.633-4.555 8.018-1.844 3.385-4.049 7.807-6.612 13.27a107.445 107.445 0 0 0-2.315 5.11 67.013 67.013 0 0 0-1.842 4.833c-.588 1.726-1.015 3.337-1.279 4.831a13.562 13.562 0 0 0-.194 3.081zm28.13-32.184c.261-.082.399-.163.413-.246l.065-6.617c-.025-.326-.099-.49-.222-.49-.083 0-.476.429-1.183 1.287-.706.858-1.473 1.818-2.297 2.88a92.645 92.645 0 0 0-2.263 3.032c-.683.96-1.043 1.543-1.079 1.747-.029.163.015.266.13.306.034.041.092.061.174.061.626-.285 1.266-.54 1.923-.766a30.656 30.656 0 0 1 1.89-.582c.685-.162 1.371-.326 2.058-.49zm6.458-.98c1.05 0 1.937.032 2.663.097.05-.182.1-.357.15-.527.333-1.084.654-2.1.962-3.046.013-.07.06-.14.144-.21.082-.07.172-.131.27-.184a.875.875 0 0 1 .41-.078c.409.07.795.175 1.158.315.292.14.583.333.875.577.29.246.48.613.57 1.103a4.834 4.834 0 0 1-.354 1.103c-.266.701-.534 1.418-.805 2.153-.217.63-.438 1.331-.662 2.101-.225.77-.44 1.541-.648 2.311-.012.07-.004.123.026.158.016.105.06.157.13.157s.139-.087.205-.262c.142-.21.39-.665.743-1.366.353-.7.777-1.505 1.273-2.416a49.497 49.497 0 0 1 1.696-2.862c.634-.998 1.3-1.917 1.994-2.757.695-.84 1.407-1.532 2.137-2.075.73-.542 1.464-.814 2.204-.814.281 0 .495.036.64.105.147.07.18.333.099.788-.107.444-.218.88-.333 1.308.166-.033.332-.069.498-.109.299-.029.612-.058.94-.087.059 0 .123-.029.192-.088a.156.156 0 0 0 .06-.087c.222-.759.405-1.459.548-2.101.143-.642.259-1.21.347-1.707a6.32 6.32 0 0 0 .075-.547 4.85 4.85 0 0 1 .051-.416l.063-.35a.392.392 0 0 1 .066-.131c.08-.116.179-.175.296-.175.317.03.574.065.772.11.197.043.374.124.53.24.155.117.23.277.222.481.013.263.005.679-.023 1.248a15.28 15.28 0 0 1-.227 1.903l-.117.657c-.036.204-.09.423-.16.656l-.016.088c-.01.059.029.087.117.087.352 0 .684.03.996.088.254.059.493.117.718.175.224.059.36.117.409.175.024.03.057.088.1.175.087.175.11.38.068.613a2.072 2.072 0 0 1-.122.438.155.155 0 0 1-.059.087.355.355 0 0 1-.236.088c-.059 0-.353.007-.884.021-.53.016-.967.081-1.31.197a.212.212 0 0 0-.14.044.433.433 0 0 0-.135.263c-.892 3.21-1.599 5.872-2.12 7.987-.522 2.116-.907 3.873-1.155 5.274-.217 1.225-.332 2.24-.342 3.041-.01.802.043 1.539.159 2.21a.366.366 0 0 1 .013.175c-.02.117-.07.19-.15.22a.614.614 0 0 1-.205.043c-.94-.321-1.622-.78-2.044-1.379-.422-.598-.699-1.189-.83-1.772a5.91 5.91 0 0 1-.088-2.232c.093-.525.243-1.167.451-1.926.208-.758.43-1.473.667-2.144.256-.788.55-1.62.882-2.495.367-1.079.668-1.991.903-2.735.235-.744.424-1.357.568-1.838.144-.482.246-.854.308-1.116.061-.263.102-.452.123-.57.03-.174.034-.276.01-.306-.025-.028-.066-.043-.124-.043a9.212 9.212 0 0 0-1.25.35l-.285.112-.144.422a32.628 32.628 0 0 1-1.6 3.807c-.631 1.279-1.318 2.32-2.059 3.125-.006.035-.027.053-.062.053-.04.035-.114.052-.22.052a.297.297 0 0 1-.197-.079c-.061-.052-.094-.165-.098-.341a27.36 27.36 0 0 1-.066-1.418c-.002-.98.133-2.24.406-3.781.007-.035-.004-.07-.033-.105-.059-.07-.123-.105-.193-.105-.072 0-.171.07-.302.21-.474.49-.982 1.173-1.524 2.048a53.06 53.06 0 0 0-1.722 2.862c-.666 1.174-1.395 2.6-2.185 4.28a48.773 48.773 0 0 0-.876 2.259c-.223.665-.45 1.4-.681 2.205-.231.805-.411 1.576-.541 2.311a.634.634 0 0 1-.153.263c-.09.105-.275.157-.556.157-.317 0-.563-.052-.738-.157a1.058 1.058 0 0 1-.383-.368 1.063 1.063 0 0 1-.224-.525 23.577 23.577 0 0 1 .026-4.464c.15-1.54.358-3.063.625-4.57a73.574 73.574 0 0 1 1.06-4.997c-.598.11-1.35.274-2.259.49a137.318 137.318 0 0 0-.65 4.013c-.202 1.37-.45 2.89-.747 4.565a194.242 194.242 0 0 1-.601 3.217 42.31 42.31 0 0 1-.756 3.216 36.428 36.428 0 0 1-.9 2.819c-.317.858-.641 1.532-.974 2.022-.181.326-.332.54-.454.643-.12.102-.222.153-.304.153-.452 0-.668-.174-.647-.52.02-.348.018-.562-.008-.644.245-1.389.394-2.87.447-4.442.053-1.573.067-3.155.042-4.748a810.781 810.781 0 0 0-.084-4.565c-.03-1.45.014-2.747.136-3.89-1.62.327-3.145.826-4.58 1.5-1.434.674-2.684 1.359-3.751 2.053a27.509 27.509 0 0 0-3.497 2.696c-.45.45-.894.99-1.335 1.624-.44.633-.815 1.235-1.121 1.807-.411.694-.78 1.388-1.11 2.083-.014.082-.094.184-.238.307a.578.578 0 0 1-.196.06c-.822 0-1.296-.224-1.421-.673-.125-.45-.159-.838-.101-1.164.325-1.143.813-2.39 1.463-3.738a62.102 62.102 0 0 1 2.218-4.166c.828-1.43 1.698-2.859 2.609-4.29.91-1.429 1.83-2.797 2.76-4.104a202.42 202.42 0 0 1 6.971-9.436l.11-.613c.07-.408.332-.898.783-1.47.45-.572.987-1.113 1.612-1.624a13.21 13.21 0 0 1 1.928-1.317c.66-.368 1.217-.552 1.67-.552.123 0 .247.052.372.153.125.103.221.317.287.644.067 1.47.134 3.063.2 4.779a93.79 93.79 0 0 1 .073 5.147c-.02 1.96-.08 4.043-.184 6.25z"/></defs><g><g transform="translate(-889 -71)"><use fill="#fff" xlink:href="#uvcca"/></g></g></svg>