<?xml version="1.0" ?><svg fill="#8d90ef" id="Layer_1_1_" style="enable-background:new 0 0 64 64;" version="1.1" viewBox="0 0 64 64" xml:space="preserve" xmlns="http://www.w3.org/2000/svg" xmlns:xlink="http://www.w3.org/1999/xlink"><g><path d="M53.544,29.171C54.483,27.998,55,26.524,55,25.021c0-2.227-1.106-4.293-2.958-5.528L51.303,19H47v-1   c0-3.52-2.614-6.433-6.002-6.92V10c0-1.51-1.125-2.75-2.578-2.957C38.78,6.443,39,5.749,39,5c0-2.206-1.794-4-4-4s-4,1.794-4,4   c0,0.749,0.22,1.442,0.579,2.042C30.124,7.248,28.998,8.489,28.998,10v1.08c-3.388,0.487-6.002,3.4-6.002,6.92l0.001,1h-4.299   l-0.739,0.493C16.106,20.727,15,22.793,15,25.021c0,1.503,0.517,2.977,1.456,4.15l0.264,0.33c0.392,0.489,0.731,1.014,1.027,1.562   C9.51,31.707,3,38.601,3,47c0,8.822,7.178,16,16,16c1.026,0,2.026-0.106,2.998-0.292V63h27v-3c0-1.302-0.839-2.402-2-2.816V54   c0-1.654-1.346-3-3-3h-0.999l-0.002-3.617l-0.973-0.488c-1.741-0.87-2.854-2.566-2.996-4.483C44.097,37.788,47,31.246,47,24.37V21   h3.697l0.235,0.157C52.227,22.02,53,23.464,53,25.021c0,1.051-0.361,2.081-1.018,2.9l-0.265,0.331C49.965,30.443,49,33.194,49,36   c0,1.654,1.346,3,3,3s3-1.346,3-3v-1h-2v1c0,0.552-0.449,1-1,1s-1-0.448-1-1c0-2.354,0.81-4.661,2.279-6.499L53.544,29.171z M35,3   c1.103,0,2,0.897,2,2s-0.897,2-2,2s-2-0.897-2-2S33.897,3,35,3z M31.998,9h6c0.551,0,1,0.449,1,1v1h-8v-1   C30.998,9.449,31.447,9,31.998,9z M29.996,13H40c2.414,0,4.434,1.721,4.899,4H25.11C25.576,14.723,27.583,13,29.996,13z    M19.068,21.157L19.303,21h3.695L23,24.37c0,2.574,0.399,5.089,1.184,7.508c-1.338-0.46-2.754-0.742-4.224-0.83   c-0.436-1.001-0.993-1.942-1.677-2.797l-0.265-0.331c-0.656-0.82-1.018-1.85-1.018-2.9C17,23.464,17.773,22.02,19.068,21.157z    M5,47c0-7.72,6.28-14,14-14s14,6.28,14,14s-6.28,14-14,14S5,54.72,5,47z M46.998,61H26.729c1.015-0.562,1.954-1.239,2.819-2   h16.451c0.551,0,1,0.448,1,1V61z M44.998,54v3H31.47c0.967-1.204,1.762-2.549,2.352-4h10.176C44.549,53,44.998,53.448,44.998,54z    M40.999,48.616L41,51h-6.526C34.805,49.719,35,48.383,35,47s-0.195-2.719-0.527-4h2.595C37.385,45.39,38.827,47.478,40.999,48.616   z M37.62,41h-3.798c-1.383-3.404-3.899-6.226-7.085-7.995C25.589,30.258,25,27.358,25,24.37L25,19h20v5.37   C45,30.713,42.314,36.753,37.62,41z"/><path d="M28,48.586L26.415,47c-1.289-1.289-3.54-1.289-4.829,0l-0.637,0.638C20.714,47.871,20.404,48,20.074,48h-0.148   c-0.33,0-0.64-0.129-0.873-0.361l-0.691-0.691C18.128,46.714,18,46.404,18,46.074c0-0.377,0.169-0.729,0.463-0.964l0.573-0.459   C19.649,44.162,20,43.433,20,42.648c0-0.676-0.274-1.336-0.751-1.813L17.415,39c-1.289-1.289-3.541-1.289-4.829,0l-1.358,1.358   C10.436,41.15,10,42.203,10,43.345c0,0.571,0.114,1.127,0.339,1.651c1.867,4.358,5.282,7.818,9.615,9.745l2.02,0.897   C22.514,55.878,23.087,56,23.678,56c1.121,0,2.174-0.437,2.964-1.229L28,53.414c0.645-0.646,1-1.503,1-2.414   S28.645,49.231,28,48.586z M26.586,52l-1.358,1.358c-0.632,0.631-1.624,0.816-2.441,0.452l-2.02-0.897   c-3.871-1.721-6.921-4.812-8.589-8.705C12.06,43.934,12,43.644,12,43.322c0-0.585,0.228-1.136,0.642-1.551L14,40.414   C14.267,40.146,14.622,40,15,40s0.733,0.146,1,0.414l1.835,1.835C17.94,42.354,18,42.5,18,42.648c0,0.173-0.077,0.333-0.212,0.44   l-0.574,0.459C16.443,44.165,16,45.086,16,46.074c0,0.864,0.337,1.677,0.947,2.287l0.691,0.691C18.25,49.664,19.062,50,19.926,50   h0.148c0.864,0,1.676-0.336,2.288-0.947L23,48.414c0.533-0.535,1.465-0.535,2,0L26.585,50C26.853,50.268,27,50.622,27,51   S26.853,51.732,26.586,52z"/><path d="M35.704,37.298l1.425,1.404c3.613-3.669,5.694-8.523,5.861-13.67l-1.999-0.064C40.84,29.61,38.962,33.989,35.704,37.298z"/><rect height="2" width="2" x="41" y="21"/><rect height="2" width="2" x="57" y="10"/><rect height="2" width="2" x="57" y="14"/><rect height="2" width="2" x="59" y="12"/><rect height="2" width="2" x="55" y="12"/><rect height="2" width="2" x="46" y="1"/><rect height="2" width="2" x="46" y="5"/><rect height="2" width="2" x="48" y="3"/><rect height="2" width="2" x="44" y="3"/><rect height="2" width="2" x="21" y="1"/><rect height="2" width="2" x="21" y="5"/><rect height="2" width="2" x="23" y="3"/><rect height="2" width="2" x="19" y="3"/><rect height="2" width="2" x="11" y="7"/><rect height="2" width="2" x="11" y="11"/><rect height="2" width="2" x="13" y="9"/><rect height="2" width="2" x="9" y="9"/><rect height="2" width="2" x="9" y="18"/><rect height="2" width="2" x="9" y="22"/><rect height="2" width="2" x="11" y="20"/><rect height="2" width="2" x="7" y="20"/></g></svg>