<?xml version="1.0" ?><svg id="Layer_1_1_" fill="#8d90ef" style="enable-background:new 0 0 64 64;" version="1.1" viewBox="0 0 64 64" xml:space="preserve" xmlns="http://www.w3.org/2000/svg" xmlns:xlink="http://www.w3.org/1999/xlink"><g><path d="M61.493,41.902l-1.624-3.073C59.946,38.564,60,38.289,60,38c0-0.771-0.301-1.468-0.78-2c0.48-0.532,0.78-1.229,0.78-2   s-0.301-1.468-0.78-2c0.48-0.532,0.78-1.229,0.78-2c0-0.395-0.081-0.77-0.22-1.116C61.055,28.538,62,27.383,62,26   c0-1.654-1.346-3-3-3h-0.277l2.882-5.042C61.863,17.506,62,16.991,62,16.469V16c0-1.654-1.346-3-3-3   c-1.506,0-2.32,0.724-2.915,1.252C55.578,14.703,55.243,15,54.497,15c-0.745,0-1.08-0.297-1.587-0.748   C52.315,13.724,51.501,13,49.995,13c-1.505,0-2.319,0.724-2.914,1.252C46.574,14.703,46.24,15,45.495,15   c-0.743,0-1.077-0.297-1.582-0.747C43.318,13.724,42.505,13,41,13c-1.654,0-3,1.346-3,3v0.469c0,0.522,0.137,1.037,0.396,1.488   L39.563,20h-1.327c-1.097,0-2.192,0.19-3.236,0.529V6c0-2.757-2.243-5-5-5H6C3.243,1,1,3.243,1,6v52c0,2.757,2.243,5,5,5h24   c2.757,0,5-2.243,5-5V38.811c0.171,0.086,0.346,0.162,0.511,0.261l0.949,0.57c0.832,0.499,1.737,0.851,2.672,1.076l-0.625,1.183   C37.521,43.767,37,45.867,37,48c0,7.168,5.832,13,13,13s13-5.832,13-13.024C63,45.867,62.479,43.767,61.493,41.902z M40,16   c0-0.551,0.448-1,1-1c0.743,0,1.078,0.297,1.583,0.747C43.178,16.276,43.991,17,45.495,17c1.505,0,2.319-0.724,2.914-1.252   C48.916,15.297,49.25,15,49.995,15s1.08,0.297,1.587,0.748C52.177,16.276,52.991,17,54.497,17s2.321-0.724,2.916-1.252   C57.92,15.297,58.255,15,59,15c0.552,0,1,0.449,1,1v0.469c0,0.174-0.046,0.345-0.132,0.496L56.42,23H43.58l-3.448-6.036   C40.046,16.814,40,16.643,40,16.469V16z M6,3h24c1.654,0,3,1.346,3,3v3H3V6C3,4.346,4.346,3,6,3z M30,61H6c-1.654,0-3-1.346-3-3v-3   h30v3C33,59.654,31.654,61,30,61z M33,53H3V11h30v10.343c-0.642,0.265-1.313,0.453-2,0.555V13H5v38h26V38h0.639   c0.459,0,0.913,0.057,1.361,0.14V53z M15,20v20h12v-2h2v11H7V15h22v7h-2v-2H15z M21,26v12h-4V22h4v2h2v-2h2v16h-2V26H21z    M36.54,37.357C35.06,36.469,33.364,36,31.639,36H27V24h2.764c1.617,0,3.237-0.382,4.684-1.105c1.17-0.585,2.48-0.895,3.789-0.895   h2.469l1.714,3H59c0.552,0,1,0.449,1,1s-0.448,1-1,1h-2h-6h-6v2h6h6c0.552,0,1,0.449,1,1s-0.448,1-1,1h-6h-6v2h6h6   c0.552,0,1,0.449,1,1s-0.448,1-1,1H45v2h12c0.552,0,1,0.449,1,1s-0.448,1-1,1H41.361c-1.363,0-2.703-0.371-3.872-1.072   L36.54,37.357z M50,59c-6.065,0-11-4.935-11-11.024c0-1.784,0.44-3.562,1.274-5.139l0.974-1.844c0.038,0,0.075,0.008,0.112,0.008   H57c0.56,0,1.078-0.164,1.527-0.432l1.199,2.268C60.56,44.414,61,46.191,61,48C61,54.065,56.065,59,50,59z"/><path d="M50,47c0.552,0,1,0.449,1,1h2c0-1.302-0.839-2.402-2-2.816V43h-2v2.184c-1.161,0.414-2,1.514-2,2.816c0,1.654,1.346,3,3,3   c0.552,0,1,0.449,1,1s-0.448,1-1,1s-1-0.449-1-1h-2c0,1.302,0.839,2.402,2,2.816V57h2v-2.184c1.161-0.414,2-1.514,2-2.816   c0-1.654-1.346-3-3-3c-0.552,0-1-0.449-1-1S49.448,47,50,47z"/><rect height="2" width="8" x="14" y="5"/><rect height="2" width="2" x="24" y="5"/><rect height="2" width="2" x="10" y="5"/><rect height="2" width="6" x="15" y="57"/></g></svg>