<?xml version="1.0" ?><svg fill="#8d90ef" id="Layer_1_1_" style="enable-background:new 0 0 64 64;" version="1.1" viewBox="0 0 64 64" xml:space="preserve" xmlns="http://www.w3.org/2000/svg" xmlns:xlink="http://www.w3.org/1999/xlink"><g><path d="M63,23.776v-7.553l-3.729-0.955c-0.292-0.945-0.67-1.858-1.126-2.724l1.961-3.31l-5.341-5.341l-3.31,1.961   c-0.865-0.456-1.778-0.834-2.724-1.126L47.776,1h-7.553l-0.955,3.729c-0.945,0.292-1.858,0.67-2.724,1.126l-3.31-1.961L32.13,5H17   V4c0-1.654-1.346-3-3-3h-4C8.346,1,7,2.346,7,4v1H1v58h46V39h0.776l0.955-3.729c0.945-0.292,1.858-0.67,2.724-1.126l3.31,1.961   l5.341-5.341l-1.961-3.31c0.456-0.865,0.834-1.778,1.126-2.724L63,23.776z M15,31h-2V15h2V31z M9,15h2v16H9V15z M14.132,33   L12,36.197L9.868,33H14.132z M15,13H9v-2h6V13z M12,39.803L15.202,35H17v8H7v-8h1.798L12,39.803z M10,3h4c0.552,0,1,0.448,1,1v5H9   V4C9,3.448,9.448,3,10,3z M45,61H3V7h4v25.303L7.465,33H5v12h14V33h-2.465L17,32.303V7h13.13l-2.235,2.235l1.961,3.31   c-0.456,0.865-0.834,1.778-1.126,2.724L25,16.224v7.553l3.729,0.955c0.292,0.945,0.67,1.858,1.126,2.724l-1.961,3.31l5.341,5.341   l3.31-1.961c0.865,0.456,1.778,0.834,2.724,1.126L40.224,39H45V61z M57.655,23.08l-0.152,0.563   c-0.316,1.175-0.779,2.295-1.376,3.331l-0.292,0.506l1.759,2.968l-3.146,3.146l-2.968-1.759l-0.506,0.292   c-1.036,0.597-2.156,1.06-3.331,1.376l-0.563,0.152L46.224,37h-4.447l-0.856-3.345l-0.563-0.152   c-1.175-0.316-2.295-0.779-3.331-1.376l-0.506-0.292l-2.968,1.759l-3.146-3.146l1.759-2.968l-0.292-0.506   c-0.597-1.036-1.06-2.156-1.376-3.331l-0.152-0.563L27,22.224v-4.447l3.345-0.856l0.152-0.563c0.316-1.175,0.779-2.295,1.376-3.331   l0.292-0.506l-1.759-2.968l3.146-3.146l2.968,1.759l0.506-0.292c1.036-0.597,2.156-1.06,3.331-1.376l0.563-0.152L41.776,3h4.447   l0.856,3.345l0.563,0.152c1.175,0.316,2.295,0.779,3.331,1.376l0.506,0.292l2.968-1.759l3.146,3.146l-1.759,2.968l0.292,0.506   c0.597,1.036,1.06,2.156,1.376,3.331l0.152,0.563L61,17.776v4.447L57.655,23.08z"/><path d="M44,8c-6.617,0-12,5.383-12,12s5.383,12,12,12s12-5.383,12-12S50.617,8,44,8z M44,30c-5.514,0-10-4.486-10-10   s4.486-10,10-10s10,4.486,10,10S49.514,30,44,30z"/><path d="M44,12c-4.411,0-8,3.589-8,8s3.589,8,8,8s8-3.589,8-8S48.411,12,44,12z M44,26c-3.309,0-6-2.691-6-6s2.691-6,6-6   s6,2.691,6,6S47.309,26,44,26z"/><path d="M19.293,45.293L17.586,47H5v12h14V48.414l1.707-1.707L19.293,45.293z M17,57H7v-8h8.586L11,53.586l-1.293-1.293   l-1.414,1.414L11,56.414l6-6V57z"/><rect height="2" width="2" x="41" y="57"/><rect height="2" width="18" x="21" y="57"/><rect height="2" width="22" x="21" y="53"/><rect height="2" width="22" x="21" y="49"/><rect height="2" width="18" x="21" y="43"/><rect height="2" width="18" x="21" y="39"/><rect height="2" width="8" x="21" y="35"/></g></svg>